<svg width="1344" height="679" viewBox="0 0 1344 679" fill="none" xmlns="http://www.w3.org/2000/svg">
<g filter="url(#filter0_b_1656_3306)">
<rect width="1343.33" height="678.4" rx="28.8" fill="#FEB649"/>
</g>
<path d="M406.599 330.687C405.486 328.345 403.873 326.54 401.761 325.273C399.649 323.967 397.191 323.314 394.388 323.314C391.585 323.314 389.05 323.967 386.785 325.273C384.558 326.54 382.791 328.383 381.486 330.802C380.218 333.183 379.585 335.948 379.585 339.097C379.585 342.246 380.218 345.01 381.486 347.391C382.791 349.772 384.558 351.615 386.785 352.921C389.05 354.188 391.585 354.822 394.388 354.822C398.305 354.822 401.53 353.65 404.065 351.308C406.599 348.966 408.078 345.798 408.5 341.804H392.487V337.542H414.087V341.574C413.78 344.876 412.743 347.91 410.977 350.674C409.21 353.401 406.887 355.57 404.007 357.183C401.127 358.758 397.921 359.545 394.388 359.545C390.663 359.545 387.265 358.681 384.193 356.953C381.121 355.186 378.682 352.748 376.878 349.638C375.111 346.527 374.228 343.014 374.228 339.097C374.228 335.18 375.111 331.666 376.878 328.556C378.682 325.407 381.121 322.969 384.193 321.241C387.265 319.474 390.663 318.591 394.388 318.591C398.65 318.591 402.414 319.647 405.678 321.759C408.98 323.871 411.38 326.847 412.878 330.687H406.599ZM448.378 342.207C448.378 343.206 448.32 344.262 448.205 345.375H422.976C423.168 348.486 424.224 350.924 426.144 352.69C428.103 354.418 430.464 355.282 433.229 355.282C435.495 355.282 437.376 354.764 438.874 353.727C440.41 352.652 441.485 351.231 442.099 349.465H447.744C446.899 352.498 445.21 354.975 442.675 356.895C440.141 358.777 436.992 359.718 433.229 359.718C430.234 359.718 427.546 359.046 425.165 357.702C422.823 356.358 420.979 354.457 419.635 351.999C418.291 349.503 417.619 346.623 417.619 343.359C417.619 340.095 418.272 337.234 419.578 334.777C420.883 332.319 422.707 330.438 425.05 329.132C427.431 327.788 430.157 327.116 433.229 327.116C436.224 327.116 438.874 327.769 441.178 329.074C443.482 330.38 445.248 332.185 446.477 334.489C447.744 336.754 448.378 339.327 448.378 342.207ZM442.963 341.113C442.963 339.116 442.522 337.407 441.639 335.986C440.755 334.527 439.546 333.433 438.01 332.703C436.512 331.935 434.842 331.551 432.999 331.551C430.349 331.551 428.083 332.396 426.202 334.086C424.359 335.775 423.303 338.118 423.034 341.113H442.963ZM460.25 331.954V350.559C460.25 352.095 460.576 353.19 461.229 353.842C461.882 354.457 463.015 354.764 464.628 354.764H468.487V359.199H463.764C460.845 359.199 458.656 358.527 457.197 357.183C455.738 355.839 455.008 353.631 455.008 350.559V331.954H450.919V327.634H455.008V319.686H460.25V327.634H468.487V331.954H460.25ZM493.708 331.954V350.559C493.708 352.095 494.034 353.19 494.687 353.842C495.34 354.457 496.472 354.764 498.085 354.764H501.944V359.199H497.221C494.303 359.199 492.114 358.527 490.655 357.183C489.196 355.839 488.466 353.631 488.466 350.559V331.954H484.376V327.634H488.466V319.686H493.708V327.634H501.944V331.954H493.708ZM520.622 359.718C517.665 359.718 514.977 359.046 512.558 357.702C510.177 356.358 508.295 354.457 506.913 351.999C505.569 349.503 504.897 346.623 504.897 343.359C504.897 340.134 505.588 337.292 506.97 334.834C508.391 332.338 510.311 330.438 512.73 329.132C515.15 327.788 517.857 327.116 520.852 327.116C523.847 327.116 526.554 327.788 528.974 329.132C531.393 330.438 533.294 332.319 534.676 334.777C536.097 337.234 536.807 340.095 536.807 343.359C536.807 346.623 536.078 349.503 534.618 351.999C533.198 354.457 531.258 356.358 528.801 357.702C526.343 359.046 523.617 359.718 520.622 359.718ZM520.622 355.11C522.503 355.11 524.27 354.668 525.921 353.785C527.572 352.902 528.897 351.577 529.895 349.81C530.932 348.044 531.45 345.894 531.45 343.359C531.45 340.825 530.951 338.674 529.953 336.908C528.954 335.142 527.649 333.836 526.036 332.991C524.423 332.108 522.676 331.666 520.794 331.666C518.874 331.666 517.108 332.108 515.495 332.991C513.921 333.836 512.654 335.142 511.694 336.908C510.734 338.674 510.254 340.825 510.254 343.359C510.254 345.932 510.714 348.102 511.636 349.868C512.596 351.634 513.863 352.959 515.438 353.842C517.012 354.687 518.74 355.11 520.622 355.11ZM573.801 359.199L561.417 345.26V359.199H556.175V316.575H561.417V341.631L573.57 327.634H580.886L566.025 343.359L580.943 359.199H573.801ZM599.758 327.058C603.598 327.058 606.709 328.23 609.089 330.572C611.47 332.876 612.661 336.217 612.661 340.594V359.199H607.477V341.343C607.477 338.194 606.689 335.794 605.115 334.143C603.541 332.454 601.39 331.609 598.664 331.609C595.899 331.609 593.691 332.473 592.04 334.201C590.427 335.929 589.621 338.444 589.621 341.746V359.199H584.379V327.634H589.621V332.127C590.657 330.514 592.059 329.266 593.825 328.383C595.63 327.5 597.608 327.058 599.758 327.058ZM633.549 359.718C630.592 359.718 627.904 359.046 625.485 357.702C623.104 356.358 621.223 354.457 619.84 351.999C618.496 349.503 617.824 346.623 617.824 343.359C617.824 340.134 618.516 337.292 619.898 334.834C621.319 332.338 623.239 330.438 625.658 329.132C628.077 327.788 630.784 327.116 633.78 327.116C636.775 327.116 639.482 327.788 641.901 329.132C644.32 330.438 646.221 332.319 647.604 334.777C649.024 337.234 649.735 340.095 649.735 343.359C649.735 346.623 649.005 349.503 647.546 351.999C646.125 354.457 644.186 356.358 641.728 357.702C639.271 359.046 636.544 359.718 633.549 359.718ZM633.549 355.11C635.431 355.11 637.197 354.668 638.848 353.785C640.5 352.902 641.824 351.577 642.823 349.81C643.86 348.044 644.378 345.894 644.378 343.359C644.378 340.825 643.879 338.674 642.88 336.908C641.882 335.142 640.576 333.836 638.964 332.991C637.351 332.108 635.604 331.666 633.722 331.666C631.802 331.666 630.036 332.108 628.423 332.991C626.848 333.836 625.581 335.142 624.621 336.908C623.661 338.674 623.181 340.825 623.181 343.359C623.181 345.932 623.642 348.102 624.564 349.868C625.524 351.634 626.791 352.959 628.365 353.842C629.94 354.687 631.668 355.11 633.549 355.11ZM697.234 327.634L687.385 359.199H681.97L674.367 334.143L666.764 359.199H661.35L651.442 327.634H656.799L664.057 354.13L671.89 327.634H677.247L684.908 354.188L692.05 327.634H697.234ZM742.906 327.634V359.199H737.665V354.534C736.666 356.146 735.265 357.414 733.46 358.335C731.694 359.218 729.735 359.66 727.585 359.66C725.127 359.66 722.919 359.161 720.961 358.162C719.002 357.126 717.447 355.59 716.295 353.554C715.182 351.519 714.625 349.042 714.625 346.124V327.634H719.809V345.433C719.809 348.543 720.596 350.943 722.17 352.633C723.745 354.284 725.895 355.11 728.622 355.11C731.425 355.11 733.633 354.246 735.246 352.518C736.858 350.79 737.665 348.274 737.665 344.972V327.634H742.906ZM761.491 359.718C759.072 359.718 756.902 359.314 754.982 358.508C753.062 357.663 751.545 356.511 750.432 355.052C749.318 353.554 748.704 351.846 748.588 349.926H754.003C754.156 351.5 754.886 352.786 756.192 353.785C757.536 354.783 759.283 355.282 761.433 355.282C763.43 355.282 765.004 354.841 766.156 353.958C767.308 353.074 767.884 351.961 767.884 350.617C767.884 349.234 767.27 348.217 766.041 347.564C764.812 346.873 762.912 346.201 760.339 345.548C757.996 344.934 756.076 344.319 754.579 343.705C753.12 343.052 751.852 342.111 750.777 340.882C749.74 339.615 749.222 337.964 749.222 335.929C749.222 334.316 749.702 332.838 750.662 331.494C751.622 330.15 752.985 329.094 754.752 328.326C756.518 327.519 758.534 327.116 760.8 327.116C764.294 327.116 767.116 327.999 769.267 329.766C771.417 331.532 772.569 333.951 772.723 337.023H767.481C767.366 335.372 766.694 334.047 765.465 333.049C764.275 332.05 762.662 331.551 760.627 331.551C758.745 331.551 757.248 331.954 756.134 332.761C755.02 333.567 754.464 334.623 754.464 335.929C754.464 336.966 754.79 337.83 755.443 338.521C756.134 339.174 756.979 339.711 757.977 340.134C759.014 340.518 760.435 340.959 762.24 341.458C764.505 342.073 766.348 342.687 767.769 343.302C769.19 343.878 770.4 344.761 771.398 345.951C772.435 347.142 772.972 348.697 773.011 350.617C773.011 352.345 772.531 353.9 771.571 355.282C770.611 356.665 769.248 357.759 767.481 358.566C765.753 359.334 763.756 359.718 761.491 359.718ZM798.128 333.51C799.203 331.628 800.778 330.092 802.851 328.902C804.925 327.711 807.286 327.116 809.936 327.116C812.778 327.116 815.331 327.788 817.597 329.132C819.862 330.476 821.648 332.377 822.954 334.834C824.259 337.254 824.912 340.076 824.912 343.302C824.912 346.489 824.259 349.33 822.954 351.826C821.648 354.322 819.843 356.262 817.539 357.644C815.274 359.026 812.739 359.718 809.936 359.718C807.21 359.718 804.81 359.122 802.736 357.932C800.701 356.742 799.165 355.225 798.128 353.382V359.199H792.886V316.575H798.128V333.51ZM819.555 343.302C819.555 340.921 819.075 338.847 818.115 337.081C817.155 335.314 815.85 333.97 814.198 333.049C812.586 332.127 810.8 331.666 808.842 331.666C806.922 331.666 805.136 332.146 803.485 333.106C801.872 334.028 800.566 335.391 799.568 337.196C798.608 338.962 798.128 341.017 798.128 343.359C798.128 345.74 798.608 347.833 799.568 349.638C800.566 351.404 801.872 352.767 803.485 353.727C805.136 354.649 806.922 355.11 808.842 355.11C810.8 355.11 812.586 354.649 814.198 353.727C815.85 352.767 817.155 351.404 818.115 349.638C819.075 347.833 819.555 345.721 819.555 343.302ZM859.171 342.207C859.171 343.206 859.114 344.262 858.999 345.375H833.77C833.962 348.486 835.018 350.924 836.938 352.69C838.896 354.418 841.258 355.282 844.023 355.282C846.288 355.282 848.17 354.764 849.667 353.727C851.203 352.652 852.279 351.231 852.893 349.465H858.538C857.693 352.498 856.003 354.975 853.469 356.895C850.935 358.777 847.786 359.718 844.023 359.718C841.027 359.718 838.339 359.046 835.959 357.702C833.616 356.358 831.773 354.457 830.429 351.999C829.085 349.503 828.413 346.623 828.413 343.359C828.413 340.095 829.066 337.234 830.371 334.777C831.677 332.319 833.501 330.438 835.843 329.132C838.224 327.788 840.951 327.116 844.023 327.116C847.018 327.116 849.667 327.769 851.971 329.074C854.275 330.38 856.042 332.185 857.271 334.489C858.538 336.754 859.171 339.327 859.171 342.207ZM853.757 341.113C853.757 339.116 853.315 337.407 852.432 335.986C851.549 334.527 850.339 333.433 848.803 332.703C847.306 331.935 845.635 331.551 843.792 331.551C841.143 331.551 838.877 332.396 836.995 334.086C835.152 335.775 834.096 338.118 833.827 341.113H853.757ZM871.044 331.954V350.559C871.044 352.095 871.37 353.19 872.023 353.842C872.676 354.457 873.809 354.764 875.421 354.764H879.281V359.199H874.557C871.639 359.199 869.45 358.527 867.991 357.183C866.532 355.839 865.802 353.631 865.802 350.559V331.954H861.713V327.634H865.802V319.686H871.044V327.634H879.281V331.954H871.044ZM890.585 331.954V350.559C890.585 352.095 890.911 353.19 891.564 353.842C892.217 354.457 893.35 354.764 894.963 354.764H898.822V359.199H894.099C891.18 359.199 888.991 358.527 887.532 357.183C886.073 355.839 885.343 353.631 885.343 350.559V331.954H881.254V327.634H885.343V319.686H890.585V327.634H898.822V331.954H890.585ZM932.533 342.207C932.533 343.206 932.475 344.262 932.36 345.375H907.131C907.323 348.486 908.379 350.924 910.299 352.69C912.257 354.418 914.619 355.282 917.384 355.282C919.649 355.282 921.531 354.764 923.029 353.727C924.565 352.652 925.64 351.231 926.254 349.465H931.899C931.054 352.498 929.365 354.975 926.83 356.895C924.296 358.777 921.147 359.718 917.384 359.718C914.389 359.718 911.701 359.046 909.32 357.702C906.977 356.358 905.134 354.457 903.79 351.999C902.446 349.503 901.774 346.623 901.774 343.359C901.774 340.095 902.427 337.234 903.733 334.777C905.038 332.319 906.862 330.438 909.205 329.132C911.585 327.788 914.312 327.116 917.384 327.116C920.379 327.116 923.029 327.769 925.333 329.074C927.637 330.38 929.403 332.185 930.632 334.489C931.899 336.754 932.533 339.327 932.533 342.207ZM927.118 341.113C927.118 339.116 926.677 337.407 925.793 335.986C924.91 334.527 923.701 333.433 922.165 332.703C920.667 331.935 918.997 331.551 917.153 331.551C914.504 331.551 912.238 332.396 910.357 334.086C908.513 335.775 907.457 338.118 907.189 341.113H927.118ZM943.253 332.761C944.175 330.956 945.48 329.554 947.17 328.556C948.898 327.558 950.991 327.058 953.448 327.058V332.473H952.066C946.191 332.473 943.253 335.66 943.253 342.034V359.199H938.011V327.634H943.253V332.761ZM964.856 319.052L964.222 347.852H959.845L959.211 319.052H964.856ZM962.264 359.545C961.265 359.545 960.421 359.199 959.729 358.508C959.038 357.817 958.693 356.972 958.693 355.974C958.693 354.975 959.038 354.13 959.729 353.439C960.421 352.748 961.265 352.402 962.264 352.402C963.224 352.402 964.03 352.748 964.683 353.439C965.374 354.13 965.72 354.975 965.72 355.974C965.72 356.972 965.374 357.817 964.683 358.508C964.03 359.199 963.224 359.545 962.264 359.545Z" fill="#0A0A0A"/>
<defs>
<filter id="filter0_b_1656_3306" x="-160" y="-160" width="1663.32" height="998.4" filterUnits="userSpaceOnUse" color-interpolation-filters="sRGB">
<feFlood flood-opacity="0" result="BackgroundImageFix"/>
<feGaussianBlur in="BackgroundImageFix" stdDeviation="80"/>
<feComposite in2="SourceAlpha" operator="in" result="effect1_backgroundBlur_1656_3306"/>
<feBlend mode="normal" in="SourceGraphic" in2="effect1_backgroundBlur_1656_3306" result="shape"/>
</filter>
</defs>
</svg>
