<svg width="217" height="15" viewBox="0 0 217 15" fill="none" xmlns="http://www.w3.org/2000/svg">
<path d="M6.75353 1.87956C7.06946 1.36191 7.82116 1.36191 8.1371 1.87956C9.42602 3.9914 11.2 5.76539 13.3119 7.05431C13.8295 7.37024 13.8295 8.12194 13.3119 8.43788C11.2 9.7268 9.42602 11.5008 8.1371 13.6126C7.82116 14.1303 7.06946 14.1303 6.75353 13.6126C5.46461 11.5008 3.69062 9.7268 1.57877 8.43788C1.06113 8.12194 1.06113 7.37024 1.57877 7.05431C3.69062 5.76539 5.46461 3.9914 6.75353 1.87956Z" fill="#ED7D31"/>
<path d="M208.922 1.86708C209.129 1.42284 209.761 1.42284 209.968 1.86708C211.069 4.22595 212.965 6.12204 215.324 7.22293C215.769 7.43025 215.769 8.06193 215.324 8.26926C212.965 9.37015 211.069 11.2662 209.968 13.6251C209.761 14.0693 209.129 14.0693 208.922 13.6251C207.821 11.2662 205.925 9.37015 203.566 8.26926C203.122 8.06193 203.122 7.43025 203.566 7.22293C205.925 6.12204 207.821 4.22595 208.922 1.86708Z" fill="#ED7D31"/>
<path d="M21.6641 7.69336H198.115" stroke="#ED7D31"/>
</svg>
