<svg width="368" height="545" viewBox="0 0 368 545" fill="none" xmlns="http://www.w3.org/2000/svg">
<g clip-path="url(#clip0_1610_4130)">
<rect x="1.39062" y="2.16211" width="364.8" height="540.906" rx="28.8" fill="#ED7D31"/>
<circle cx="189.814" cy="360.718" r="267.4" fill="#ED7D31"/>
<circle cx="189.812" cy="280.719" r="215.797" fill="#FE9549"/>
<circle cx="189.817" cy="280.718" r="149.637" fill="#FEA049"/>
<circle cx="189.814" cy="280.718" r="76.0875" fill="#FEB649"/>
<path d="M-683.348 326.59C-798.389 270.924 -811.69 446.727 -803.96 525.587L-807.383 533.308H792.862C812.224 560.492 850.324 554.34 847.83 440.265C844.711 297.671 827.817 386.183 697.118 291.539C566.42 196.895 483.794 392.192 380.137 440.265C276.479 488.338 236.906 462.075 179.436 413.036C138.39 378.012 91.2896 301.078 26.3464 359.063C-38.5969 417.048 -174.781 352.103 -262.919 326.59C-351.056 301.076 -426.961 317.314 -473.349 359.063C-519.737 400.812 -539.546 396.172 -683.348 326.59Z" fill="#542A29"/>
<path d="M1.39062 515.58H366.191V543.068H1.39062V515.58Z" fill="#171717"/>
<path d="M308.414 475.502C308.414 471.084 311.996 467.502 316.414 467.502H328.527C332.945 467.502 336.527 471.084 336.527 475.502V515.58H308.414V475.502Z" fill="black"/>
<path d="M320.008 178.134C320.008 176.774 321.11 175.672 322.47 175.672C323.83 175.672 324.933 176.774 324.933 178.134V467.503H320.008V178.134Z" fill="black"/>
<path d="M186.002 195.793C184.642 195.793 183.539 194.69 183.539 193.33C183.539 191.97 184.642 190.868 186.002 190.868L322.467 190.868L322.467 195.793L186.002 195.793Z" fill="black"/>
<rect x="40.7758" y="41.1625" width="216.463" height="56.4" rx="28.2" fill="#FEB649" stroke="#C67700" stroke-width="1.2"/>
<path d="M68.8708 59.1621V55.1685H76.858V83.1621H72.442V59.1621H68.8708ZM99.9598 58.9317H87.0958V66.5733C87.6334 65.8565 88.427 65.2549 89.4766 64.7685C90.5518 64.2821 91.691 64.0389 92.8942 64.0389C95.0446 64.0389 96.7854 64.4997 98.1166 65.4213C99.4734 66.3429 100.433 67.5077 100.997 68.9157C101.585 70.3237 101.88 71.8085 101.88 73.3701C101.88 75.2645 101.509 76.9541 100.766 78.4389C100.049 79.8981 98.9614 81.0501 97.5022 81.8949C96.0686 82.7397 94.3022 83.1621 92.203 83.1621C89.4126 83.1621 87.1726 82.4709 85.483 81.0885C83.7934 79.7061 82.7822 77.8757 82.4494 75.5973H86.7118C86.9934 76.8005 87.6206 77.7605 88.5934 78.4773C89.5662 79.1685 90.7822 79.5141 92.2414 79.5141C94.059 79.5141 95.4158 78.9637 96.3118 77.8629C97.2334 76.7621 97.6942 75.3029 97.6942 73.4853C97.6942 71.6421 97.2334 70.2341 96.3118 69.2613C95.3902 68.2629 94.0334 67.7637 92.2414 67.7637C90.987 67.7637 89.9246 68.0837 89.0542 68.7237C88.2094 69.3381 87.595 70.1829 87.211 71.2581H83.0638V55.0917H99.9598V58.9317ZM105.477 68.8005C105.477 64.3717 106.219 60.9157 107.704 58.4325C109.214 55.9237 111.8 54.6693 115.461 54.6693C119.122 54.6693 121.694 55.9237 123.179 58.4325C124.69 60.9157 125.445 64.3717 125.445 68.8005C125.445 73.2805 124.69 76.7877 123.179 79.3221C121.694 81.8309 119.122 83.0853 115.461 83.0853C111.8 83.0853 109.214 81.8309 107.704 79.3221C106.219 76.7877 105.477 73.2805 105.477 68.8005ZM121.144 68.8005C121.144 66.7269 121.003 64.9733 120.722 63.5397C120.466 62.1061 119.928 60.9413 119.109 60.0453C118.29 59.1237 117.074 58.6629 115.461 58.6629C113.848 58.6629 112.632 59.1237 111.813 60.0453C110.994 60.9413 110.443 62.1061 110.162 63.5397C109.906 64.9733 109.778 66.7269 109.778 68.8005C109.778 70.9509 109.906 72.7557 110.162 74.2149C110.418 75.6741 110.955 76.8517 111.774 77.7477C112.619 78.6437 113.848 79.0917 115.461 79.0917C117.074 79.0917 118.29 78.6437 119.109 77.7477C119.954 76.8517 120.504 75.6741 120.76 74.2149C121.016 72.7557 121.144 70.9509 121.144 68.8005ZM134.493 77.9013L129.846 88.4997H127.005L129.731 77.9013H134.493ZM136.782 68.8005C136.782 64.3717 137.524 60.9157 139.009 58.4325C140.519 55.9237 143.105 54.6693 146.766 54.6693C150.427 54.6693 152.999 55.9237 154.484 58.4325C155.995 60.9157 156.75 64.3717 156.75 68.8005C156.75 73.2805 155.995 76.7877 154.484 79.3221C152.999 81.8309 150.427 83.0853 146.766 83.0853C143.105 83.0853 140.519 81.8309 139.009 79.3221C137.524 76.7877 136.782 73.2805 136.782 68.8005ZM152.449 68.8005C152.449 66.7269 152.308 64.9733 152.027 63.5397C151.771 62.1061 151.233 60.9413 150.414 60.0453C149.595 59.1237 148.379 58.6629 146.766 58.6629C145.153 58.6629 143.937 59.1237 143.118 60.0453C142.299 60.9413 141.748 62.1061 141.467 63.5397C141.211 64.9733 141.083 66.7269 141.083 68.8005C141.083 70.9509 141.211 72.7557 141.467 74.2149C141.723 75.6741 142.26 76.8517 143.079 77.7477C143.924 78.6437 145.153 79.0917 146.766 79.0917C148.379 79.0917 149.595 78.6437 150.414 77.7477C151.259 76.8517 151.809 75.6741 152.065 74.2149C152.321 72.7557 152.449 70.9509 152.449 68.8005ZM160.422 68.8005C160.422 64.3717 161.164 60.9157 162.649 58.4325C164.159 55.9237 166.745 54.6693 170.406 54.6693C174.067 54.6693 176.639 55.9237 178.124 58.4325C179.635 60.9157 180.39 64.3717 180.39 68.8005C180.39 73.2805 179.635 76.7877 178.124 79.3221C176.639 81.8309 174.067 83.0853 170.406 83.0853C166.745 83.0853 164.159 81.8309 162.649 79.3221C161.164 76.7877 160.422 73.2805 160.422 68.8005ZM176.089 68.8005C176.089 66.7269 175.948 64.9733 175.667 63.5397C175.411 62.1061 174.873 60.9413 174.054 60.0453C173.235 59.1237 172.019 58.6629 170.406 58.6629C168.793 58.6629 167.577 59.1237 166.758 60.0453C165.939 60.9413 165.388 62.1061 165.107 63.5397C164.851 64.9733 164.723 66.7269 164.723 68.8005C164.723 70.9509 164.851 72.7557 165.107 74.2149C165.363 75.6741 165.9 76.8517 166.719 77.7477C167.564 78.6437 168.793 79.0917 170.406 79.0917C172.019 79.0917 173.235 78.6437 174.054 77.7477C174.899 76.8517 175.449 75.6741 175.705 74.2149C175.961 72.7557 176.089 70.9509 176.089 68.8005ZM184.062 68.8005C184.062 64.3717 184.804 60.9157 186.289 58.4325C187.799 55.9237 190.385 54.6693 194.046 54.6693C197.707 54.6693 200.279 55.9237 201.764 58.4325C203.275 60.9157 204.03 64.3717 204.03 68.8005C204.03 73.2805 203.275 76.7877 201.764 79.3221C200.279 81.8309 197.707 83.0853 194.046 83.0853C190.385 83.0853 187.799 81.8309 186.289 79.3221C184.804 76.7877 184.062 73.2805 184.062 68.8005ZM199.729 68.8005C199.729 66.7269 199.588 64.9733 199.307 63.5397C199.051 62.1061 198.513 60.9413 197.694 60.0453C196.875 59.1237 195.659 58.6629 194.046 58.6629C192.433 58.6629 191.217 59.1237 190.398 60.0453C189.579 60.9413 189.028 62.1061 188.747 63.5397C188.491 64.9733 188.363 66.7269 188.363 68.8005C188.363 70.9509 188.491 72.7557 188.747 74.2149C189.003 75.6741 189.54 76.8517 190.359 77.7477C191.204 78.6437 192.433 79.0917 194.046 79.0917C195.659 79.0917 196.875 78.6437 197.694 77.7477C198.539 76.8517 199.089 75.6741 199.345 74.2149C199.601 72.7557 199.729 70.9509 199.729 68.8005ZM228.899 71.1429H221.142V79.0917H217.071V71.1429H209.315V67.4565H217.071V59.5077H221.142V67.4565H228.899V71.1429Z" fill="#0A0A0A"/>
<path d="M45.2323 119.995V125.87H52.1443V128.549H45.2323V134.683H53.0083V137.361H41.9491V117.317H53.0083V119.995H45.2323ZM59.6154 116.049V137.361H56.3322V116.049H59.6154ZM77.7499 129.038C77.7499 129.633 77.7115 130.171 77.6347 130.651H65.5099C65.6059 131.918 66.0763 132.936 66.9211 133.704C67.7659 134.472 68.8027 134.856 70.0315 134.856C71.7979 134.856 73.0459 134.117 73.7755 132.638H77.3179C76.8379 134.097 75.9643 135.297 74.6971 136.238C73.4491 137.16 71.8939 137.621 70.0315 137.621C68.5147 137.621 67.1515 137.285 65.9419 136.613C64.7515 135.921 63.8107 134.961 63.1195 133.733C62.4475 132.485 62.1115 131.045 62.1115 129.413C62.1115 127.781 62.4379 126.35 63.0907 125.121C63.7627 123.873 64.6939 122.913 65.8843 122.241C67.0939 121.569 68.4763 121.233 70.0315 121.233C71.5291 121.233 72.8635 121.56 74.0347 122.213C75.2059 122.865 76.1179 123.787 76.7707 124.977C77.4235 126.149 77.7499 127.502 77.7499 129.038ZM74.3227 128.001C74.3035 126.792 73.8715 125.822 73.0267 125.093C72.1819 124.363 71.1355 123.998 69.8875 123.998C68.7547 123.998 67.7851 124.363 66.9787 125.093C66.1723 125.803 65.6923 126.773 65.5387 128.001H74.3227ZM79.1665 129.413C79.1665 127.781 79.4929 126.35 80.1457 125.121C80.8177 123.873 81.7393 122.913 82.9105 122.241C84.0817 121.569 85.4257 121.233 86.9425 121.233C88.8625 121.233 90.4465 121.694 91.6945 122.616C92.9617 123.518 93.8161 124.814 94.2577 126.504H90.7153C90.4273 125.717 89.9665 125.102 89.3329 124.661C88.6993 124.219 87.9025 123.998 86.9425 123.998C85.5985 123.998 84.5233 124.478 83.7169 125.438C82.9297 126.379 82.5361 127.704 82.5361 129.413C82.5361 131.121 82.9297 132.456 83.7169 133.416C84.5233 134.376 85.5985 134.856 86.9425 134.856C88.8433 134.856 90.1009 134.021 90.7153 132.35H94.2577C93.7969 133.963 92.9329 135.249 91.6657 136.209C90.3985 137.15 88.8241 137.621 86.9425 137.621C85.4257 137.621 84.0817 137.285 82.9105 136.613C81.7393 135.921 80.8177 134.961 80.1457 133.733C79.4929 132.485 79.1665 131.045 79.1665 129.413ZM100.64 124.171V132.955C100.64 133.55 100.774 133.982 101.043 134.251C101.331 134.501 101.811 134.625 102.483 134.625H104.499V137.361H101.907C100.429 137.361 99.2961 137.016 98.5089 136.325C97.7217 135.633 97.3281 134.51 97.3281 132.955V124.171H95.4561V121.493H97.3281V117.547H100.64V121.493H104.499V124.171H100.64ZM110.089 123.797C110.569 122.99 111.202 122.366 111.989 121.925C112.796 121.464 113.746 121.233 114.841 121.233V124.632H114.005C112.719 124.632 111.74 124.958 111.068 125.611C110.415 126.264 110.089 127.397 110.089 129.009V137.361H106.805V121.493H110.089V123.797ZM118.809 119.39C118.214 119.39 117.714 119.189 117.311 118.785C116.908 118.382 116.706 117.883 116.706 117.288C116.706 116.693 116.908 116.193 117.311 115.79C117.714 115.387 118.214 115.185 118.809 115.185C119.385 115.185 119.874 115.387 120.278 115.79C120.681 116.193 120.882 116.693 120.882 117.288C120.882 117.883 120.681 118.382 120.278 118.785C119.874 119.189 119.385 119.39 118.809 119.39ZM120.422 121.493V137.361H117.138V121.493H120.422ZM122.918 129.413C122.918 127.781 123.244 126.35 123.897 125.121C124.569 123.873 125.491 122.913 126.662 122.241C127.833 121.569 129.177 121.233 130.694 121.233C132.614 121.233 134.198 121.694 135.446 122.616C136.713 123.518 137.567 124.814 138.009 126.504H134.467C134.179 125.717 133.718 125.102 133.084 124.661C132.451 124.219 131.654 123.998 130.694 123.998C129.35 123.998 128.275 124.478 127.468 125.438C126.681 126.379 126.287 127.704 126.287 129.413C126.287 131.121 126.681 132.456 127.468 133.416C128.275 134.376 129.35 134.856 130.694 134.856C132.595 134.856 133.852 134.021 134.467 132.35H138.009C137.548 133.963 136.684 135.249 135.417 136.209C134.15 137.15 132.575 137.621 130.694 137.621C129.177 137.621 127.833 137.285 126.662 136.613C125.491 135.921 124.569 134.961 123.897 133.733C123.244 132.485 122.918 131.045 122.918 129.413ZM142.231 119.39C141.636 119.39 141.137 119.189 140.734 118.785C140.331 118.382 140.129 117.883 140.129 117.288C140.129 116.693 140.331 116.193 140.734 115.79C141.137 115.387 141.636 115.185 142.231 115.185C142.807 115.185 143.297 115.387 143.7 115.79C144.103 116.193 144.305 116.693 144.305 117.288C144.305 117.883 144.103 118.382 143.7 118.785C143.297 119.189 142.807 119.39 142.231 119.39ZM143.844 121.493V137.361H140.561V121.493H143.844ZM151.265 124.171V132.955C151.265 133.55 151.399 133.982 151.668 134.251C151.956 134.501 152.436 134.625 153.108 134.625H155.124V137.361H152.532C151.054 137.361 149.921 137.016 149.134 136.325C148.347 135.633 147.953 134.51 147.953 132.955V124.171H146.081V121.493H147.953V117.547H151.265V121.493H155.124V124.171H151.265ZM171.715 121.493L161.981 144.821H158.582L161.808 137.102L155.558 121.493H159.216L163.68 133.589L168.317 121.493H171.715ZM190.948 127.08C192.023 127.272 192.935 127.838 193.684 128.779C194.432 129.72 194.807 130.785 194.807 131.976C194.807 132.993 194.538 133.915 194 134.741C193.482 135.547 192.724 136.19 191.725 136.67C190.727 137.131 189.565 137.361 188.24 137.361H180.234V117.345H187.866C189.229 117.345 190.4 117.576 191.38 118.037C192.359 118.497 193.098 119.121 193.597 119.909C194.096 120.677 194.346 121.541 194.346 122.501C194.346 123.653 194.039 124.613 193.424 125.381C192.81 126.149 191.984 126.715 190.948 127.08ZM183.517 125.755H187.578C188.653 125.755 189.488 125.515 190.084 125.035C190.698 124.536 191.005 123.825 191.005 122.904C191.005 122.001 190.698 121.301 190.084 120.801C189.488 120.283 188.653 120.024 187.578 120.024H183.517V125.755ZM187.952 134.683C189.066 134.683 189.94 134.414 190.573 133.877C191.207 133.339 191.524 132.59 191.524 131.63C191.524 130.651 191.188 129.873 190.516 129.297C189.844 128.721 188.951 128.433 187.837 128.433H183.517V134.683H187.952ZM199.325 119.39C198.73 119.39 198.231 119.189 197.827 118.785C197.424 118.382 197.223 117.883 197.223 117.288C197.223 116.693 197.424 116.193 197.827 115.79C198.231 115.387 198.73 115.185 199.325 115.185C199.901 115.185 200.391 115.387 200.794 115.79C201.197 116.193 201.399 116.693 201.399 117.288C201.399 117.883 201.197 118.382 200.794 118.785C200.391 119.189 199.901 119.39 199.325 119.39ZM200.938 121.493V137.361H197.655V121.493H200.938ZM207.812 116.049V137.361H204.528V116.049H207.812ZM214.685 116.049V137.361H211.402V116.049H214.685ZM224.036 137.621C222.788 137.621 221.665 137.4 220.666 136.958C219.687 136.497 218.91 135.883 218.334 135.115C217.758 134.328 217.45 133.454 217.412 132.494H220.81C220.868 133.166 221.185 133.733 221.761 134.193C222.356 134.635 223.095 134.856 223.978 134.856C224.9 134.856 225.61 134.683 226.11 134.337C226.628 133.973 226.887 133.512 226.887 132.955C226.887 132.36 226.599 131.918 226.023 131.63C225.466 131.342 224.574 131.025 223.345 130.68C222.154 130.353 221.185 130.037 220.436 129.729C219.687 129.422 219.034 128.952 218.478 128.318C217.94 127.685 217.671 126.849 217.671 125.813C217.671 124.968 217.921 124.2 218.42 123.509C218.919 122.798 219.63 122.241 220.551 121.838C221.492 121.435 222.567 121.233 223.777 121.233C225.582 121.233 227.031 121.694 228.126 122.616C229.239 123.518 229.834 124.757 229.911 126.331H226.628C226.57 125.621 226.282 125.054 225.764 124.632C225.246 124.209 224.545 123.998 223.662 123.998C222.798 123.998 222.135 124.161 221.674 124.488C221.214 124.814 220.983 125.246 220.983 125.784C220.983 126.206 221.137 126.561 221.444 126.849C221.751 127.137 222.126 127.368 222.567 127.541C223.009 127.694 223.662 127.896 224.526 128.145C225.678 128.453 226.618 128.769 227.348 129.096C228.097 129.403 228.74 129.864 229.278 130.478C229.815 131.093 230.094 131.909 230.113 132.926C230.113 133.829 229.863 134.635 229.364 135.345C228.865 136.056 228.154 136.613 227.233 137.016C226.33 137.419 225.265 137.621 224.036 137.621ZM253.698 123.307C253.698 124.325 253.458 125.285 252.978 126.187C252.498 127.089 251.73 127.829 250.674 128.405C249.618 128.961 248.265 129.24 246.614 129.24H242.985V137.361H239.702V117.345H246.614C248.15 117.345 249.446 117.614 250.502 118.152C251.577 118.67 252.374 119.381 252.892 120.283C253.43 121.185 253.698 122.193 253.698 123.307ZM246.614 126.561C247.862 126.561 248.793 126.283 249.407 125.726C250.022 125.15 250.329 124.344 250.329 123.307C250.329 121.118 249.09 120.024 246.614 120.024H242.985V126.561H246.614ZM255.015 129.355C255.015 127.761 255.342 126.35 255.994 125.121C256.666 123.893 257.569 122.942 258.702 122.27C259.854 121.579 261.121 121.233 262.503 121.233C263.751 121.233 264.836 121.483 265.758 121.982C266.698 122.462 267.447 123.067 268.004 123.797V121.493H271.316V137.361H268.004V135C267.447 135.749 266.689 136.373 265.729 136.872C264.769 137.371 263.674 137.621 262.446 137.621C261.082 137.621 259.834 137.275 258.702 136.584C257.569 135.873 256.666 134.894 255.994 133.646C255.342 132.379 255.015 130.949 255.015 129.355ZM268.004 129.413C268.004 128.318 267.774 127.368 267.313 126.561C266.871 125.755 266.286 125.141 265.556 124.718C264.826 124.296 264.039 124.085 263.194 124.085C262.35 124.085 261.562 124.296 260.833 124.718C260.103 125.121 259.508 125.726 259.047 126.533C258.606 127.32 258.385 128.261 258.385 129.355C258.385 130.449 258.606 131.409 259.047 132.235C259.508 133.061 260.103 133.694 260.833 134.136C261.582 134.558 262.369 134.769 263.194 134.769C264.039 134.769 264.826 134.558 265.556 134.136C266.286 133.713 266.871 133.099 267.313 132.293C267.774 131.467 268.004 130.507 268.004 129.413ZM276.579 119.39C275.984 119.39 275.484 119.189 275.081 118.785C274.678 118.382 274.476 117.883 274.476 117.288C274.476 116.693 274.678 116.193 275.081 115.79C275.484 115.387 275.984 115.185 276.579 115.185C277.155 115.185 277.644 115.387 278.048 115.79C278.451 116.193 278.652 116.693 278.652 117.288C278.652 117.883 278.451 118.382 278.048 118.785C277.644 119.189 277.155 119.39 276.579 119.39ZM278.192 121.493V137.361H274.908V121.493H278.192ZM280.688 129.355C280.688 127.761 281.014 126.35 281.667 125.121C282.339 123.893 283.241 122.942 284.374 122.27C285.526 121.579 286.803 121.233 288.205 121.233C289.241 121.233 290.259 121.464 291.257 121.925C292.275 122.366 293.081 122.961 293.677 123.71V116.049H296.989V137.361H293.677V134.971C293.139 135.739 292.39 136.373 291.43 136.872C290.489 137.371 289.405 137.621 288.176 137.621C286.793 137.621 285.526 137.275 284.374 136.584C283.241 135.873 282.339 134.894 281.667 133.646C281.014 132.379 280.688 130.949 280.688 129.355ZM293.677 129.413C293.677 128.318 293.446 127.368 292.985 126.561C292.544 125.755 291.958 125.141 291.229 124.718C290.499 124.296 289.712 124.085 288.867 124.085C288.022 124.085 287.235 124.296 286.505 124.718C285.776 125.121 285.181 125.726 284.72 126.533C284.278 127.32 284.057 128.261 284.057 129.355C284.057 130.449 284.278 131.409 284.72 132.235C285.181 133.061 285.776 133.694 286.505 134.136C287.254 134.558 288.041 134.769 288.867 134.769C289.712 134.769 290.499 134.558 291.229 134.136C291.958 133.713 292.544 133.099 292.985 132.293C293.446 131.467 293.677 130.507 293.677 129.413Z" fill="#E6E6E6"/>
<path d="M229.042 195.793C229.042 200.88 227.021 205.759 223.424 209.356C219.827 212.953 214.948 214.974 209.861 214.974C204.774 214.974 199.895 212.953 196.298 209.356C192.701 205.759 190.68 200.88 190.68 195.793L209.861 195.793H229.042Z" fill="white"/>
<path d="M229.042 195.793C229.042 200.88 227.021 205.759 223.424 209.356C219.827 212.953 214.948 214.974 209.861 214.974C204.774 214.974 199.895 212.953 196.298 209.356C192.701 205.759 190.68 200.88 190.68 195.793L209.861 195.793H229.042Z" fill="white"/>
</g>
<rect x="1.39062" y="2.16211" width="364.8" height="540.906" rx="28.8" stroke="#131313" stroke-width="2.4"/>
<defs>
<clipPath id="clip0_1610_4130">
<rect x="1.39062" y="2.16211" width="364.8" height="540.906" rx="28.8" fill="white"/>
</clipPath>
</defs>
</svg>
