<svg width="312" height="343" viewBox="0 0 312 343" fill="none" xmlns="http://www.w3.org/2000/svg">
<g clip-path="url(#clip0_1777_3558)">
<rect width="312" height="342.256" rx="24" fill="#ED7D31"/>
<circle cx="161.348" cy="185.317" r="161.317" fill="#FE9549"/>
<circle cx="161.352" cy="185.317" r="111.86" fill="#FEA049"/>
<circle cx="161.355" cy="185.316" r="56.8784" fill="#FEB649"/>
<path d="M-556.528 199.121C-653.888 152.01 -665.145 314.334 -658.603 381.074L-661.5 387.608H692.8C709.186 410.614 741.43 391.867 739.319 295.325C736.68 174.647 722.382 249.555 611.771 169.457C501.159 89.3592 431.233 254.64 343.507 295.325C284.603 322.642 277.805 262.674 236.674 287.462C169.119 328.174 137.795 159.982 44.0913 226.603C-10.8707 275.676 -126.125 220.713 -200.716 199.12C-275.307 177.528 -339.547 191.27 -378.805 226.603C-418.064 261.935 -434.828 258.008 -556.528 199.121Z" fill="#542A29"/>
<rect x="0.03125" y="322.256" width="313.253" height="20" fill="#542A29"/>
<path d="M28.536 102.729V107.625H34.296V109.857H28.536V114.969H35.016V117.201H25.8V100.497H35.016V102.729H28.536ZM40.5219 99.4412V117.201H37.7859V99.4412H40.5219ZM55.6341 110.265C55.6341 110.761 55.6021 111.209 55.5381 111.609H45.4341C45.5141 112.665 45.9061 113.513 46.6101 114.153C47.3141 114.793 48.1781 115.113 49.2021 115.113C50.6741 115.113 51.7141 114.497 52.3221 113.265H55.2741C54.8741 114.481 54.1461 115.481 53.0901 116.265C52.0501 117.033 50.7541 117.417 49.2021 117.417C47.9381 117.417 46.8021 117.137 45.7941 116.577C44.8021 116.001 44.0181 115.201 43.4421 114.177C42.8821 113.137 42.6021 111.937 42.6021 110.577C42.6021 109.217 42.8741 108.025 43.4181 107.001C43.9781 105.961 44.7541 105.161 45.7461 104.601C46.7541 104.041 47.9061 103.761 49.2021 103.761C50.4501 103.761 51.5621 104.033 52.5381 104.577C53.5141 105.121 54.2741 105.889 54.8181 106.881C55.3621 107.857 55.6341 108.985 55.6341 110.265ZM52.7781 109.401C52.7621 108.393 52.4021 107.585 51.6981 106.977C50.9941 106.369 50.1221 106.065 49.0821 106.065C48.1381 106.065 47.3301 106.369 46.6581 106.977C45.9861 107.569 45.5861 108.377 45.4581 109.401H52.7781ZM56.8146 110.577C56.8146 109.217 57.0866 108.025 57.6306 107.001C58.1906 105.961 58.9586 105.161 59.9346 104.601C60.9106 104.041 62.0306 103.761 63.2946 103.761C64.8946 103.761 66.2146 104.145 67.2546 104.913C68.3106 105.665 69.0226 106.745 69.3906 108.153H66.4386C66.1986 107.497 65.8146 106.985 65.2866 106.617C64.7586 106.249 64.0946 106.065 63.2946 106.065C62.1746 106.065 61.2786 106.465 60.6066 107.265C59.9506 108.049 59.6226 109.153 59.6226 110.577C59.6226 112.001 59.9506 113.113 60.6066 113.913C61.2786 114.713 62.1746 115.113 63.2946 115.113C64.8786 115.113 65.9266 114.417 66.4386 113.025H69.3906C69.0066 114.369 68.2866 115.441 67.2306 116.241C66.1746 117.025 64.8626 117.417 63.2946 117.417C62.0306 117.417 60.9106 117.137 59.9346 116.577C58.9586 116.001 58.1906 115.201 57.6306 114.177C57.0866 113.137 56.8146 111.937 56.8146 110.577ZM74.7092 106.209V113.529C74.7092 114.025 74.8212 114.385 75.0452 114.609C75.2852 114.817 75.6852 114.921 76.2452 114.921H77.9252V117.201H75.7652C74.5332 117.201 73.5892 116.913 72.9332 116.337C72.2772 115.761 71.9492 114.825 71.9492 113.529V106.209H70.3892V103.977H71.9492V100.689H74.7092V103.977H77.9252V106.209H74.7092ZM82.5829 105.897C82.9829 105.225 83.5109 104.705 84.1669 104.337C84.8389 103.953 85.6309 103.761 86.5429 103.761V106.593H85.8469C84.7749 106.593 83.9589 106.865 83.3989 107.409C82.8549 107.953 82.5829 108.897 82.5829 110.241V117.201H79.8469V103.977H82.5829V105.897ZM89.8498 102.225C89.3538 102.225 88.9378 102.057 88.6018 101.721C88.2658 101.385 88.0978 100.969 88.0978 100.473C88.0978 99.9772 88.2658 99.5612 88.6018 99.2252C88.9378 98.8892 89.3538 98.7212 89.8498 98.7212C90.3298 98.7212 90.7378 98.8892 91.0738 99.2252C91.4098 99.5612 91.5778 99.9772 91.5778 100.473C91.5778 100.969 91.4098 101.385 91.0738 101.721C90.7378 102.057 90.3298 102.225 89.8498 102.225ZM91.1938 103.977V117.201H88.4578V103.977H91.1938ZM93.2739 110.577C93.2739 109.217 93.5459 108.025 94.0899 107.001C94.6499 105.961 95.4179 105.161 96.3939 104.601C97.3699 104.041 98.4899 103.761 99.7539 103.761C101.354 103.761 102.674 104.145 103.714 104.913C104.77 105.665 105.482 106.745 105.85 108.153H102.898C102.658 107.497 102.274 106.985 101.746 106.617C101.218 106.249 100.554 106.065 99.7539 106.065C98.6339 106.065 97.7379 106.465 97.0659 107.265C96.4099 108.049 96.0819 109.153 96.0819 110.577C96.0819 112.001 96.4099 113.113 97.0659 113.913C97.7379 114.713 98.6339 115.113 99.7539 115.113C101.338 115.113 102.386 114.417 102.898 113.025H105.85C105.466 114.369 104.746 115.441 103.69 116.241C102.634 117.025 101.322 117.417 99.7539 117.417C98.4899 117.417 97.3699 117.137 96.3939 116.577C95.4179 116.001 94.6499 115.201 94.0899 114.177C93.5459 113.137 93.2739 111.937 93.2739 110.577ZM109.369 102.225C108.873 102.225 108.457 102.057 108.121 101.721C107.785 101.385 107.617 100.969 107.617 100.473C107.617 99.9772 107.785 99.5612 108.121 99.2252C108.457 98.8892 108.873 98.7212 109.369 98.7212C109.849 98.7212 110.257 98.8892 110.593 99.2252C110.929 99.5612 111.097 99.9772 111.097 100.473C111.097 100.969 110.929 101.385 110.593 101.721C110.257 102.057 109.849 102.225 109.369 102.225ZM110.713 103.977V117.201H107.977V103.977H110.713ZM116.897 106.209V113.529C116.897 114.025 117.009 114.385 117.233 114.609C117.473 114.817 117.873 114.921 118.433 114.921H120.113V117.201H117.953C116.721 117.201 115.777 116.913 115.121 116.337C114.465 115.761 114.137 114.825 114.137 113.529V106.209H112.577V103.977H114.137V100.689H116.897V103.977H120.113V106.209H116.897ZM133.938 103.977L125.826 123.417H122.994L125.682 116.985L120.474 103.977H123.522L127.242 114.057L131.106 103.977H133.938ZM149.966 108.633C150.862 108.793 151.622 109.265 152.246 110.049C152.87 110.833 153.182 111.721 153.182 112.713C153.182 113.561 152.958 114.329 152.51 115.017C152.078 115.689 151.446 116.225 150.614 116.625C149.782 117.009 148.814 117.201 147.71 117.201H141.038V100.521H147.398C148.534 100.521 149.51 100.713 150.326 101.097C151.142 101.481 151.758 102.001 152.174 102.657C152.59 103.297 152.798 104.017 152.798 104.817C152.798 105.777 152.542 106.577 152.03 107.217C151.518 107.857 150.83 108.329 149.966 108.633ZM143.774 107.529H147.158C148.054 107.529 148.75 107.329 149.246 106.929C149.758 106.513 150.014 105.921 150.014 105.153C150.014 104.401 149.758 103.817 149.246 103.401C148.75 102.969 148.054 102.753 147.158 102.753H143.774V107.529ZM147.47 114.969C148.398 114.969 149.126 114.745 149.654 114.297C150.182 113.849 150.446 113.225 150.446 112.425C150.446 111.609 150.166 110.961 149.606 110.481C149.046 110.001 148.302 109.761 147.374 109.761H143.774V114.969H147.47ZM156.947 102.225C156.451 102.225 156.035 102.057 155.699 101.721C155.363 101.385 155.195 100.969 155.195 100.473C155.195 99.9772 155.363 99.5612 155.699 99.2252C156.035 98.8892 156.451 98.7212 156.947 98.7212C157.427 98.7212 157.835 98.8892 158.171 99.2252C158.507 99.5612 158.675 99.9772 158.675 100.473C158.675 100.969 158.507 101.385 158.171 101.721C157.835 102.057 157.427 102.225 156.947 102.225ZM158.291 103.977V117.201H155.555V103.977H158.291ZM164.019 99.4412V117.201H161.283V99.4412H164.019ZM169.747 99.4412V117.201H167.011V99.4412H169.747ZM177.539 117.417C176.499 117.417 175.563 117.233 174.731 116.865C173.915 116.481 173.267 115.969 172.787 115.329C172.307 114.673 172.051 113.945 172.019 113.145H174.851C174.899 113.705 175.163 114.177 175.643 114.561C176.139 114.929 176.755 115.113 177.491 115.113C178.259 115.113 178.851 114.969 179.267 114.681C179.699 114.377 179.915 113.993 179.915 113.529C179.915 113.033 179.675 112.665 179.195 112.425C178.731 112.185 177.987 111.921 176.963 111.633C175.971 111.361 175.163 111.097 174.539 110.841C173.915 110.585 173.371 110.193 172.907 109.665C172.459 109.137 172.235 108.441 172.235 107.577C172.235 106.873 172.443 106.233 172.859 105.657C173.275 105.065 173.867 104.601 174.635 104.265C175.419 103.929 176.315 103.761 177.323 103.761C178.827 103.761 180.035 104.145 180.947 104.913C181.875 105.665 182.371 106.697 182.435 108.009H179.699C179.651 107.417 179.411 106.945 178.979 106.593C178.547 106.241 177.963 106.065 177.227 106.065C176.507 106.065 175.955 106.201 175.571 106.473C175.187 106.745 174.995 107.105 174.995 107.553C174.995 107.905 175.123 108.201 175.379 108.441C175.635 108.681 175.947 108.873 176.315 109.017C176.683 109.145 177.227 109.313 177.947 109.521C178.907 109.777 179.691 110.041 180.299 110.313C180.923 110.569 181.459 110.953 181.907 111.465C182.355 111.977 182.587 112.657 182.603 113.505C182.603 114.257 182.395 114.929 181.979 115.521C181.563 116.113 180.971 116.577 180.203 116.913C179.451 117.249 178.563 117.417 177.539 117.417ZM202.258 105.489C202.258 106.337 202.058 107.137 201.658 107.889C201.258 108.641 200.618 109.257 199.738 109.737C198.858 110.201 197.73 110.433 196.354 110.433H193.33V117.201H190.594V100.521H196.354C197.634 100.521 198.714 100.745 199.594 101.193C200.49 101.625 201.154 102.217 201.586 102.969C202.034 103.721 202.258 104.561 202.258 105.489ZM196.354 108.201C197.394 108.201 198.17 107.969 198.682 107.505C199.194 107.025 199.45 106.353 199.45 105.489C199.45 103.665 198.418 102.753 196.354 102.753H193.33V108.201H196.354ZM203.355 110.529C203.355 109.201 203.627 108.025 204.171 107.001C204.731 105.977 205.483 105.185 206.427 104.625C207.387 104.049 208.443 103.761 209.595 103.761C210.635 103.761 211.539 103.969 212.307 104.385C213.091 104.785 213.715 105.289 214.179 105.897V103.977H216.939V117.201H214.179V115.233C213.715 115.857 213.083 116.377 212.283 116.793C211.483 117.209 210.571 117.417 209.547 117.417C208.411 117.417 207.371 117.129 206.427 116.553C205.483 115.961 204.731 115.145 204.171 114.105C203.627 113.049 203.355 111.857 203.355 110.529ZM214.179 110.577C214.179 109.665 213.987 108.873 213.603 108.201C213.235 107.529 212.747 107.017 212.139 106.665C211.531 106.313 210.875 106.137 210.171 106.137C209.467 106.137 208.811 106.313 208.203 106.665C207.595 107.001 207.099 107.505 206.715 108.177C206.347 108.833 206.163 109.617 206.163 110.529C206.163 111.441 206.347 112.241 206.715 112.929C207.099 113.617 207.595 114.145 208.203 114.513C208.827 114.865 209.483 115.041 210.171 115.041C210.875 115.041 211.531 114.865 212.139 114.513C212.747 114.161 213.235 113.649 213.603 112.977C213.987 112.289 214.179 111.489 214.179 110.577ZM221.325 102.225C220.829 102.225 220.413 102.057 220.077 101.721C219.741 101.385 219.573 100.969 219.573 100.473C219.573 99.9772 219.741 99.5612 220.077 99.2252C220.413 98.8892 220.829 98.7212 221.325 98.7212C221.805 98.7212 222.213 98.8892 222.549 99.2252C222.885 99.5612 223.053 99.9772 223.053 100.473C223.053 100.969 222.885 101.385 222.549 101.721C222.213 102.057 221.805 102.225 221.325 102.225ZM222.669 103.977V117.201H219.933V103.977H222.669ZM224.749 110.529C224.749 109.201 225.021 108.025 225.565 107.001C226.125 105.977 226.877 105.185 227.821 104.625C228.781 104.049 229.845 103.761 231.013 103.761C231.877 103.761 232.725 103.953 233.557 104.337C234.405 104.705 235.077 105.201 235.573 105.825V99.4412H238.333V117.201H235.573V115.209C235.125 115.849 234.501 116.377 233.701 116.793C232.917 117.209 232.013 117.417 230.989 117.417C229.837 117.417 228.781 117.129 227.821 116.553C226.877 115.961 226.125 115.145 225.565 114.105C225.021 113.049 224.749 111.857 224.749 110.529ZM235.573 110.577C235.573 109.665 235.381 108.873 234.997 108.201C234.629 107.529 234.141 107.017 233.533 106.665C232.925 106.313 232.269 106.137 231.565 106.137C230.861 106.137 230.205 106.313 229.597 106.665C228.989 107.001 228.493 107.505 228.109 108.177C227.741 108.833 227.557 109.617 227.557 110.529C227.557 111.441 227.741 112.241 228.109 112.929C228.493 113.617 228.989 114.145 229.597 114.513C230.221 114.865 230.877 115.041 231.565 115.041C232.269 115.041 232.925 114.865 233.533 114.513C234.141 114.161 234.629 113.649 234.997 112.977C235.381 112.289 235.573 111.489 235.573 110.577Z" fill="#E6E6E6"/>
<rect x="24.9781" y="24.5953" width="214.776" height="55.9606" rx="27.9803" fill="#FEB649" stroke="#C67700" stroke-width="1.19065"/>
<path d="M53.0026 42.6655V38.703H60.9276V66.4785H56.546V42.6655H53.0026ZM83.8495 42.4369H71.0857V50.0189C71.6191 49.3077 72.4065 48.7108 73.4479 48.2282C74.5147 47.7456 75.6451 47.5043 76.8389 47.5043C78.9725 47.5043 80.6998 47.9615 82.0206 48.8759C83.3668 49.7903 84.3194 50.9461 84.8782 52.3431C85.4624 53.7401 85.7545 55.2134 85.7545 56.7628C85.7545 58.6424 85.3862 60.3189 84.6496 61.7921C83.9384 63.2399 82.8588 64.383 81.411 65.2212C79.9886 66.0594 78.2359 66.4785 76.1531 66.4785C73.3844 66.4785 71.1619 65.7927 69.4854 64.4211C67.809 63.0494 66.8057 61.2333 66.4755 58.9726H70.7047C70.9841 60.1665 71.6064 61.119 72.5716 61.8302C73.5368 62.516 74.7434 62.8589 76.1912 62.8589C77.9946 62.8589 79.3409 62.3128 80.2299 61.2206C81.1443 60.1284 81.6015 58.6805 81.6015 56.8771C81.6015 55.0483 81.1443 53.6512 80.2299 52.686C79.3155 51.6954 77.9692 51.2001 76.1912 51.2001C74.9466 51.2001 73.8924 51.5176 73.0288 52.1526C72.1906 52.7622 71.581 53.6004 71.2 54.6673H67.0851V38.6268H83.8495V42.4369ZM89.3235 52.2288C89.3235 47.8345 90.0601 44.4054 91.5333 41.9416C93.032 39.4523 95.5974 38.2077 99.2297 38.2077C102.862 38.2077 105.415 39.4523 106.888 41.9416C108.387 44.4054 109.136 47.8345 109.136 52.2288C109.136 56.6739 108.387 60.1538 106.888 62.6684C105.415 65.1577 102.862 66.4023 99.2297 66.4023C95.5974 66.4023 93.032 65.1577 91.5333 62.6684C90.0601 60.1538 89.3235 56.6739 89.3235 52.2288ZM104.869 52.2288C104.869 50.1714 104.729 48.4314 104.45 47.009C104.196 45.5865 103.662 44.4308 102.849 43.5418C102.036 42.6274 100.83 42.1702 99.2297 42.1702C97.6295 42.1702 96.4229 42.6274 95.6101 43.5418C94.7973 44.4308 94.2512 45.5865 93.9718 47.009C93.7178 48.4314 93.5908 50.1714 93.5908 52.2288C93.5908 54.3624 93.7178 56.1532 93.9718 57.601C94.2258 59.0488 94.7592 60.2173 95.572 61.1063C96.4102 61.9953 97.6295 62.4398 99.2297 62.4398C100.83 62.4398 102.036 61.9953 102.849 61.1063C103.687 60.2173 104.234 59.0488 104.488 57.601C104.742 56.1532 104.869 54.3624 104.869 52.2288ZM118.113 61.2587L113.503 71.7745H110.684L113.389 61.2587H118.113ZM120.385 52.2288C120.385 47.8345 121.121 44.4054 122.594 41.9416C124.093 39.4523 126.659 38.2077 130.291 38.2077C133.923 38.2077 136.476 39.4523 137.949 41.9416C139.448 44.4054 140.197 47.8345 140.197 52.2288C140.197 56.6739 139.448 60.1538 137.949 62.6684C136.476 65.1577 133.923 66.4023 130.291 66.4023C126.659 66.4023 124.093 65.1577 122.594 62.6684C121.121 60.1538 120.385 56.6739 120.385 52.2288ZM135.93 52.2288C135.93 50.1714 135.79 48.4314 135.511 47.009C135.257 45.5865 134.723 44.4308 133.91 43.5418C133.098 42.6274 131.891 42.1702 130.291 42.1702C128.691 42.1702 127.484 42.6274 126.671 43.5418C125.858 44.4308 125.312 45.5865 125.033 47.009C124.779 48.4314 124.652 50.1714 124.652 52.2288C124.652 54.3624 124.779 56.1532 125.033 57.601C125.287 59.0488 125.82 60.2173 126.633 61.1063C127.471 61.9953 128.691 62.4398 130.291 62.4398C131.891 62.4398 133.098 61.9953 133.91 61.1063C134.749 60.2173 135.295 59.0488 135.549 57.601C135.803 56.1532 135.93 54.3624 135.93 52.2288ZM143.84 52.2288C143.84 47.8345 144.577 44.4054 146.05 41.9416C147.549 39.4523 150.114 38.2077 153.747 38.2077C157.379 38.2077 159.932 39.4523 161.405 41.9416C162.904 44.4054 163.653 47.8345 163.653 52.2288C163.653 56.6739 162.904 60.1538 161.405 62.6684C159.932 65.1577 157.379 66.4023 153.747 66.4023C150.114 66.4023 147.549 65.1577 146.05 62.6684C144.577 60.1538 143.84 56.6739 143.84 52.2288ZM159.386 52.2288C159.386 50.1714 159.246 48.4314 158.966 47.009C158.712 45.5865 158.179 44.4308 157.366 43.5418C156.553 42.6274 155.347 42.1702 153.747 42.1702C152.146 42.1702 150.94 42.6274 150.127 43.5418C149.314 44.4308 148.768 45.5865 148.489 47.009C148.235 48.4314 148.108 50.1714 148.108 52.2288C148.108 54.3624 148.235 56.1532 148.489 57.601C148.743 59.0488 149.276 60.2173 150.089 61.1063C150.927 61.9953 152.146 62.4398 153.747 62.4398C155.347 62.4398 156.553 61.9953 157.366 61.1063C158.204 60.2173 158.751 59.0488 159.005 57.601C159.259 56.1532 159.386 54.3624 159.386 52.2288ZM167.296 52.2288C167.296 47.8345 168.033 44.4054 169.506 41.9416C171.005 39.4523 173.57 38.2077 177.202 38.2077C180.835 38.2077 183.388 39.4523 184.861 41.9416C186.359 44.4054 187.109 47.8345 187.109 52.2288C187.109 56.6739 186.359 60.1538 184.861 62.6684C183.388 65.1577 180.835 66.4023 177.202 66.4023C173.57 66.4023 171.005 65.1577 169.506 62.6684C168.033 60.1538 167.296 56.6739 167.296 52.2288ZM182.841 52.2288C182.841 50.1714 182.702 48.4314 182.422 47.009C182.168 45.5865 181.635 44.4308 180.822 43.5418C180.009 42.6274 178.803 42.1702 177.202 42.1702C175.602 42.1702 174.396 42.6274 173.583 43.5418C172.77 44.4308 172.224 45.5865 171.945 47.009C171.691 48.4314 171.564 50.1714 171.564 52.2288C171.564 54.3624 171.691 56.1532 171.945 57.601C172.199 59.0488 172.732 60.2173 173.545 61.1063C174.383 61.9953 175.602 62.4398 177.202 62.4398C178.803 62.4398 180.009 61.9953 180.822 61.1063C181.66 60.2173 182.206 59.0488 182.46 57.601C182.714 56.1532 182.841 54.3624 182.841 52.2288ZM211.784 54.5529H204.087V62.4398H200.049V54.5529H192.352V50.8953H200.049V43.0084H204.087V50.8953H211.784V54.5529Z" fill="#0A0A0A"/>
<rect x="0.03125" y="322.256" width="313.253" height="20" fill="#E6E6E6"/>
<path d="M217.59 166.639C217.59 169.114 216.607 171.488 214.856 173.239C213.106 174.989 210.731 175.973 208.256 175.973C205.78 175.973 203.406 174.989 201.656 173.239C199.905 171.488 198.922 169.114 198.922 166.639L208.256 166.639H217.59Z" fill="white"/>
<path d="M196.644 166.639C195.982 166.639 195.445 166.102 195.445 165.44V165.44C195.445 164.779 195.982 164.242 196.644 164.242L263.051 164.242L263.051 166.639L196.644 166.639Z" fill="black"/>
<path d="M261.852 158.046C261.852 157.384 262.388 156.848 263.05 156.848V156.848C263.712 156.848 264.248 157.384 264.248 158.046V298.86H261.852V158.046Z" fill="black"/>
<path d="M256.211 302.752C256.211 300.602 257.954 298.859 260.104 298.859H265.998C268.148 298.859 269.891 300.602 269.891 302.752V322.255H256.211V302.752Z" fill="black"/>
</g>
<defs>
<clipPath id="clip0_1777_3558">
<rect width="312" height="342.256" rx="24" fill="white"/>
</clipPath>
</defs>
</svg>
