<svg width="30" height="30" viewBox="0 0 30 30" fill="none" xmlns="http://www.w3.org/2000/svg">
<path d="M17.5938 11.7413V15.2213H20.7138C20.9538 15.2213 21.0737 15.4613 21.0737 15.7013L20.5938 17.9813C20.5938 18.1013 20.3538 18.2213 20.2338 18.2213H17.5938V26.9813H13.9938V18.3413H11.9538C11.7138 18.3413 11.5938 18.2213 11.5938 17.9813V15.7013C11.5938 15.4613 11.7138 15.3413 11.9538 15.3413H13.9938V11.3813C13.9938 9.34125 15.5538 7.78125 17.5938 7.78125H20.8338C21.0738 7.78125 21.1938 7.90125 21.1938 8.14125V11.0212C21.1938 11.2612 21.0738 11.3813 20.8338 11.3813H17.9538C17.7138 11.3813 17.5938 11.5013 17.5938 11.7413Z" stroke="#E6E6E6" stroke-width="1.2" stroke-miterlimit="10" stroke-linecap="round"/>
<path d="M18.7914 26.9824H11.5914C5.59141 26.9824 3.19141 24.5824 3.19141 18.5824V11.3824C3.19141 5.38242 5.59141 2.98242 11.5914 2.98242H18.7914C24.7914 2.98242 27.1914 5.38242 27.1914 11.3824V18.5824C27.1914 24.5824 24.7914 26.9824 18.7914 26.9824Z" stroke="#E6E6E6" stroke-width="1.2" stroke-linecap="round" stroke-linejoin="round"/>
</svg>
