<svg width="29" height="30" viewBox="0 0 29 30" fill="none" xmlns="http://www.w3.org/2000/svg">
<path d="M10.9898 26.9824H18.1898C24.1898 26.9824 26.5898 24.5824 26.5898 18.5824V11.3824C26.5898 5.38242 24.1898 2.98242 18.1898 2.98242H10.9898C4.98984 2.98242 2.58984 5.38242 2.58984 11.3824V18.5824C2.58984 24.5824 4.98984 26.9824 10.9898 26.9824Z" stroke="#E6E6E6" stroke-width="1.2" stroke-linecap="round" stroke-linejoin="round"/>
<path d="M14.5906 19.1812C16.9102 19.1812 18.7906 17.3008 18.7906 14.9812C18.7906 12.6617 16.9102 10.7812 14.5906 10.7812C12.271 10.7812 10.3906 12.6617 10.3906 14.9812C10.3906 17.3008 12.271 19.1812 14.5906 19.1812Z" stroke="#E6E6E6" stroke-width="1.2" stroke-linecap="round" stroke-linejoin="round"/>
<path d="M21.3532 8.98281H21.3671" stroke="#E6E6E6" stroke-width="1.6" stroke-linecap="round" stroke-linejoin="round"/>
</svg>
