<svg width="368" height="544" viewBox="0 0 368 544" fill="none" xmlns="http://www.w3.org/2000/svg">
<g clip-path="url(#clip0_1610_4129)">
<rect x="1.58984" y="1.43164" width="364.8" height="540.906" rx="28.8" fill="#E6E6E6"/>
<path d="M-317.695 326.195C-432.736 270.53 -446.037 462.333 -438.308 541.192L-441.73 548.913H1158.51C1177.88 576.097 1215.98 553.946 1213.48 439.871C1210.36 297.277 1193.47 385.789 1062.77 291.145C932.072 196.501 849.446 391.798 745.789 439.871C642.131 487.944 568.273 381.862 545.079 309.961C521.885 238.059 456.942 300.683 391.999 358.668C327.055 416.653 190.871 351.709 102.734 326.195C14.5964 300.682 -61.3091 316.919 -107.697 358.668C-154.085 400.417 -173.894 395.778 -317.695 326.195Z" fill="#ED7D31"/>
<rect x="1.58984" y="514.85" width="364.8" height="27.4875" fill="#171717"/>
<rect x="138.469" y="344.785" width="318.81" height="124.841" rx="10.5337" fill="#FEB649"/>
<path d="M138.434 352.885V339.488L457.283 341.903V363.867L138.434 352.885Z" fill="#542A29"/>
<rect x="127.676" y="328.543" width="340.406" height="16.2415" rx="4.51445" fill="#FEB649"/>
<path d="M158.996 252.957H207.891V267.946C207.891 273.764 203.175 278.48 197.357 278.48H169.53C163.712 278.48 158.996 273.764 158.996 267.946V252.957Z" fill="#542A29"/>
<rect x="157.656" y="251.109" width="51.5635" height="1.84575" fill="#542A29"/>
<path d="M172.483 227.144C173.459 227.505 175.475 229.31 175.733 233.644C176.056 239.061 170.964 238.411 170.855 242.853M190.031 233.644C187.069 231.729 182.034 225.062 185.588 213.707C189.142 202.351 186.347 196.551 184.505 195.07M199.458 245.452C196.929 243.935 192.631 240.078 195.665 236.784C199.458 232.667 201.841 230.825 199.458 225.407" stroke="#CDCDCD" stroke-width="0.8"/>
<path d="M189.525 238.787C189.202 244.204 191.087 243.463 191.195 247.905M176.599 240.596C179.561 238.681 182.862 236.522 179.308 225.167C175.754 213.811 179.328 211.071 181.17 209.59M165.222 249.264C167.75 247.747 168.876 244.475 167.607 240.596C165.865 235.276 162.838 234.636 165.222 229.219" stroke="#CDCDCD" stroke-width="0.8"/>
<rect x="161.207" y="278.479" width="44.4627" height="1.84575" rx="0.922877" fill="#FEB649"/>
<rect x="168.75" y="280.324" width="29.3675" height="5.60192" fill="#FC8637"/>
<path d="M164.262 288.935C164.262 287.273 165.609 285.926 167.271 285.926H199.601C201.264 285.926 202.611 287.273 202.611 288.935V300.592H164.262V288.935Z" fill="#FEB649"/>
<rect x="164.262" y="314.807" width="38.3493" height="14.5063" fill="#FEB649"/>
<rect x="164.262" y="300.594" width="38.3493" height="14.2135" fill="#542A29"/>
<rect x="212.648" y="291.15" width="22.4194" height="6.46014" rx="1.50482" fill="#ED7D31"/>
<path d="M207.188 303.629C207.188 300.304 209.882 297.609 213.207 297.609H234.521C237.845 297.609 240.54 300.304 240.54 303.629V328.5H207.188V303.629Z" fill="#542A29"/>
<rect x="214.25" y="290.41" width="19.2217" height="0.740653" rx="0.370326" fill="#ED7D31"/>
<circle cx="222.639" cy="448.624" r="63.4257" stroke="#E6E6E6" stroke-width="9.02891"/>
<circle cx="376.803" cy="448.624" r="63.4257" stroke="#E6E6E6" stroke-width="9.02891"/>
<circle cx="222.639" cy="448.624" r="64.9305" stroke="black" stroke-width="6.01927"/>
<circle cx="376.803" cy="448.624" r="64.9305" stroke="black" stroke-width="6.01927"/>
<circle cx="222.637" cy="448.622" r="8.10603" fill="black"/>
<path d="M376.81 448.623L398.138 389.297M376.81 448.623L424.237 404.104M376.81 448.623L439.781 437.219M376.81 448.623L439.781 468.983M376.81 448.623L413.559 501.694M376.81 448.623L379.903 513.994M376.81 448.623L348.274 505.478M376.81 448.623L323.816 484.798M376.81 448.623L312.194 446.409M376.81 448.623L321.921 416.4M376.81 448.623L339.223 396.125M376.81 448.623C377.447 446.852 372.112 405.227 369.365 384.636" stroke="black" stroke-width="1.50482"/>
<path d="M223.193 447.883L244.521 388.556M223.193 447.883L270.62 403.363M223.193 447.883L286.164 436.479M223.193 447.883L286.164 468.243M223.193 447.883L259.942 500.953M223.193 447.883L226.286 513.253M223.193 447.883L194.657 504.738M223.193 447.883L170.199 484.058M223.193 447.883L158.577 445.669M223.193 447.883L168.304 415.66M223.193 447.883L185.605 395.385M223.193 447.883C223.83 446.111 218.495 404.487 215.747 383.896" stroke="black" stroke-width="1.50482"/>
<path d="M376.88 448.678L403.752 391.649M376.88 448.678L428.325 408.87M376.88 448.678L440.65 443.314M376.88 448.678L437.63 474.934M376.88 448.678L408.416 505.003M376.88 448.678L373.743 514.047M376.88 448.678L343.067 502.563M376.88 448.678L320.686 479.651M376.88 448.678L312.767 440.331M376.88 448.678L325.303 411.383M376.88 448.678L344.454 392.845M376.88 448.678C377.682 446.976 376.329 405.033 375.552 384.274" stroke="black" stroke-width="1.50482"/>
<path d="M223.263 447.938L250.135 390.909M223.263 447.938L274.708 408.13M223.263 447.938L287.033 442.574M223.263 447.938L284.013 474.194M223.263 447.938L254.799 504.262M223.263 447.938L220.126 513.307M223.263 447.938L189.45 501.823M223.263 447.938L167.069 478.911M223.263 447.938L159.15 439.591M223.263 447.938L171.686 410.643M223.263 447.938L190.837 392.105M223.263 447.938C224.065 446.236 222.712 404.292 221.935 383.534" stroke="black" stroke-width="1.50482"/>
<path d="M258.171 320.895C259.179 320.112 259.034 319.006 258.836 318.551C260.147 317.048 265.329 317.01 266.008 318.341C265.763 319.425 266.638 320.265 268.003 321.77C269.094 322.973 269.601 325.537 269.717 326.668C269.332 327.543 267.443 327.963 263.314 328.418C260.011 328.782 257.203 328.266 256.211 327.963V325.794C256.141 323.134 256.911 321.875 258.171 320.895Z" fill="#ED7D31"/>
<path d="M274.37 320.895C275.378 320.112 275.234 319.006 275.036 318.551C276.346 317.048 281.528 317.01 282.207 318.341C281.963 319.425 282.837 320.265 284.202 321.77C285.294 322.973 285.8 325.537 285.916 326.668C285.532 327.543 283.642 327.963 279.513 328.418C276.21 328.782 273.402 328.266 272.411 327.963V325.794C272.341 323.134 273.11 321.875 274.37 320.895Z" fill="#ED7D31"/>
<path d="M300.157 320.895C299.149 320.112 299.294 319.006 299.492 318.551C298.181 317.048 292.999 317.01 292.32 318.341C292.565 319.425 291.69 320.265 290.325 321.77C289.234 322.973 288.728 325.537 288.611 326.668C288.996 327.543 290.885 327.963 295.014 328.418C298.317 328.782 301.125 328.266 302.117 327.963V325.794C302.187 323.134 301.417 321.875 300.157 320.895Z" fill="#ED7D31"/>
<path d="M306.773 320.895C307.78 320.112 307.636 319.006 307.438 318.551C308.748 317.048 313.93 317.01 314.61 318.341C314.365 319.425 315.24 320.265 316.604 321.77C317.696 322.973 318.202 325.537 318.319 326.668C317.934 327.543 316.044 327.963 311.916 328.418C308.612 328.782 305.804 328.266 304.813 327.963V325.794C304.743 323.134 305.513 321.875 306.773 320.895Z" fill="#ED7D31"/>
<path d="M299.02 310.553C300.087 309.851 300.03 308.737 299.869 308.268C301.294 306.873 306.463 307.244 307.035 308.624C306.705 309.686 307.511 310.593 308.753 312.2C309.746 313.486 310.048 316.082 310.075 317.219C309.623 318.06 307.706 318.33 303.554 318.458C300.233 318.56 297.474 317.825 296.51 317.444L296.681 315.281C296.821 312.625 297.687 311.43 299.02 310.553Z" fill="#ED7D31"/>
<path d="M291.169 300.608C292.235 299.906 292.179 298.792 292.017 298.323C293.442 296.928 298.611 297.299 299.183 298.679C298.854 299.741 299.659 300.647 300.901 302.255C301.894 303.541 302.197 306.136 302.224 307.273C301.771 308.115 299.854 308.385 295.703 308.513C292.381 308.615 289.622 307.879 288.658 307.499L288.829 305.336C288.969 302.68 289.836 301.485 291.169 300.608Z" fill="#ED7D31"/>
<path d="M274.22 300.608C275.286 299.906 275.23 298.792 275.068 298.323C276.493 296.928 281.662 297.299 282.234 298.679C281.904 299.741 282.71 300.647 283.952 302.255C284.945 303.541 285.248 306.136 285.275 307.273C284.822 308.115 282.905 308.385 278.753 308.513C275.432 308.615 272.673 307.879 271.709 307.499L271.88 305.336C272.02 302.68 272.887 301.485 274.22 300.608Z" fill="#ED7D31"/>
<path d="M282.101 290.653C283.176 289.966 283.135 288.851 282.979 288.38C284.422 287.003 289.586 287.443 290.14 288.831C289.796 289.888 290.59 290.805 291.81 292.429C292.786 293.728 293.055 296.327 293.066 297.465C292.603 298.3 290.683 298.544 286.529 298.617C283.207 298.675 280.458 297.904 279.499 297.51L279.699 295.35C279.874 292.696 280.756 291.512 282.101 290.653Z" fill="#ED7D31"/>
<path d="M283.032 310.553C284.099 309.851 284.042 308.737 283.88 308.268C285.305 306.873 290.474 307.244 291.047 308.624C290.717 309.686 291.523 310.593 292.764 312.2C293.758 313.486 294.06 316.082 294.087 317.219C293.634 318.06 291.718 318.33 287.566 318.458C284.244 318.56 281.485 317.825 280.521 317.444L280.692 315.281C280.832 312.625 281.699 311.43 283.032 310.553Z" fill="#ED7D31"/>
<path d="M267.044 310.553C268.11 309.851 268.054 308.737 267.892 308.268C269.317 306.873 274.486 307.244 275.058 308.624C274.729 309.686 275.534 310.593 276.776 312.2C277.769 313.486 278.072 316.082 278.099 317.219C277.646 318.06 275.729 318.33 271.578 318.458C268.256 318.56 265.497 317.825 264.533 317.444L264.704 315.281C264.844 312.625 265.711 311.43 267.044 310.553Z" fill="#ED7D31"/>
<path d="M376.809 309.022L376.809 328.545L333.579 328.545C332.288 325.977 329.599 319.336 329.165 313.32C328.731 307.305 326.354 303.298 325.22 302.047L326.604 299.141C331.334 301.462 333.71 308.469 334.47 312.421C334.569 312.937 335.014 313.32 335.539 313.32C336.125 313.32 336.6 312.846 336.6 312.26L336.6 308.447C336.6 307.931 336.849 307.447 337.268 307.147L343.969 302.346C344.241 302.151 344.567 302.047 344.901 302.047L367.81 302.047C368.148 302.047 368.477 302.154 368.75 302.352L376.149 307.728C376.563 308.029 376.809 308.51 376.809 309.022Z" fill="#ED7D31"/>
<rect width="24.1006" height="5.43145" rx="1.50482" transform="matrix(-1 -8.74228e-08 -8.74228e-08 1 368.445 296.617)" fill="#FEB649"/>
<circle cx="1.95156" cy="1.95156" r="1.95156" transform="matrix(-1 -8.74228e-08 -8.74228e-08 1 358.598 292.715)" fill="#ED7D31"/>
<mask id="path-41-inside-1_1610_4129" fill="white">
<path d="M136.121 312.631H459.657V328.543H136.121V312.631Z"/>
</mask>
<path d="M136.121 312.631V311.126H134.616V312.631H136.121ZM459.657 312.631H461.162V311.126H459.657V312.631ZM136.121 314.136H459.657V311.126H136.121V314.136ZM458.152 312.631V328.543H461.162V312.631H458.152ZM137.626 328.543V312.631H134.616V328.543H137.626Z" fill="black" mask="url(#path-41-inside-1_1610_4129)"/>
<rect x="40.5922" y="40.432" width="208.238" height="56.4" rx="28.2" fill="#D9D9D9" stroke="#C6C6C6" stroke-width="1.2"/>
<path d="M86.461 57.9051L75.7858 82.5195H71.3698L82.1602 58.3659H67.9522V54.6411H86.461V57.9051ZM107.296 58.2891H94.4317V65.9307C94.9693 65.2139 95.7629 64.6123 96.8125 64.1259C97.8877 63.6395 99.0269 63.3963 100.23 63.3963C102.381 63.3963 104.121 63.8571 105.453 64.7787C106.809 65.7003 107.769 66.8651 108.333 68.2731C108.921 69.6811 109.216 71.1659 109.216 72.7275C109.216 74.6219 108.845 76.3115 108.102 77.7963C107.385 79.2555 106.297 80.4075 104.838 81.2523C103.405 82.0971 101.638 82.5195 99.5389 82.5195C96.7485 82.5195 94.5085 81.8283 92.8189 80.4459C91.1293 79.0635 90.1181 77.2331 89.7853 74.9547H94.0477C94.3293 76.1579 94.9565 77.1179 95.9293 77.8347C96.9021 78.5259 98.1181 78.8715 99.5773 78.8715C101.395 78.8715 102.752 78.3211 103.648 77.2203C104.569 76.1195 105.03 74.6603 105.03 72.8427C105.03 70.9995 104.569 69.5915 103.648 68.6187C102.726 67.6203 101.369 67.1211 99.5773 67.1211C98.3229 67.1211 97.2605 67.4411 96.3901 68.0811C95.5453 68.6955 94.9309 69.5403 94.5469 70.6155H90.3997V54.4491H107.296V58.2891ZM118.189 77.2587L113.542 87.8571H110.701L113.427 77.2587H118.189ZM120.478 68.1579C120.478 63.7291 121.22 60.2731 122.705 57.7899C124.215 55.2811 126.801 54.0267 130.462 54.0267C134.123 54.0267 136.695 55.2811 138.18 57.7899C139.691 60.2731 140.446 63.7291 140.446 68.1579C140.446 72.6379 139.691 76.1451 138.18 78.6795C136.695 81.1883 134.123 82.4427 130.462 82.4427C126.801 82.4427 124.215 81.1883 122.705 78.6795C121.22 76.1451 120.478 72.6379 120.478 68.1579ZM136.145 68.1579C136.145 66.0843 136.004 64.3307 135.723 62.8971C135.467 61.4635 134.929 60.2987 134.11 59.4027C133.291 58.4811 132.075 58.0203 130.462 58.0203C128.849 58.0203 127.633 58.4811 126.814 59.4027C125.995 60.2987 125.444 61.4635 125.163 62.8971C124.907 64.3307 124.779 66.0843 124.779 68.1579C124.779 70.3083 124.907 72.1131 125.163 73.5723C125.419 75.0315 125.956 76.2091 126.775 77.1051C127.62 78.0011 128.849 78.4491 130.462 78.4491C132.075 78.4491 133.291 78.0011 134.11 77.1051C134.955 76.2091 135.505 75.0315 135.761 73.5723C136.017 72.1131 136.145 70.3083 136.145 68.1579ZM144.118 68.1579C144.118 63.7291 144.86 60.2731 146.345 57.7899C147.855 55.2811 150.441 54.0267 154.102 54.0267C157.763 54.0267 160.335 55.2811 161.82 57.7899C163.331 60.2731 164.086 63.7291 164.086 68.1579C164.086 72.6379 163.331 76.1451 161.82 78.6795C160.335 81.1883 157.763 82.4427 154.102 82.4427C150.441 82.4427 147.855 81.1883 146.345 78.6795C144.86 76.1451 144.118 72.6379 144.118 68.1579ZM159.785 68.1579C159.785 66.0843 159.644 64.3307 159.363 62.8971C159.107 61.4635 158.569 60.2987 157.75 59.4027C156.931 58.4811 155.715 58.0203 154.102 58.0203C152.489 58.0203 151.273 58.4811 150.454 59.4027C149.635 60.2987 149.084 61.4635 148.803 62.8971C148.547 64.3307 148.419 66.0843 148.419 68.1579C148.419 70.3083 148.547 72.1131 148.803 73.5723C149.059 75.0315 149.596 76.2091 150.415 77.1051C151.26 78.0011 152.489 78.4491 154.102 78.4491C155.715 78.4491 156.931 78.0011 157.75 77.1051C158.595 76.2091 159.145 75.0315 159.401 73.5723C159.657 72.1131 159.785 70.3083 159.785 68.1579ZM167.758 68.1579C167.758 63.7291 168.5 60.2731 169.985 57.7899C171.495 55.2811 174.081 54.0267 177.742 54.0267C181.403 54.0267 183.975 55.2811 185.46 57.7899C186.971 60.2731 187.726 63.7291 187.726 68.1579C187.726 72.6379 186.971 76.1451 185.46 78.6795C183.975 81.1883 181.403 82.4427 177.742 82.4427C174.081 82.4427 171.495 81.1883 169.985 78.6795C168.5 76.1451 167.758 72.6379 167.758 68.1579ZM183.425 68.1579C183.425 66.0843 183.284 64.3307 183.003 62.8971C182.747 61.4635 182.209 60.2987 181.39 59.4027C180.571 58.4811 179.355 58.0203 177.742 58.0203C176.129 58.0203 174.913 58.4811 174.094 59.4027C173.275 60.2987 172.724 61.4635 172.443 62.8971C172.187 64.3307 172.059 66.0843 172.059 68.1579C172.059 70.3083 172.187 72.1131 172.443 73.5723C172.699 75.0315 173.236 76.2091 174.055 77.1051C174.9 78.0011 176.129 78.4491 177.742 78.4491C179.355 78.4491 180.571 78.0011 181.39 77.1051C182.235 76.2091 182.785 75.0315 183.041 73.5723C183.297 72.1131 183.425 70.3083 183.425 68.1579ZM221.61 70.5003H213.853V78.4491H209.782V70.5003H202.026V66.8139H209.782V58.8651H213.853V66.8139H221.61V70.5003Z" fill="#0A0A0A"/>
<path d="M53.1787 136.631L45.4315 127.674V136.631H42.1483V116.615H45.4315V125.744L53.2075 116.615H57.3259L48.6283 126.637L57.4699 136.631H53.1787ZM74.0245 120.762V136.631H70.7413V134.759C70.2229 135.412 69.5413 135.93 68.6965 136.314C67.8709 136.679 66.9877 136.861 66.0469 136.861C64.7989 136.861 63.6757 136.602 62.6773 136.084C61.6981 135.565 60.9205 134.797 60.3445 133.78C59.7877 132.762 59.5093 131.533 59.5093 130.093V120.762H62.7637V129.604C62.7637 131.024 63.1189 132.119 63.8293 132.887C64.5397 133.636 65.5093 134.01 66.7381 134.01C67.9669 134.01 68.9365 133.636 69.6469 132.887C70.3765 132.119 70.7413 131.024 70.7413 129.604V120.762H74.0245ZM80.9196 115.319V136.631H77.6364V115.319H80.9196ZM92.7182 120.503C93.9278 120.503 95.003 120.762 95.9438 121.28C96.9038 121.799 97.6526 122.567 98.1902 123.584C98.747 124.602 99.0254 125.831 99.0254 127.271V136.631H95.771V127.76C95.771 126.34 95.4158 125.255 94.7054 124.506C93.995 123.738 93.0254 123.354 91.7966 123.354C90.5678 123.354 89.5886 123.738 88.859 124.506C88.1486 125.255 87.7934 126.34 87.7934 127.76V136.631H84.5102V115.319H87.7934V122.605C88.3502 121.933 89.051 121.415 89.8958 121.05C90.7598 120.685 91.7006 120.503 92.7182 120.503ZM101.399 128.624C101.399 127.031 101.725 125.62 102.378 124.391C103.05 123.162 103.952 122.212 105.085 121.54C106.237 120.848 107.504 120.503 108.887 120.503C110.135 120.503 111.22 120.752 112.141 121.252C113.082 121.732 113.831 122.336 114.388 123.066V120.762H117.7V136.631H114.388V134.269C113.831 135.018 113.072 135.642 112.112 136.141C111.152 136.64 110.058 136.89 108.829 136.89C107.466 136.89 106.218 136.544 105.085 135.853C103.952 135.143 103.05 134.164 102.378 132.916C101.725 131.648 101.399 130.218 101.399 128.624ZM114.388 128.682C114.388 127.588 114.157 126.637 113.696 125.831C113.255 125.024 112.669 124.41 111.94 123.988C111.21 123.565 110.423 123.354 109.578 123.354C108.733 123.354 107.946 123.565 107.216 123.988C106.487 124.391 105.892 124.996 105.431 125.802C104.989 126.589 104.768 127.53 104.768 128.624C104.768 129.719 104.989 130.679 105.431 131.504C105.892 132.33 106.487 132.964 107.216 133.405C107.965 133.828 108.752 134.039 109.578 134.039C110.423 134.039 111.21 133.828 111.94 133.405C112.669 132.983 113.255 132.368 113.696 131.562C114.157 130.736 114.388 129.776 114.388 128.682ZM120.198 128.624C120.198 127.031 120.524 125.62 121.177 124.391C121.849 123.162 122.751 122.212 123.884 121.54C125.036 120.848 126.313 120.503 127.714 120.503C128.751 120.503 129.769 120.733 130.767 121.194C131.785 121.636 132.591 122.231 133.186 122.98V115.319H136.498V136.631H133.186V134.24C132.649 135.008 131.9 135.642 130.94 136.141C129.999 136.64 128.914 136.89 127.686 136.89C126.303 136.89 125.036 136.544 123.884 135.853C122.751 135.143 121.849 134.164 121.177 132.916C120.524 131.648 120.198 130.218 120.198 128.624ZM133.186 128.682C133.186 127.588 132.956 126.637 132.495 125.831C132.054 125.024 131.468 124.41 130.738 123.988C130.009 123.565 129.222 123.354 128.377 123.354C127.532 123.354 126.745 123.565 126.015 123.988C125.286 124.391 124.69 124.996 124.23 125.802C123.788 126.589 123.567 127.53 123.567 128.624C123.567 129.719 123.788 130.679 124.23 131.504C124.69 132.33 125.286 132.964 126.015 133.405C126.764 133.828 127.551 134.039 128.377 134.039C129.222 134.039 130.009 133.828 130.738 133.405C131.468 132.983 132.054 132.368 132.495 131.562C132.956 130.736 133.186 129.776 133.186 128.682ZM145.851 136.89C144.603 136.89 143.48 136.669 142.481 136.228C141.502 135.767 140.724 135.152 140.148 134.384C139.572 133.597 139.265 132.724 139.227 131.764H142.625C142.683 132.436 143 133.002 143.576 133.463C144.171 133.904 144.91 134.125 145.793 134.125C146.715 134.125 147.425 133.952 147.924 133.607C148.443 133.242 148.702 132.781 148.702 132.224C148.702 131.629 148.414 131.188 147.838 130.9C147.281 130.612 146.388 130.295 145.16 129.949C143.969 129.623 143 129.306 142.251 128.999C141.502 128.692 140.849 128.221 140.292 127.588C139.755 126.954 139.486 126.119 139.486 125.082C139.486 124.237 139.736 123.469 140.235 122.778C140.734 122.068 141.444 121.511 142.366 121.108C143.307 120.704 144.382 120.503 145.592 120.503C147.396 120.503 148.846 120.964 149.94 121.885C151.054 122.788 151.649 124.026 151.726 125.6H148.443C148.385 124.89 148.097 124.324 147.579 123.901C147.06 123.479 146.36 123.268 145.476 123.268C144.612 123.268 143.95 123.431 143.489 123.757C143.028 124.084 142.798 124.516 142.798 125.053C142.798 125.476 142.952 125.831 143.259 126.119C143.566 126.407 143.94 126.637 144.382 126.81C144.824 126.964 145.476 127.165 146.34 127.415C147.492 127.722 148.433 128.039 149.163 128.365C149.912 128.672 150.555 129.133 151.092 129.748C151.63 130.362 151.908 131.178 151.928 132.196C151.928 133.098 151.678 133.904 151.179 134.615C150.68 135.325 149.969 135.882 149.048 136.285C148.145 136.688 147.08 136.89 145.851 136.89ZM164.8 119.264V125.14H171.712V127.818H164.8V133.952H172.576V136.631H161.516V116.586H172.576V119.264H164.8ZM195.109 120.503C196.357 120.503 197.471 120.762 198.45 121.28C199.448 121.799 200.226 122.567 200.783 123.584C201.359 124.602 201.647 125.831 201.647 127.271V136.631H198.392V127.76C198.392 126.34 198.037 125.255 197.327 124.506C196.616 123.738 195.647 123.354 194.418 123.354C193.189 123.354 192.21 123.738 191.48 124.506C190.77 125.255 190.415 126.34 190.415 127.76V136.631H187.16V127.76C187.16 126.34 186.805 125.255 186.095 124.506C185.384 123.738 184.415 123.354 183.186 123.354C181.957 123.354 180.978 123.738 180.248 124.506C179.538 125.255 179.183 126.34 179.183 127.76V136.631H175.9V120.762H179.183V122.576C179.72 121.924 180.402 121.415 181.228 121.05C182.053 120.685 182.936 120.503 183.877 120.503C185.144 120.503 186.277 120.772 187.276 121.309C188.274 121.847 189.042 122.624 189.58 123.642C190.06 122.682 190.808 121.924 191.826 121.367C192.844 120.791 193.938 120.503 195.109 120.503ZM208.388 123.095C208.945 122.365 209.703 121.751 210.663 121.252C211.623 120.752 212.708 120.503 213.917 120.503C215.3 120.503 216.557 120.848 217.69 121.54C218.842 122.212 219.745 123.162 220.397 124.391C221.05 125.62 221.377 127.031 221.377 128.624C221.377 130.218 221.05 131.648 220.397 132.916C219.745 134.164 218.842 135.143 217.69 135.853C216.557 136.544 215.3 136.89 213.917 136.89C212.708 136.89 211.633 136.65 210.692 136.17C209.751 135.671 208.983 135.056 208.388 134.327V144.176H205.105V120.762H208.388V123.095ZM218.036 128.624C218.036 127.53 217.805 126.589 217.345 125.802C216.903 124.996 216.308 124.391 215.559 123.988C214.829 123.565 214.042 123.354 213.197 123.354C212.372 123.354 211.585 123.565 210.836 123.988C210.106 124.41 209.511 125.024 209.05 125.831C208.609 126.637 208.388 127.588 208.388 128.682C208.388 129.776 208.609 130.736 209.05 131.562C209.511 132.368 210.106 132.983 210.836 133.405C211.585 133.828 212.372 134.039 213.197 134.039C214.042 134.039 214.829 133.828 215.559 133.405C216.308 132.964 216.903 132.33 217.345 131.504C217.805 130.679 218.036 129.719 218.036 128.624ZM227.734 123.44V132.224C227.734 132.82 227.868 133.252 228.137 133.52C228.425 133.77 228.905 133.895 229.577 133.895H231.593V136.631H229.001C227.522 136.631 226.39 136.285 225.602 135.594C224.815 134.903 224.422 133.78 224.422 132.224V123.44H222.55V120.762H224.422V116.816H227.734V120.762H231.593V123.44H227.734ZM235.569 118.66C234.974 118.66 234.475 118.458 234.072 118.055C233.669 117.652 233.467 117.152 233.467 116.557C233.467 115.962 233.669 115.463 234.072 115.06C234.475 114.656 234.974 114.455 235.569 114.455C236.145 114.455 236.635 114.656 237.038 115.06C237.441 115.463 237.643 115.962 237.643 116.557C237.643 117.152 237.441 117.652 237.038 118.055C236.635 118.458 236.145 118.66 235.569 118.66ZM237.182 120.762V136.631H233.899V120.762H237.182ZM255.317 128.308C255.317 128.903 255.278 129.44 255.201 129.92H243.077C243.173 131.188 243.643 132.205 244.488 132.973C245.333 133.741 246.369 134.125 247.598 134.125C249.365 134.125 250.613 133.386 251.342 131.908H254.885C254.405 133.367 253.531 134.567 252.264 135.508C251.016 136.429 249.461 136.89 247.598 136.89C246.081 136.89 244.718 136.554 243.509 135.882C242.318 135.191 241.377 134.231 240.686 133.002C240.014 131.754 239.678 130.314 239.678 128.682C239.678 127.05 240.005 125.62 240.657 124.391C241.329 123.143 242.261 122.183 243.451 121.511C244.661 120.839 246.043 120.503 247.598 120.503C249.096 120.503 250.43 120.829 251.601 121.482C252.773 122.135 253.685 123.056 254.337 124.247C254.99 125.418 255.317 126.772 255.317 128.308ZM251.889 127.271C251.87 126.061 251.438 125.092 250.593 124.362C249.749 123.632 248.702 123.268 247.454 123.268C246.321 123.268 245.352 123.632 244.545 124.362C243.739 125.072 243.259 126.042 243.105 127.271H251.889ZM256.733 128.624C256.733 127.031 257.06 125.62 257.712 124.391C258.384 123.162 259.287 122.212 260.42 121.54C261.572 120.848 262.848 120.503 264.25 120.503C265.287 120.503 266.304 120.733 267.303 121.194C268.32 121.636 269.127 122.231 269.722 122.98V115.319H273.034V136.631H269.722V134.24C269.184 135.008 268.436 135.642 267.476 136.141C266.535 136.64 265.45 136.89 264.221 136.89C262.839 136.89 261.572 136.544 260.42 135.853C259.287 135.143 258.384 134.164 257.712 132.916C257.06 131.648 256.733 130.218 256.733 128.624ZM269.722 128.682C269.722 127.588 269.492 126.637 269.031 125.831C268.589 125.024 268.004 124.41 267.274 123.988C266.544 123.565 265.757 123.354 264.912 123.354C264.068 123.354 263.28 123.565 262.551 123.988C261.821 124.391 261.226 124.996 260.765 125.802C260.324 126.589 260.103 127.53 260.103 128.624C260.103 129.719 260.324 130.679 260.765 131.504C261.226 132.33 261.821 132.964 262.551 133.405C263.3 133.828 264.087 134.039 264.912 134.039C265.757 134.039 266.544 133.828 267.274 133.405C268.004 132.983 268.589 132.368 269.031 131.562C269.492 130.736 269.722 129.776 269.722 128.682Z" fill="#0A0A0A"/>
</g>
<rect x="1.58984" y="1.43164" width="364.8" height="540.906" rx="28.8" stroke="#131313" stroke-width="2.4"/>
<defs>
<clipPath id="clip0_1610_4129">
<rect x="1.58984" y="1.43164" width="364.8" height="540.906" rx="28.8" fill="white"/>
</clipPath>
</defs>
</svg>
