<svg width="312" height="343" viewBox="0 0 312 343" fill="none" xmlns="http://www.w3.org/2000/svg">
<g clip-path="url(#clip0_1777_3502)">
<rect width="312" height="342.256" rx="24" fill="#E6E6E6"/>
<path d="M-245.528 199.121C-342.888 152.01 -354.145 314.334 -347.603 381.074L-350.5 387.608H1003.8C1020.19 410.614 1052.43 391.867 1050.32 295.325C1047.68 174.647 1033.38 249.555 922.771 169.457C812.159 89.3592 742.233 254.64 654.507 295.325C566.78 336.009 504.274 246.232 484.644 185.381C465.015 124.53 410.053 177.529 355.091 226.603C300.129 275.676 184.875 220.713 110.284 199.12C35.6929 177.528 -28.5465 191.27 -67.8051 226.603C-107.064 261.935 -123.828 258.008 -245.528 199.121Z" fill="#ED7D31"/>
<path d="M34.92 117.42L28.032 109.788V117.42H25.848V100.692H28.032V108.444L34.944 100.692H37.704L30.12 109.068L37.776 117.42H34.92ZM51.2792 104.268V117.42H49.0952V115.476C48.6792 116.148 48.0952 116.676 47.3432 117.06C46.6072 117.428 45.7912 117.612 44.8952 117.612C43.8712 117.612 42.9512 117.404 42.1352 116.988C41.3192 116.556 40.6712 115.916 40.1912 115.068C39.7272 114.22 39.4952 113.188 39.4952 111.972V104.268H41.6552V111.684C41.6552 112.98 41.9832 113.98 42.6392 114.684C43.2952 115.372 44.1912 115.716 45.3272 115.716C46.4952 115.716 47.4152 115.356 48.0872 114.636C48.7592 113.916 49.0952 112.868 49.0952 111.492V104.268H51.2792ZM56.5507 99.6599V117.42H54.3667V99.6599H56.5507ZM66.201 104.028C67.193 104.028 68.089 104.244 68.889 104.676C69.689 105.092 70.313 105.724 70.761 106.572C71.225 107.42 71.457 108.452 71.457 109.668V117.42H69.297V109.98C69.297 108.668 68.969 107.668 68.313 106.98C67.657 106.276 66.761 105.924 65.625 105.924C64.473 105.924 63.553 106.284 62.865 107.004C62.193 107.724 61.857 108.772 61.857 110.148V117.42H59.673V99.6599H61.857V106.14C62.289 105.468 62.881 104.948 63.633 104.58C64.401 104.212 65.257 104.028 66.201 104.028ZM73.6086 110.796C73.6086 109.452 73.8806 108.276 74.4246 107.268C74.9686 106.244 75.7126 105.452 76.6566 104.892C77.6166 104.332 78.6806 104.052 79.8486 104.052C81.0006 104.052 82.0006 104.3 82.8486 104.796C83.6966 105.292 84.3286 105.916 84.7446 106.668V104.268H86.9526V117.42H84.7446V114.972C84.3126 115.74 83.6646 116.38 82.8006 116.892C81.9526 117.388 80.9606 117.636 79.8246 117.636C78.6566 117.636 77.6006 117.348 76.6566 116.772C75.7126 116.196 74.9686 115.388 74.4246 114.348C73.8806 113.308 73.6086 112.124 73.6086 110.796ZM84.7446 110.82C84.7446 109.828 84.5446 108.964 84.1446 108.228C83.7446 107.492 83.2006 106.932 82.5126 106.548C81.8406 106.148 81.0966 105.948 80.2806 105.948C79.4646 105.948 78.7206 106.14 78.0486 106.524C77.3766 106.908 76.8406 107.468 76.4406 108.204C76.0406 108.94 75.8406 109.804 75.8406 110.796C75.8406 111.804 76.0406 112.684 76.4406 113.436C76.8406 114.172 77.3766 114.74 78.0486 115.14C78.7206 115.524 79.4646 115.716 80.2806 115.716C81.0966 115.716 81.8406 115.524 82.5126 115.14C83.2006 114.74 83.7446 114.172 84.1446 113.436C84.5446 112.684 84.7446 111.812 84.7446 110.82ZM89.2273 110.796C89.2273 109.452 89.4993 108.276 90.0433 107.268C90.5873 106.244 91.3313 105.452 92.2753 104.892C93.2353 104.332 94.3073 104.052 95.4913 104.052C96.5153 104.052 97.4673 104.292 98.3473 104.772C99.2273 105.236 99.8993 105.852 100.363 106.62V99.6599H102.571V117.42H100.363V114.948C99.9313 115.732 99.2913 116.38 98.4433 116.892C97.5953 117.388 96.6033 117.636 95.4673 117.636C94.2993 117.636 93.2353 117.348 92.2753 116.772C91.3313 116.196 90.5873 115.388 90.0433 114.348C89.4993 113.308 89.2273 112.124 89.2273 110.796ZM100.363 110.82C100.363 109.828 100.163 108.964 99.7633 108.228C99.3633 107.492 98.8193 106.932 98.1313 106.548C97.4593 106.148 96.7153 105.948 95.8993 105.948C95.0833 105.948 94.3393 106.14 93.6673 106.524C92.9953 106.908 92.4593 107.468 92.0593 108.204C91.6593 108.94 91.4593 109.804 91.4593 110.796C91.4593 111.804 91.6593 112.684 92.0593 113.436C92.4593 114.172 92.9953 114.74 93.6673 115.14C94.3393 115.524 95.0833 115.716 95.8993 115.716C96.7153 115.716 97.4593 115.524 98.1313 115.14C98.8193 114.74 99.3633 114.172 99.7633 113.436C100.163 112.684 100.363 111.812 100.363 110.82ZM110.318 117.636C109.31 117.636 108.406 117.468 107.606 117.132C106.806 116.78 106.174 116.3 105.71 115.692C105.246 115.068 104.99 114.356 104.942 113.556H107.198C107.262 114.212 107.566 114.748 108.11 115.164C108.67 115.58 109.398 115.788 110.294 115.788C111.126 115.788 111.782 115.604 112.262 115.236C112.742 114.868 112.982 114.404 112.982 113.844C112.982 113.268 112.726 112.844 112.214 112.572C111.702 112.284 110.91 112.004 109.838 111.732C108.862 111.476 108.062 111.22 107.438 110.964C106.83 110.692 106.302 110.3 105.854 109.788C105.422 109.26 105.206 108.572 105.206 107.724C105.206 107.052 105.406 106.436 105.806 105.876C106.206 105.316 106.774 104.876 107.51 104.556C108.246 104.22 109.086 104.052 110.03 104.052C111.486 104.052 112.662 104.42 113.558 105.156C114.454 105.892 114.934 106.9 114.998 108.18H112.814C112.766 107.492 112.486 106.94 111.974 106.524C111.478 106.108 110.806 105.9 109.958 105.9C109.174 105.9 108.55 106.068 108.086 106.404C107.622 106.74 107.39 107.18 107.39 107.724C107.39 108.156 107.526 108.516 107.798 108.804C108.086 109.076 108.438 109.3 108.854 109.476C109.286 109.636 109.878 109.82 110.63 110.028C111.574 110.284 112.342 110.54 112.934 110.796C113.526 111.036 114.03 111.404 114.446 111.9C114.878 112.396 115.102 113.044 115.118 113.844C115.118 114.564 114.918 115.212 114.518 115.788C114.118 116.364 113.55 116.82 112.814 117.156C112.094 117.476 111.262 117.636 110.318 117.636ZM125.584 102.468V108.06H131.68V109.86H125.584V115.62H132.4V117.42H123.4V100.668H132.4V102.468H125.584ZM150.92 104.028C151.944 104.028 152.856 104.244 153.656 104.676C154.456 105.092 155.088 105.724 155.552 106.572C156.016 107.42 156.248 108.452 156.248 109.668V117.42H154.088V109.98C154.088 108.668 153.76 107.668 153.104 106.98C152.464 106.276 151.592 105.924 150.488 105.924C149.352 105.924 148.448 106.292 147.776 107.028C147.104 107.748 146.768 108.796 146.768 110.172V117.42H144.608V109.98C144.608 108.668 144.28 107.668 143.624 106.98C142.984 106.276 142.112 105.924 141.008 105.924C139.872 105.924 138.968 106.292 138.296 107.028C137.624 107.748 137.288 108.796 137.288 110.172V117.42H135.104V104.268H137.288V106.164C137.72 105.476 138.296 104.948 139.016 104.58C139.752 104.212 140.56 104.028 141.44 104.028C142.544 104.028 143.52 104.276 144.368 104.772C145.216 105.268 145.848 105.996 146.264 106.956C146.632 106.028 147.24 105.308 148.088 104.796C148.936 104.284 149.88 104.028 150.92 104.028ZM161.415 106.692C161.847 105.94 162.487 105.316 163.335 104.82C164.199 104.308 165.199 104.052 166.335 104.052C167.503 104.052 168.559 104.332 169.503 104.892C170.463 105.452 171.215 106.244 171.759 107.268C172.303 108.276 172.575 109.452 172.575 110.796C172.575 112.124 172.303 113.308 171.759 114.348C171.215 115.388 170.463 116.196 169.503 116.772C168.559 117.348 167.503 117.636 166.335 117.636C165.215 117.636 164.223 117.388 163.359 116.892C162.511 116.38 161.863 115.748 161.415 114.996V123.66H159.231V104.268H161.415V106.692ZM170.343 110.796C170.343 109.804 170.143 108.94 169.743 108.204C169.343 107.468 168.799 106.908 168.111 106.524C167.439 106.14 166.695 105.948 165.879 105.948C165.079 105.948 164.335 106.148 163.647 106.548C162.975 106.932 162.431 107.5 162.015 108.252C161.615 108.988 161.415 109.844 161.415 110.82C161.415 111.812 161.615 112.684 162.015 113.436C162.431 114.172 162.975 114.74 163.647 115.14C164.335 115.524 165.079 115.716 165.879 115.716C166.695 115.716 167.439 115.524 168.111 115.14C168.799 114.74 169.343 114.172 169.743 113.436C170.143 112.684 170.343 111.804 170.343 110.796ZM177.514 106.068V113.82C177.514 114.46 177.65 114.916 177.922 115.188C178.194 115.444 178.666 115.572 179.338 115.572H180.946V117.42H178.978C177.762 117.42 176.85 117.14 176.242 116.58C175.634 116.02 175.33 115.1 175.33 113.82V106.068H173.626V104.268H175.33V100.956H177.514V104.268H180.946V106.068H177.514ZM184.12 102.132C183.704 102.132 183.352 101.988 183.064 101.7C182.776 101.412 182.632 101.06 182.632 100.644C182.632 100.228 182.776 99.8759 183.064 99.5879C183.352 99.2999 183.704 99.1559 184.12 99.1559C184.52 99.1559 184.856 99.2999 185.128 99.5879C185.416 99.8759 185.56 100.228 185.56 100.644C185.56 101.06 185.416 101.412 185.128 101.7C184.856 101.988 184.52 102.132 184.12 102.132ZM185.176 104.268V117.42H182.992V104.268H185.176ZM200.298 110.34C200.298 110.756 200.274 111.196 200.226 111.66H189.714C189.794 112.956 190.234 113.972 191.034 114.708C191.85 115.428 192.834 115.788 193.986 115.788C194.93 115.788 195.714 115.572 196.338 115.14C196.978 114.692 197.426 114.1 197.682 113.364H200.034C199.682 114.628 198.978 115.66 197.922 116.46C196.866 117.244 195.554 117.636 193.986 117.636C192.738 117.636 191.618 117.356 190.626 116.796C189.65 116.236 188.882 115.444 188.322 114.42C187.762 113.38 187.482 112.18 187.482 110.82C187.482 109.46 187.754 108.268 188.298 107.244C188.842 106.22 189.602 105.436 190.578 104.892C191.57 104.332 192.706 104.052 193.986 104.052C195.234 104.052 196.338 104.324 197.298 104.868C198.258 105.412 198.994 106.164 199.506 107.124C200.034 108.068 200.298 109.14 200.298 110.34ZM198.042 109.884C198.042 109.052 197.858 108.34 197.49 107.748C197.122 107.14 196.618 106.684 195.978 106.38C195.354 106.06 194.658 105.9 193.89 105.9C192.786 105.9 191.842 106.252 191.058 106.956C190.29 107.66 189.85 108.636 189.738 109.884H198.042ZM201.765 110.796C201.765 109.452 202.037 108.276 202.581 107.268C203.125 106.244 203.869 105.452 204.813 104.892C205.773 104.332 206.845 104.052 208.029 104.052C209.053 104.052 210.005 104.292 210.885 104.772C211.765 105.236 212.437 105.852 212.901 106.62V99.6599H215.109V117.42H212.901V114.948C212.469 115.732 211.829 116.38 210.981 116.892C210.133 117.388 209.141 117.636 208.005 117.636C206.837 117.636 205.773 117.348 204.813 116.772C203.869 116.196 203.125 115.388 202.581 114.348C202.037 113.308 201.765 112.124 201.765 110.796ZM212.901 110.82C212.901 109.828 212.701 108.964 212.301 108.228C211.901 107.492 211.357 106.932 210.669 106.548C209.997 106.148 209.253 105.948 208.437 105.948C207.621 105.948 206.877 106.14 206.205 106.524C205.533 106.908 204.997 107.468 204.597 108.204C204.197 108.94 203.997 109.804 203.997 110.796C203.997 111.804 204.197 112.684 204.597 113.436C204.997 114.172 205.533 114.74 206.205 115.14C206.877 115.524 207.621 115.716 208.437 115.716C209.253 115.716 209.997 115.524 210.669 115.14C211.357 114.74 211.901 114.172 212.301 113.436C212.701 112.684 212.901 111.812 212.901 110.82Z" fill="#0A0A0A"/>
<rect x="24.597" y="24.597" width="207.208" height="56.1211" rx="28.0605" fill="#D9D9D9" stroke="#B0B0B0" stroke-width="1.19407"/>
<path d="M71.1303 42.1167L60.5079 66.6094H56.1138L66.8508 42.5752H52.7131V38.8688H71.1303V42.1167ZM91.862 42.4988H79.0616V50.1026C79.5966 49.3894 80.3862 48.7907 81.4307 48.3067C82.5005 47.8227 83.6341 47.5807 84.8313 47.5807C86.9711 47.5807 88.7033 48.0393 90.0279 48.9563C91.378 49.8734 92.3333 51.0324 92.8937 52.4334C93.4796 53.8345 93.7725 55.3119 93.7725 56.8658C93.7725 58.7508 93.4031 60.4321 92.6644 61.9095C91.9512 63.3615 90.8685 64.5078 89.4166 65.3484C87.9901 66.1891 86.2324 66.6094 84.1436 66.6094C81.367 66.6094 79.138 65.9216 77.4568 64.546C75.7756 63.1705 74.7694 61.3491 74.4382 59.082H78.6795C78.9597 60.2792 79.5838 61.2345 80.5518 61.9477C81.5198 62.6355 82.7298 62.9794 84.1818 62.9794C85.9904 62.9794 87.3405 62.4317 88.232 61.3364C89.1491 60.241 89.6076 58.789 89.6076 56.9804C89.6076 55.1463 89.1491 53.7453 88.232 52.7773C87.315 51.7839 85.9649 51.2871 84.1818 51.2871C82.9336 51.2871 81.8764 51.6055 81.0103 52.2424C80.1697 52.8537 79.5584 53.6944 79.1763 54.7642H75.0496V38.6778H91.862V42.4988ZM102.701 61.3746L98.0777 71.9206H95.2502L97.9631 61.3746H102.701ZM104.979 52.3188C104.979 47.9119 105.718 44.473 107.195 42.0021C108.698 39.5057 111.271 38.2575 114.913 38.2575C118.556 38.2575 121.116 39.5057 122.594 42.0021C124.097 44.473 124.848 47.9119 124.848 52.3188C124.848 56.7766 124.097 60.2665 122.594 62.7884C121.116 65.2848 118.556 66.533 114.913 66.533C111.271 66.533 108.698 65.2848 107.195 62.7884C105.718 60.2665 104.979 56.7766 104.979 52.3188ZM120.569 52.3188C120.569 50.2555 120.428 48.5105 120.148 47.084C119.893 45.6575 119.359 44.4985 118.543 43.6069C117.728 42.6899 116.518 42.2313 114.913 42.2313C113.309 42.2313 112.099 42.6899 111.283 43.6069C110.468 44.4985 109.921 45.6575 109.64 47.084C109.386 48.5105 109.258 50.2555 109.258 52.3188C109.258 54.4586 109.386 56.2544 109.64 57.7064C109.895 59.1584 110.43 60.3302 111.245 61.2218C112.086 62.1133 113.309 62.5591 114.913 62.5591C116.518 62.5591 117.728 62.1133 118.543 61.2218C119.384 60.3302 119.932 59.1584 120.186 57.7064C120.441 56.2544 120.569 54.4586 120.569 52.3188ZM128.502 52.3188C128.502 47.9119 129.241 44.473 130.718 42.0021C132.221 39.5057 134.794 38.2575 138.437 38.2575C142.079 38.2575 144.639 39.5057 146.117 42.0021C147.62 44.473 148.371 47.9119 148.371 52.3188C148.371 56.7766 147.62 60.2665 146.117 62.7884C144.639 65.2848 142.079 66.533 138.437 66.533C134.794 66.533 132.221 65.2848 130.718 62.7884C129.241 60.2665 128.502 56.7766 128.502 52.3188ZM144.092 52.3188C144.092 50.2555 143.952 48.5105 143.671 47.084C143.417 45.6575 142.882 44.4985 142.066 43.6069C141.251 42.6899 140.041 42.2313 138.437 42.2313C136.832 42.2313 135.622 42.6899 134.807 43.6069C133.991 44.4985 133.444 45.6575 133.164 47.084C132.909 48.5105 132.781 50.2555 132.781 52.3188C132.781 54.4586 132.909 56.2544 133.164 57.7064C133.418 59.1584 133.953 60.3302 134.768 61.2218C135.609 62.1133 136.832 62.5591 138.437 62.5591C140.041 62.5591 141.251 62.1133 142.066 61.2218C142.907 60.3302 143.455 59.1584 143.71 57.7064C143.964 56.2544 144.092 54.4586 144.092 52.3188ZM152.025 52.3188C152.025 47.9119 152.764 44.473 154.241 42.0021C155.744 39.5057 158.317 38.2575 161.96 38.2575C165.602 38.2575 168.162 39.5057 169.64 42.0021C171.143 44.473 171.894 47.9119 171.894 52.3188C171.894 56.7766 171.143 60.2665 169.64 62.7884C168.162 65.2848 165.602 66.533 161.96 66.533C158.317 66.533 155.744 65.2848 154.241 62.7884C152.764 60.2665 152.025 56.7766 152.025 52.3188ZM167.615 52.3188C167.615 50.2555 167.475 48.5105 167.194 47.084C166.94 45.6575 166.405 44.4985 165.59 43.6069C164.774 42.6899 163.564 42.2313 161.96 42.2313C160.355 42.2313 159.145 42.6899 158.33 43.6069C157.515 44.4985 156.967 45.6575 156.687 47.084C156.432 48.5105 156.305 50.2555 156.305 52.3188C156.305 54.4586 156.432 56.2544 156.687 57.7064C156.941 59.1584 157.476 60.3302 158.291 61.2218C159.132 62.1133 160.355 62.5591 161.96 62.5591C163.564 62.5591 164.774 62.1133 165.59 61.2218C166.43 60.3302 166.978 59.1584 167.233 57.7064C167.487 56.2544 167.615 54.4586 167.615 52.3188ZM205.61 54.6496H197.892V62.5591H193.842V54.6496H186.123V50.9814H193.842V43.072H197.892V50.9814H205.61V54.6496Z" fill="#0A0A0A"/>
<rect x="121.273" y="227.09" width="177.132" height="69.3623" rx="5.85259" fill="#FEB649"/>
<path d="M121.25 231.592V224.148L298.404 225.49V237.693L121.25 231.592Z" fill="#542A29"/>
<rect x="115.273" y="218.066" width="189.131" height="9.02383" rx="2.50825" fill="#FEB649"/>
<path d="M132.672 176.068H159.838V184.397C159.838 187.629 157.218 190.249 153.985 190.249H138.524C135.292 190.249 132.672 187.629 132.672 184.397V176.068Z" fill="#542A29"/>
<rect x="131.93" y="175.045" width="28.6489" height="1.02551" fill="#542A29"/>
<path d="M140.17 161.728C140.712 161.929 141.832 162.932 141.976 165.34C142.155 168.35 139.326 167.988 139.266 170.457M149.92 165.34C148.274 164.276 145.477 160.572 147.451 154.263C149.426 147.954 147.873 144.731 146.849 143.908M155.157 171.901C153.752 171.058 151.364 168.915 153.05 167.085C155.157 164.797 156.481 163.774 155.157 160.763" stroke="#CDCDCD" stroke-width="0.444484"/>
<path d="M149.635 168.196C149.455 171.206 150.502 170.795 150.562 173.263M142.453 169.202C144.098 168.138 145.932 166.938 143.958 160.629C141.983 154.32 143.969 152.797 144.993 151.975M136.131 174.018C137.536 173.175 138.162 171.357 137.457 169.202C136.489 166.246 134.807 165.89 136.131 162.88" stroke="#CDCDCD" stroke-width="0.444484"/>
<rect x="133.906" y="190.25" width="24.7037" height="1.02551" rx="0.512755" fill="#FEB649"/>
<rect x="138.094" y="191.275" width="16.3167" height="3.11245" fill="#FC8637"/>
<path d="M135.602 196.061C135.602 195.137 136.35 194.389 137.274 194.389H155.236C156.16 194.389 156.909 195.137 156.909 196.061V202.537H135.602V196.061Z" fill="#FEB649"/>
<rect x="135.602" y="210.436" width="21.3071" height="8.05974" fill="#FEB649"/>
<rect x="135.602" y="202.537" width="21.3071" height="7.89708" fill="#542A29"/>
<rect x="272.547" y="187.975" width="12.4563" height="3.58928" rx="0.836084" fill="#ED7D31"/>
<path d="M269.016 193.237C269.016 192.313 269.764 191.564 270.688 191.564H286.867C287.791 191.564 288.539 192.313 288.539 193.237V217.751H269.016V193.237Z" fill="#542A29"/>
<rect x="252.844" y="197.238" width="12.4563" height="3.58928" rx="0.836084" fill="#ED7D31"/>
<path d="M249.758 204.172C249.758 202.325 251.255 200.828 253.102 200.828H265.036C266.883 200.828 268.38 202.325 268.38 204.172V217.749H249.758V204.172Z" fill="#542A29"/>
<rect x="162.492" y="197.293" width="12.4563" height="3.58928" rx="0.836084" fill="#ED7D31"/>
<path d="M159.453 204.225C159.453 202.378 160.95 200.881 162.797 200.881H174.64C176.487 200.881 177.984 202.378 177.984 204.225V218.044H159.453V204.225Z" fill="#542A29"/>
<rect x="163.375" y="196.881" width="10.6797" height="0.41151" rx="0.205755" fill="#ED7D31"/>
<circle cx="168.037" cy="284.783" r="35.2396" stroke="#E6E6E6" stroke-width="5.01651"/>
<circle cx="253.693" cy="284.783" r="35.2396" stroke="#E6E6E6" stroke-width="5.01651"/>
<circle cx="168.037" cy="284.783" r="36.0757" stroke="black" stroke-width="3.34434"/>
<circle cx="253.693" cy="284.783" r="36.0757" stroke="black" stroke-width="3.34434"/>
<circle cx="253.699" cy="284.783" r="4.50375" fill="black"/>
<circle cx="168.035" cy="284.783" r="4.50375" fill="black"/>
<path d="M253.695 284.782L265.545 251.821M253.695 284.782L280.046 260.047M253.695 284.782L288.682 278.447M253.695 284.782L288.682 296.095M253.695 284.782L274.113 314.269M253.695 284.782L255.413 321.103M253.695 284.782L237.84 316.372M253.695 284.782L224.251 304.881M253.695 284.782L217.794 283.552M253.695 284.782L223.198 266.879M253.695 284.782L232.811 255.615M253.695 284.782C254.049 283.798 251.084 260.672 249.558 249.231" stroke="black" stroke-width="0.836084"/>
<path d="M168.343 284.372L180.193 251.41M168.343 284.372L194.694 259.637M168.343 284.372L203.33 278.036M168.343 284.372L203.33 295.685M168.343 284.372L188.761 313.859M168.343 284.372L170.062 320.693M168.343 284.372L152.488 315.961M168.343 284.372L138.9 304.471M168.343 284.372L132.443 283.142M168.343 284.372L137.847 266.469M168.343 284.372L147.46 255.204M168.343 284.372C168.697 283.388 165.733 260.261 164.207 248.821" stroke="black" stroke-width="0.836084"/>
<path d="M253.735 284.815L268.666 253.129M253.735 284.815L282.319 262.697M253.735 284.815L289.166 281.834M253.735 284.815L287.489 299.403M253.735 284.815L271.257 316.109M253.735 284.815L251.993 321.134M253.735 284.815L234.949 314.753M253.735 284.815L222.514 302.023M253.735 284.815L218.114 280.177M253.735 284.815L225.079 264.093M253.735 284.815L235.72 253.794M253.735 284.815C254.181 283.869 253.429 260.565 252.998 249.031" stroke="black" stroke-width="0.836084"/>
<path d="M168.384 284.403L183.314 252.717M168.384 284.403L196.967 262.285M168.384 284.403L203.815 281.422M168.384 284.403L202.137 298.99M168.384 284.403L185.906 315.697M168.384 284.403L166.641 320.722M168.384 284.403L149.597 314.341M168.384 284.403L137.163 301.611M168.384 284.403L132.763 279.765M168.384 284.403L139.728 263.681M168.384 284.403L150.368 253.382M168.384 284.403C168.83 283.457 168.078 260.153 167.646 248.619" stroke="black" stroke-width="0.836084"/>
<path d="M187.779 213.818C188.339 213.383 188.258 212.768 188.148 212.515C188.876 211.68 191.756 211.659 192.133 212.399C191.997 213.001 192.483 213.468 193.241 214.304C193.848 214.973 194.129 216.397 194.194 217.025C193.98 217.511 192.93 217.745 190.636 217.998C188.801 218.2 187.241 217.913 186.69 217.745V216.539C186.651 215.062 187.079 214.362 187.779 213.818Z" fill="#ED7D31"/>
<path d="M196.779 213.818C197.339 213.383 197.258 212.768 197.148 212.515C197.876 211.68 200.756 211.659 201.133 212.399C200.997 213.001 201.483 213.468 202.241 214.304C202.848 214.973 203.129 216.397 203.194 217.025C202.98 217.511 201.93 217.745 199.636 217.998C197.801 218.2 196.241 217.913 195.69 217.745V216.539C195.651 215.062 196.079 214.362 196.779 213.818Z" fill="#ED7D31"/>
<path d="M211.104 213.818C210.544 213.383 210.624 212.768 210.734 212.515C210.006 211.68 207.127 211.659 206.75 212.399C206.886 213.001 206.4 213.468 205.642 214.304C205.035 214.973 204.754 216.397 204.689 217.025C204.903 217.511 205.953 217.745 208.247 217.998C210.082 218.2 211.642 217.913 212.193 217.745V216.539C212.232 215.062 211.804 214.362 211.104 213.818Z" fill="#ED7D31"/>
<path d="M214.779 213.818C215.339 213.383 215.258 212.768 215.148 212.515C215.876 211.68 218.756 211.659 219.133 212.399C218.997 213.001 219.483 213.468 220.241 214.304C220.848 214.973 221.129 216.397 221.194 217.025C220.98 217.511 219.93 217.745 217.636 217.998C215.801 218.2 214.241 217.913 213.69 217.745V216.539C213.651 215.062 214.079 214.362 214.779 213.818Z" fill="#ED7D31"/>
<path d="M210.473 208.072C211.065 207.682 211.034 207.063 210.944 206.802C211.736 206.027 214.608 206.233 214.926 207C214.742 207.59 215.19 208.094 215.88 208.987C216.432 209.701 216.6 211.144 216.615 211.775C216.363 212.243 215.299 212.393 212.992 212.464C211.146 212.52 209.613 212.112 209.078 211.9L209.173 210.699C209.251 209.223 209.732 208.559 210.473 208.072Z" fill="#ED7D31"/>
<path d="M206.113 202.546C206.706 202.157 206.675 201.538 206.585 201.277C207.376 200.502 210.248 200.708 210.566 201.475C210.383 202.065 210.831 202.568 211.521 203.462C212.073 204.176 212.241 205.618 212.256 206.25C212.004 206.718 210.939 206.867 208.632 206.938C206.787 206.995 205.254 206.586 204.718 206.375L204.813 205.174C204.891 203.698 205.373 203.034 206.113 202.546Z" fill="#ED7D31"/>
<path d="M196.692 202.546C197.284 202.157 197.253 201.538 197.163 201.277C197.954 200.502 200.826 200.708 201.144 201.475C200.961 202.065 201.409 202.568 202.099 203.462C202.651 204.176 202.819 205.618 202.834 206.25C202.582 206.718 201.517 206.867 199.21 206.938C197.365 206.995 195.832 206.586 195.297 206.375L195.392 205.174C195.469 203.698 195.951 203.034 196.692 202.546Z" fill="#ED7D31"/>
<path d="M201.071 197.016C201.668 196.634 201.645 196.014 201.559 195.752C202.361 194.988 205.23 195.232 205.537 196.003C205.346 196.591 205.787 197.1 206.465 198.002C207.008 198.724 207.157 200.168 207.163 200.8C206.906 201.264 205.839 201.4 203.531 201.44C201.685 201.473 200.158 201.044 199.625 200.826L199.736 199.625C199.833 198.15 200.324 197.493 201.071 197.016Z" fill="#ED7D31"/>
<path d="M201.59 208.072C202.183 207.682 202.151 207.063 202.061 206.802C202.853 206.027 205.725 206.233 206.043 207C205.86 207.59 206.307 208.094 206.997 208.987C207.549 209.701 207.717 211.144 207.732 211.775C207.481 212.243 206.416 212.393 204.109 212.464C202.263 212.52 200.731 212.112 200.195 211.9L200.29 210.699C200.368 209.223 200.849 208.559 201.59 208.072Z" fill="#ED7D31"/>
<path d="M192.707 208.072C193.3 207.682 193.268 207.063 193.178 206.802C193.97 206.027 196.842 206.233 197.16 207C196.977 207.59 197.425 208.094 198.114 208.987C198.666 209.701 198.834 211.144 198.849 211.775C198.598 212.243 197.533 212.393 195.226 212.464C193.381 212.52 191.848 212.112 191.312 211.9L191.407 210.699C191.485 209.223 191.967 208.559 192.707 208.072Z" fill="#ED7D31"/>
<path d="M253.687 207.221L253.687 218.068L229.669 218.068C228.952 216.641 227.457 212.951 227.217 209.609C226.976 206.267 225.655 204.04 225.025 203.345L225.794 201.73C228.421 203.02 229.742 206.913 230.164 209.109C230.219 209.396 230.466 209.609 230.758 209.609C231.084 209.609 231.347 209.345 231.347 209.02L231.347 206.901C231.347 206.615 231.486 206.346 231.719 206.179L235.442 203.511C235.593 203.403 235.774 203.345 235.959 203.345L248.688 203.345C248.876 203.345 249.058 203.405 249.21 203.515L253.321 206.501C253.551 206.669 253.687 206.936 253.687 207.221Z" fill="#ED7D31"/>
<rect width="13.3904" height="3.01774" rx="0.836084" transform="matrix(-1 -8.74228e-08 -8.74228e-08 1 249.039 200.328)" fill="#FEB649"/>
<circle cx="1.0843" cy="1.0843" r="1.0843" transform="matrix(-1 -8.74228e-08 -8.74228e-08 1 243.57 198.16)" fill="#ED7D31"/>
<mask id="path-48-inside-1_1777_3502" fill="white">
<path d="M119.961 209.227H299.719V218.067H119.961V209.227Z"/>
</mask>
<path d="M119.961 209.227V208.39H119.125V209.227H119.961ZM299.719 209.227H300.555V208.39H299.719V209.227ZM119.961 210.063H299.719V208.39H119.961V210.063ZM298.883 209.227V218.067H300.555V209.227H298.883ZM120.797 218.067V209.227H119.125V218.067H120.797Z" fill="black" mask="url(#path-48-inside-1_1777_3502)"/>
<rect x="0.03125" y="322.256" width="313.253" height="20" fill="#542A29"/>
</g>
<defs>
<clipPath id="clip0_1777_3502">
<rect width="312" height="342.256" rx="24" fill="white"/>
</clipPath>
</defs>
</svg>
