<svg width="312" height="343" viewBox="0 0 312 343" fill="none" xmlns="http://www.w3.org/2000/svg">
<g clip-path="url(#clip0_1777_3575)">
<rect width="312" height="342.256" rx="24" fill="#E6E6E6"/>
<path d="M-866.528 199.121C-963.888 152.01 -975.145 314.334 -968.603 381.074L-971.5 387.608H382.8C399.186 410.614 431.43 391.867 429.319 295.325C426.68 174.647 412.382 249.555 301.771 169.457C191.159 89.3592 121.233 254.64 33.5066 295.325C-25.3969 322.642 -32.1946 262.674 -73.326 287.462C-140.881 328.174 -172.205 159.982 -265.909 226.603C-320.871 275.676 -436.125 220.713 -510.716 199.12C-585.307 177.528 -649.547 191.27 -688.805 226.603C-728.064 261.935 -744.828 258.008 -866.528 199.121Z" fill="#ED7D31"/>
<rect x="0.03125" y="322.256" width="313.253" height="20" fill="#542A29"/>
<rect x="0.03125" y="322.256" width="313.253" height="20" fill="#FEB649"/>
<path d="M31.296 117.494C30.176 117.494 29.168 117.302 28.272 116.918C27.376 116.518 26.672 115.958 26.16 115.238C25.648 114.518 25.392 113.678 25.392 112.718H28.32C28.384 113.438 28.664 114.03 29.16 114.494C29.672 114.958 30.384 115.19 31.296 115.19C32.24 115.19 32.976 114.966 33.504 114.518C34.032 114.054 34.296 113.462 34.296 112.742C34.296 112.182 34.128 111.726 33.792 111.374C33.472 111.022 33.064 110.75 32.568 110.558C32.088 110.366 31.416 110.158 30.552 109.934C29.464 109.646 28.576 109.358 27.888 109.07C27.216 108.766 26.64 108.302 26.16 107.678C25.68 107.054 25.44 106.222 25.44 105.182C25.44 104.222 25.68 103.382 26.16 102.662C26.64 101.942 27.312 101.39 28.176 101.006C29.04 100.622 30.04 100.43 31.176 100.43C32.792 100.43 34.112 100.838 35.136 101.654C36.176 102.454 36.752 103.558 36.864 104.966H33.84C33.792 104.358 33.504 103.838 32.976 103.406C32.448 102.974 31.752 102.758 30.888 102.758C30.104 102.758 29.464 102.958 28.968 103.358C28.472 103.758 28.224 104.334 28.224 105.086C28.224 105.598 28.376 106.022 28.68 106.358C29 106.678 29.4 106.934 29.88 107.126C30.36 107.318 31.016 107.526 31.848 107.75C32.952 108.054 33.848 108.358 34.536 108.662C35.24 108.966 35.832 109.438 36.312 110.078C36.808 110.702 37.056 111.542 37.056 112.598C37.056 113.446 36.824 114.246 36.36 114.998C35.912 115.75 35.248 116.358 34.368 116.822C33.504 117.27 32.48 117.494 31.296 117.494ZM55.6924 103.886C56.7324 103.886 57.6604 104.102 58.4764 104.534C59.3084 104.966 59.9564 105.606 60.4204 106.454C60.9004 107.302 61.1404 108.326 61.1404 109.526V117.326H58.4284V109.934C58.4284 108.75 58.1324 107.846 57.5404 107.222C56.9484 106.582 56.1404 106.262 55.1164 106.262C54.0924 106.262 53.2764 106.582 52.6684 107.222C52.0764 107.846 51.7804 108.75 51.7804 109.934V117.326H49.0684V109.934C49.0684 108.75 48.7724 107.846 48.1804 107.222C47.5884 106.582 46.7804 106.262 45.7564 106.262C44.7324 106.262 43.9164 106.582 43.3084 107.222C42.7164 107.846 42.4204 108.75 42.4204 109.934V117.326H39.6844V104.102H42.4204V105.614C42.8684 105.07 43.4364 104.646 44.1244 104.342C44.8124 104.038 45.5484 103.886 46.3324 103.886C47.3884 103.886 48.3324 104.11 49.1644 104.558C49.9964 105.006 50.6364 105.654 51.0844 106.502C51.4844 105.702 52.1084 105.07 52.9564 104.606C53.8044 104.126 54.7164 103.886 55.6924 103.886ZM65.4139 102.35C64.9179 102.35 64.5019 102.182 64.1659 101.846C63.8299 101.51 63.6619 101.094 63.6619 100.598C63.6619 100.102 63.8299 99.6862 64.1659 99.3502C64.5019 99.0142 64.9179 98.8462 65.4139 98.8462C65.8939 98.8462 66.3019 99.0142 66.6379 99.3502C66.9739 99.6862 67.1419 100.102 67.1419 100.598C67.1419 101.094 66.9739 101.51 66.6379 101.846C66.3019 102.182 65.8939 102.35 65.4139 102.35ZM66.7579 104.102V117.326H64.0219V104.102H66.7579ZM72.486 99.5662V117.326H69.75V99.5662H72.486ZM87.5981 110.39C87.5981 110.886 87.5661 111.334 87.5021 111.734H77.3981C77.4781 112.79 77.8701 113.638 78.5741 114.278C79.2781 114.918 80.1421 115.238 81.1661 115.238C82.6381 115.238 83.6781 114.622 84.2861 113.39H87.2381C86.8381 114.606 86.1101 115.606 85.0541 116.39C84.0141 117.158 82.7181 117.542 81.1661 117.542C79.9021 117.542 78.7661 117.262 77.7581 116.702C76.7661 116.126 75.9821 115.326 75.4061 114.302C74.8461 113.262 74.5661 112.062 74.5661 110.702C74.5661 109.342 74.8381 108.15 75.3821 107.126C75.9421 106.086 76.7181 105.286 77.7101 104.726C78.7181 104.166 79.8701 103.886 81.1661 103.886C82.4141 103.886 83.5261 104.158 84.5021 104.702C85.4781 105.246 86.2381 106.014 86.7821 107.006C87.3261 107.982 87.5981 109.11 87.5981 110.39ZM84.7421 109.526C84.7261 108.518 84.3661 107.71 83.6621 107.102C82.9581 106.494 82.0861 106.19 81.0461 106.19C80.1021 106.19 79.2941 106.494 78.6221 107.102C77.9501 107.694 77.5501 108.502 77.4221 109.526H84.7421ZM94.4906 117.542C93.4506 117.542 92.5146 117.358 91.6826 116.99C90.8666 116.606 90.2186 116.094 89.7386 115.454C89.2586 114.798 89.0026 114.07 88.9706 113.27H91.8026C91.8506 113.83 92.1146 114.302 92.5946 114.686C93.0906 115.054 93.7066 115.238 94.4426 115.238C95.2106 115.238 95.8026 115.094 96.2186 114.806C96.6506 114.502 96.8666 114.118 96.8666 113.654C96.8666 113.158 96.6266 112.79 96.1466 112.55C95.6826 112.31 94.9386 112.046 93.9146 111.758C92.9226 111.486 92.1146 111.222 91.4906 110.966C90.8666 110.71 90.3226 110.318 89.8586 109.79C89.4106 109.262 89.1866 108.566 89.1866 107.702C89.1866 106.998 89.3946 106.358 89.8106 105.782C90.2266 105.19 90.8186 104.726 91.5866 104.39C92.3706 104.054 93.2666 103.886 94.2746 103.886C95.7786 103.886 96.9866 104.27 97.8986 105.038C98.8266 105.79 99.3226 106.822 99.3866 108.134H96.6506C96.6026 107.542 96.3626 107.07 95.9306 106.718C95.4986 106.366 94.9146 106.19 94.1786 106.19C93.4586 106.19 92.9066 106.326 92.5226 106.598C92.1386 106.87 91.9466 107.23 91.9466 107.678C91.9466 108.03 92.0746 108.326 92.3306 108.566C92.5866 108.806 92.8986 108.998 93.2666 109.142C93.6346 109.27 94.1786 109.438 94.8986 109.646C95.8586 109.902 96.6426 110.166 97.2506 110.438C97.8746 110.694 98.4106 111.078 98.8586 111.59C99.3066 112.102 99.5386 112.782 99.5546 113.63C99.5546 114.382 99.3466 115.054 98.9306 115.646C98.5146 116.238 97.9226 116.702 97.1546 117.038C96.4026 117.374 95.5146 117.542 94.4906 117.542ZM113.281 117.542C112.033 117.542 110.905 117.262 109.897 116.702C108.889 116.126 108.097 115.326 107.521 114.302C106.945 113.262 106.657 112.062 106.657 110.702C106.657 109.358 106.953 108.166 107.545 107.126C108.137 106.086 108.945 105.286 109.969 104.726C110.993 104.166 112.137 103.886 113.401 103.886C114.665 103.886 115.809 104.166 116.833 104.726C117.857 105.286 118.665 106.086 119.257 107.126C119.849 108.166 120.145 109.358 120.145 110.702C120.145 112.046 119.841 113.238 119.233 114.278C118.625 115.318 117.793 116.126 116.737 116.702C115.697 117.262 114.545 117.542 113.281 117.542ZM113.281 115.166C113.985 115.166 114.641 114.998 115.249 114.662C115.873 114.326 116.377 113.822 116.761 113.15C117.145 112.478 117.337 111.662 117.337 110.702C117.337 109.742 117.153 108.934 116.785 108.278C116.417 107.606 115.929 107.102 115.321 106.766C114.713 106.43 114.057 106.262 113.353 106.262C112.649 106.262 111.993 106.43 111.385 106.766C110.793 107.102 110.321 107.606 109.969 108.278C109.617 108.934 109.441 109.742 109.441 110.702C109.441 112.126 109.801 113.23 110.521 114.014C111.257 114.782 112.177 115.166 113.281 115.166ZM127.794 106.334H125.346V117.326H122.586V106.334H121.026V104.102H122.586V103.166C122.586 101.646 122.986 100.542 123.786 99.8542C124.602 99.1502 125.874 98.7982 127.602 98.7982V101.078C126.77 101.078 126.186 101.238 125.85 101.558C125.514 101.862 125.346 102.398 125.346 103.166V104.102H127.794V106.334ZM134.341 108.95C134.341 107.318 134.717 105.854 135.469 104.558C136.237 103.262 137.269 102.254 138.565 101.534C139.877 100.798 141.309 100.43 142.861 100.43C144.637 100.43 146.213 100.87 147.589 101.75C148.981 102.614 149.989 103.846 150.613 105.446H147.325C146.893 104.566 146.293 103.91 145.525 103.478C144.757 103.046 143.869 102.83 142.861 102.83C141.757 102.83 140.773 103.078 139.909 103.574C139.045 104.07 138.365 104.782 137.869 105.71C137.389 106.638 137.149 107.718 137.149 108.95C137.149 110.182 137.389 111.262 137.869 112.19C138.365 113.118 139.045 113.838 139.909 114.35C140.773 114.846 141.757 115.094 142.861 115.094C143.869 115.094 144.757 114.878 145.525 114.446C146.293 114.014 146.893 113.358 147.325 112.478H150.613C149.989 114.078 148.981 115.31 147.589 116.174C146.213 117.038 144.637 117.47 142.861 117.47C141.293 117.47 139.861 117.11 138.565 116.39C137.269 115.654 136.237 114.638 135.469 113.342C134.717 112.046 134.341 110.582 134.341 108.95ZM165.192 104.102V117.326H162.456V115.766C162.024 116.31 161.456 116.742 160.752 117.062C160.064 117.366 159.328 117.518 158.544 117.518C157.504 117.518 156.568 117.302 155.736 116.87C154.92 116.438 154.272 115.798 153.792 114.95C153.328 114.102 153.096 113.078 153.096 111.878V104.102H155.808V111.47C155.808 112.654 156.104 113.566 156.696 114.206C157.288 114.83 158.096 115.142 159.12 115.142C160.144 115.142 160.952 114.83 161.544 114.206C162.152 113.566 162.456 112.654 162.456 111.47V104.102H165.192ZM173.002 117.542C171.962 117.542 171.026 117.358 170.194 116.99C169.378 116.606 168.73 116.094 168.25 115.454C167.77 114.798 167.514 114.07 167.482 113.27H170.314C170.362 113.83 170.626 114.302 171.106 114.686C171.602 115.054 172.218 115.238 172.954 115.238C173.722 115.238 174.314 115.094 174.73 114.806C175.162 114.502 175.378 114.118 175.378 113.654C175.378 113.158 175.138 112.79 174.658 112.55C174.194 112.31 173.45 112.046 172.426 111.758C171.434 111.486 170.626 111.222 170.002 110.966C169.378 110.71 168.834 110.318 168.37 109.79C167.922 109.262 167.698 108.566 167.698 107.702C167.698 106.998 167.906 106.358 168.322 105.782C168.738 105.19 169.33 104.726 170.098 104.39C170.882 104.054 171.778 103.886 172.786 103.886C174.29 103.886 175.498 104.27 176.41 105.038C177.338 105.79 177.834 106.822 177.898 108.134H175.162C175.114 107.542 174.874 107.07 174.442 106.718C174.01 106.366 173.426 106.19 172.69 106.19C171.97 106.19 171.418 106.326 171.034 106.598C170.65 106.87 170.458 107.23 170.458 107.678C170.458 108.03 170.586 108.326 170.842 108.566C171.098 108.806 171.41 108.998 171.778 109.142C172.146 109.27 172.69 109.438 173.41 109.646C174.37 109.902 175.154 110.166 175.762 110.438C176.386 110.694 176.922 111.078 177.37 111.59C177.818 112.102 178.05 112.782 178.066 113.63C178.066 114.382 177.858 115.054 177.442 115.646C177.026 116.238 176.434 116.702 175.666 117.038C174.914 117.374 174.026 117.542 173.002 117.542ZM183.614 106.334V113.654C183.614 114.15 183.726 114.51 183.95 114.734C184.19 114.942 184.59 115.046 185.15 115.046H186.83V117.326H184.67C183.438 117.326 182.494 117.038 181.838 116.462C181.182 115.886 180.854 114.95 180.854 113.654V106.334H179.294V104.102H180.854V100.814H183.614V104.102H186.83V106.334H183.614ZM194.488 117.542C193.24 117.542 192.112 117.262 191.104 116.702C190.096 116.126 189.304 115.326 188.728 114.302C188.152 113.262 187.864 112.062 187.864 110.702C187.864 109.358 188.16 108.166 188.752 107.126C189.344 106.086 190.152 105.286 191.176 104.726C192.2 104.166 193.344 103.886 194.608 103.886C195.872 103.886 197.016 104.166 198.04 104.726C199.064 105.286 199.872 106.086 200.464 107.126C201.056 108.166 201.352 109.358 201.352 110.702C201.352 112.046 201.048 113.238 200.44 114.278C199.832 115.318 199 116.126 197.944 116.702C196.904 117.262 195.752 117.542 194.488 117.542ZM194.488 115.166C195.192 115.166 195.848 114.998 196.456 114.662C197.08 114.326 197.584 113.822 197.968 113.15C198.352 112.478 198.544 111.662 198.544 110.702C198.544 109.742 198.36 108.934 197.992 108.278C197.624 107.606 197.136 107.102 196.528 106.766C195.92 106.43 195.264 106.262 194.56 106.262C193.856 106.262 193.2 106.43 192.592 106.766C192 107.102 191.528 107.606 191.176 108.278C190.824 108.934 190.648 109.742 190.648 110.702C190.648 112.126 191.008 113.23 191.728 114.014C192.464 114.782 193.384 115.166 194.488 115.166ZM219.464 103.886C220.504 103.886 221.432 104.102 222.248 104.534C223.08 104.966 223.728 105.606 224.192 106.454C224.672 107.302 224.912 108.326 224.912 109.526V117.326H222.2V109.934C222.2 108.75 221.904 107.846 221.312 107.222C220.72 106.582 219.912 106.262 218.888 106.262C217.864 106.262 217.048 106.582 216.44 107.222C215.848 107.846 215.552 108.75 215.552 109.934V117.326H212.84V109.934C212.84 108.75 212.544 107.846 211.952 107.222C211.36 106.582 210.552 106.262 209.528 106.262C208.504 106.262 207.688 106.582 207.08 107.222C206.488 107.846 206.192 108.75 206.192 109.934V117.326H203.456V104.102H206.192V105.614C206.64 105.07 207.208 104.646 207.896 104.342C208.584 104.038 209.32 103.886 210.104 103.886C211.16 103.886 212.104 104.11 212.936 104.558C213.768 105.006 214.408 105.654 214.856 106.502C215.256 105.702 215.88 105.07 216.728 104.606C217.576 104.126 218.488 103.886 219.464 103.886ZM239.914 110.39C239.914 110.886 239.882 111.334 239.818 111.734H229.714C229.794 112.79 230.186 113.638 230.89 114.278C231.594 114.918 232.458 115.238 233.482 115.238C234.954 115.238 235.994 114.622 236.602 113.39H239.554C239.154 114.606 238.426 115.606 237.37 116.39C236.33 117.158 235.034 117.542 233.482 117.542C232.218 117.542 231.082 117.262 230.074 116.702C229.082 116.126 228.298 115.326 227.722 114.302C227.162 113.262 226.882 112.062 226.882 110.702C226.882 109.342 227.154 108.15 227.698 107.126C228.258 106.086 229.034 105.286 230.026 104.726C231.034 104.166 232.186 103.886 233.482 103.886C234.73 103.886 235.842 104.158 236.818 104.702C237.794 105.246 238.554 106.014 239.098 107.006C239.642 107.982 239.914 109.11 239.914 110.39ZM237.058 109.526C237.042 108.518 236.682 107.71 235.978 107.102C235.274 106.494 234.402 106.19 233.362 106.19C232.418 106.19 231.61 106.494 230.938 107.102C230.266 107.694 229.866 108.502 229.738 109.526H237.058ZM244.742 106.022C245.142 105.35 245.67 104.83 246.326 104.462C246.998 104.078 247.79 103.886 248.702 103.886V106.718H248.006C246.934 106.718 246.118 106.99 245.558 107.534C245.014 108.078 244.742 109.022 244.742 110.366V117.326H242.006V104.102H244.742V106.022ZM255.417 117.542C254.377 117.542 253.441 117.358 252.609 116.99C251.793 116.606 251.145 116.094 250.665 115.454C250.185 114.798 249.929 114.07 249.897 113.27H252.729C252.777 113.83 253.041 114.302 253.521 114.686C254.017 115.054 254.633 115.238 255.369 115.238C256.137 115.238 256.729 115.094 257.145 114.806C257.577 114.502 257.793 114.118 257.793 113.654C257.793 113.158 257.553 112.79 257.073 112.55C256.609 112.31 255.865 112.046 254.841 111.758C253.849 111.486 253.041 111.222 252.417 110.966C251.793 110.71 251.249 110.318 250.785 109.79C250.337 109.262 250.113 108.566 250.113 107.702C250.113 106.998 250.321 106.358 250.737 105.782C251.153 105.19 251.745 104.726 252.513 104.39C253.297 104.054 254.193 103.886 255.201 103.886C256.705 103.886 257.913 104.27 258.825 105.038C259.753 105.79 260.249 106.822 260.313 108.134H257.577C257.529 107.542 257.289 107.07 256.857 106.718C256.425 106.366 255.841 106.19 255.105 106.19C254.385 106.19 253.833 106.326 253.449 106.598C253.065 106.87 252.873 107.23 252.873 107.678C252.873 108.03 253.001 108.326 253.257 108.566C253.513 108.806 253.825 108.998 254.193 109.142C254.561 109.27 255.105 109.438 255.825 109.646C256.785 109.902 257.569 110.166 258.177 110.438C258.801 110.694 259.337 111.078 259.785 111.59C260.233 112.102 260.465 112.782 260.481 113.63C260.481 114.382 260.273 115.054 259.857 115.646C259.441 116.238 258.849 116.702 258.081 117.038C257.329 117.374 256.441 117.542 255.417 117.542Z" fill="#131313"/>
<rect x="24.5963" y="24.5963" width="220.125" height="56.0514" rx="28.0257" fill="#D9D9D9" stroke="#C6C6C6" stroke-width="1.19258"/>
<path d="M62.7291 45.5526C62.8817 43.1865 63.7849 41.342 65.4386 40.019C67.1178 38.6961 69.2549 38.0346 71.8499 38.0346C73.6309 38.0346 75.1701 38.3526 76.4676 38.9886C77.7651 39.6247 78.7446 40.4897 79.4061 41.5837C80.0676 42.6777 80.3984 43.9116 80.3984 45.2855C80.3984 46.8629 79.9786 48.2113 79.139 49.3307C78.2994 50.4502 77.2945 51.2007 76.1241 51.5823V51.735C77.6252 52.1929 78.7955 53.0325 79.6351 54.2537C80.4747 55.4495 80.8945 56.9887 80.8945 58.8714C80.8945 60.3724 80.551 61.7081 79.8641 62.8785C79.1772 64.0488 78.1595 64.9774 76.8111 65.6643C75.4627 66.3258 73.8471 66.6566 71.9644 66.6566C69.2167 66.6566 66.9524 65.9569 65.1715 64.5576C63.416 63.1329 62.4746 61.0975 62.3474 58.4516H66.5453C66.6471 59.8 67.1686 60.9067 68.11 61.7717C69.0513 62.6113 70.3234 63.0311 71.9263 63.0311C73.4782 63.0311 74.674 62.6113 75.5135 61.7717C76.3531 60.9067 76.7729 59.8 76.7729 58.4516C76.7729 56.6707 76.2005 55.4113 75.0556 54.6735C73.9362 53.9102 72.2061 53.5286 69.8655 53.5286H68.8732V49.9413H69.9036C71.9644 49.9159 73.5291 49.5724 74.5976 48.9109C75.6916 48.2494 76.2386 47.2063 76.2386 45.7816C76.2386 44.5604 75.8443 43.5936 75.0556 42.8812C74.2669 42.1434 73.1475 41.7745 71.6973 41.7745C70.2725 41.7745 69.1658 42.1434 68.3771 42.8812C67.5884 43.5936 67.1178 44.4841 66.9651 45.5526H62.7291ZM84.5104 52.2311C84.5104 47.8297 85.2482 44.395 86.7238 41.9272C88.2249 39.4339 90.7945 38.1872 94.4327 38.1872C98.0708 38.1872 100.628 39.4339 102.103 41.9272C103.604 44.395 104.355 47.8297 104.355 52.2311C104.355 56.6834 103.604 60.1689 102.103 62.6876C100.628 65.1809 98.0708 66.4276 94.4327 66.4276C90.7945 66.4276 88.2249 65.1809 86.7238 62.6876C85.2482 60.1689 84.5104 56.6834 84.5104 52.2311ZM100.081 52.2311C100.081 50.1703 99.9408 48.4275 99.661 47.0028C99.4065 45.5781 98.8723 44.4205 98.0581 43.53C97.244 42.6141 96.0355 42.1561 94.4327 42.1561C92.8298 42.1561 91.6214 42.6141 90.8072 43.53C89.9931 44.4205 89.4461 45.5781 89.1662 47.0028C88.9118 48.4275 88.7846 50.1703 88.7846 52.2311C88.7846 54.3682 88.9118 56.1618 89.1662 57.612C89.4206 59.0622 89.9549 60.2325 90.7691 61.123C91.6086 62.0134 92.8298 62.4587 94.4327 62.4587C96.0355 62.4587 97.244 62.0134 98.0581 61.123C98.8977 60.2325 99.4447 59.0622 99.6991 57.612C99.9535 56.1618 100.081 54.3682 100.081 52.2311ZM113.347 61.2756L108.729 71.8085H105.905L108.615 61.2756H113.347ZM115.622 52.2311C115.622 47.8297 116.36 44.395 117.835 41.9272C119.336 39.4339 121.906 38.1872 125.544 38.1872C129.182 38.1872 131.739 39.4339 133.215 41.9272C134.716 44.395 135.466 47.8297 135.466 52.2311C135.466 56.6834 134.716 60.1689 133.215 62.6876C131.739 65.1809 129.182 66.4276 125.544 66.4276C121.906 66.4276 119.336 65.1809 117.835 62.6876C116.36 60.1689 115.622 56.6834 115.622 52.2311ZM131.192 52.2311C131.192 50.1703 131.052 48.4275 130.772 47.0028C130.518 45.5781 129.984 44.4205 129.17 43.53C128.355 42.6141 127.147 42.1561 125.544 42.1561C123.941 42.1561 122.733 42.6141 121.919 43.53C121.105 44.4205 120.558 45.5781 120.278 47.0028C120.023 48.4275 119.896 50.1703 119.896 52.2311C119.896 54.3682 120.023 56.1618 120.278 57.612C120.532 59.0622 121.066 60.2325 121.881 61.123C122.72 62.0134 123.941 62.4587 125.544 62.4587C127.147 62.4587 128.355 62.0134 129.17 61.123C130.009 60.2325 130.556 59.0622 130.811 57.612C131.065 56.1618 131.192 54.3682 131.192 52.2311ZM139.116 52.2311C139.116 47.8297 139.854 44.395 141.329 41.9272C142.83 39.4339 145.4 38.1872 149.038 38.1872C152.676 38.1872 155.233 39.4339 156.709 41.9272C158.21 44.395 158.96 47.8297 158.96 52.2311C158.96 56.6834 158.21 60.1689 156.709 62.6876C155.233 65.1809 152.676 66.4276 149.038 66.4276C145.4 66.4276 142.83 65.1809 141.329 62.6876C139.854 60.1689 139.116 56.6834 139.116 52.2311ZM154.686 52.2311C154.686 50.1703 154.546 48.4275 154.266 47.0028C154.012 45.5781 153.478 44.4205 152.664 43.53C151.849 42.6141 150.641 42.1561 149.038 42.1561C147.435 42.1561 146.227 42.6141 145.413 43.53C144.598 44.4205 144.051 45.5781 143.772 47.0028C143.517 48.4275 143.39 50.1703 143.39 52.2311C143.39 54.3682 143.517 56.1618 143.772 57.612C144.026 59.0622 144.56 60.2325 145.374 61.123C146.214 62.0134 147.435 62.4587 149.038 62.4587C150.641 62.4587 151.849 62.0134 152.664 61.123C153.503 60.2325 154.05 59.0622 154.304 57.612C154.559 56.1618 154.686 54.3682 154.686 52.2311ZM162.61 52.2311C162.61 47.8297 163.347 44.395 164.823 41.9272C166.324 39.4339 168.894 38.1872 172.532 38.1872C176.17 38.1872 178.727 39.4339 180.203 41.9272C181.704 44.395 182.454 47.8297 182.454 52.2311C182.454 56.6834 181.704 60.1689 180.203 62.6876C178.727 65.1809 176.17 66.4276 172.532 66.4276C168.894 66.4276 166.324 65.1809 164.823 62.6876C163.347 60.1689 162.61 56.6834 162.61 52.2311ZM178.18 52.2311C178.18 50.1703 178.04 48.4275 177.76 47.0028C177.506 45.5781 176.972 44.4205 176.157 43.53C175.343 42.6141 174.135 42.1561 172.532 42.1561C170.929 42.1561 169.721 42.6141 168.906 43.53C168.092 44.4205 167.545 45.5781 167.265 47.0028C167.011 48.4275 166.884 50.1703 166.884 52.2311C166.884 54.3682 167.011 56.1618 167.265 57.612C167.52 59.0622 168.054 60.2325 168.868 61.123C169.708 62.0134 170.929 62.4587 172.532 62.4587C174.135 62.4587 175.343 62.0134 176.157 61.123C176.997 60.2325 177.544 59.0622 177.798 57.612C178.053 56.1618 178.18 54.3682 178.18 52.2311ZM207.169 54.559H199.46V62.4587H195.415V54.559H187.706V50.8954H195.415V42.9957H199.46V50.8954H207.169V54.559Z" fill="#0A0A0A"/>
<circle cx="108.512" cy="208.5" r="54.0746" fill="#FEB649"/>
<path d="M138.546 217.468C138.546 225.434 135.382 233.074 129.749 238.706C124.116 244.339 116.477 247.503 108.511 247.503C100.546 247.503 92.9061 244.339 87.2735 238.706C81.6409 233.074 78.4766 225.434 78.4766 217.468L108.511 217.468H138.546Z" fill="#E6E6E6"/>
<circle cx="86.7734" cy="189.691" r="8.29688" fill="#E6E6E6"/>
<circle cx="130.25" cy="189.691" r="8.29688" fill="#E6E6E6"/>
<path d="M173.84 145.136C174.619 143.649 176.88 144.374 176.65 146.037L175.753 152.516C175.666 153.142 175.982 153.754 176.541 154.048L182.334 157.085C183.821 157.864 183.096 160.125 181.433 159.895L174.954 158.998C174.328 158.911 173.716 159.226 173.422 159.786L170.385 165.579C169.606 167.066 167.345 166.341 167.575 164.678L168.472 158.199C168.559 157.573 168.244 156.96 167.684 156.667L161.891 153.63C160.404 152.851 161.129 150.59 162.792 150.82L169.271 151.717C169.897 151.804 170.51 151.488 170.803 150.929L173.84 145.136Z" fill="#FEB649"/>
<path d="M33.1884 188.455C33.0405 186.783 35.3343 186.171 36.0395 187.694L38.787 193.63C39.0523 194.203 39.6488 194.548 40.2781 194.492L46.7933 193.916C48.4657 193.768 49.078 196.062 47.5544 196.767L41.6187 199.515C41.0455 199.78 40.7003 200.377 40.756 201.006L41.3322 207.521C41.4801 209.194 39.1863 209.806 38.4811 208.282L35.7336 202.347C35.4683 201.773 34.8718 201.428 34.2425 201.484L27.7272 202.06C26.0549 202.208 25.4426 199.914 26.9662 199.209L32.9018 196.461C33.4751 196.196 33.8203 195.6 33.7646 194.97L33.1884 188.455Z" fill="#FEB649"/>
<path d="M148.458 272.062C148.865 270.433 151.233 270.604 151.401 272.274L152.057 278.782C152.121 279.411 152.571 279.932 153.184 280.085L159.53 281.67C161.159 282.077 160.987 284.445 159.317 284.614L152.809 285.27C152.181 285.333 151.66 285.784 151.507 286.397L149.921 292.742C149.514 294.371 147.146 294.2 146.978 292.53L146.322 286.022C146.258 285.393 145.808 284.872 145.195 284.719L138.849 283.133C137.22 282.727 137.392 280.359 139.062 280.19L145.57 279.534C146.198 279.471 146.719 279.02 146.873 278.407L148.458 272.062Z" fill="#E6E6E6"/>
</g>
<defs>
<clipPath id="clip0_1777_3575">
<rect width="312" height="342.256" rx="24" fill="white"/>
</clipPath>
</defs>
</svg>
