<svg width="368" height="545" viewBox="0 0 368 545" fill="none" xmlns="http://www.w3.org/2000/svg">
<g clip-path="url(#clip0_1610_4191)">
<rect x="1.62891" y="2.16211" width="364.8" height="540.906" rx="28.8" fill="#E6E6E6"/>
<rect x="40.6313" y="41.1625" width="221.494" height="56.4" rx="28.2" fill="#D9D9D9" stroke="#C6C6C6" stroke-width="1.2"/>
<path d="M79.0006 62.0805C79.1542 59.6997 80.063 57.8437 81.727 56.5125C83.4166 55.1813 85.567 54.5157 88.1782 54.5157C89.9702 54.5157 91.519 54.8357 92.8246 55.4757C94.1302 56.1157 95.1158 56.9861 95.7814 58.0869C96.447 59.1877 96.7798 60.4293 96.7798 61.8117C96.7798 63.3989 96.3574 64.7557 95.5126 65.8821C94.6678 67.0085 93.6566 67.7637 92.479 68.1477V68.3013C93.9894 68.7621 95.167 69.6069 96.0118 70.8357C96.8566 72.0389 97.279 73.5877 97.279 75.4821C97.279 76.9925 96.9334 78.3365 96.2422 79.5141C95.551 80.6917 94.527 81.6261 93.1702 82.3173C91.8134 82.9829 90.1878 83.3157 88.2934 83.3157C85.5286 83.3157 83.2502 82.6117 81.4582 81.2037C79.6918 79.7701 78.7446 77.7221 78.6166 75.0597H82.8406C82.943 76.4165 83.4678 77.5301 84.415 78.4005C85.3622 79.2453 86.6422 79.6677 88.255 79.6677C89.8166 79.6677 91.0198 79.2453 91.8646 78.4005C92.7094 77.5301 93.1318 76.4165 93.1318 75.0597C93.1318 73.2677 92.5558 72.0005 91.4038 71.2581C90.2774 70.4901 88.5366 70.1061 86.1814 70.1061H85.183V66.4965H86.2198C88.2934 66.4709 89.8678 66.1253 90.943 65.4597C92.0438 64.7941 92.5942 63.7445 92.5942 62.3109C92.5942 61.0821 92.1974 60.1093 91.4038 59.3925C90.6102 58.6501 89.4838 58.2789 88.0246 58.2789C86.591 58.2789 85.4774 58.6501 84.6838 59.3925C83.8902 60.1093 83.4166 61.0053 83.263 62.0805H79.0006ZM100.917 68.8005C100.917 64.3717 101.66 60.9157 103.145 58.4325C104.655 55.9237 107.241 54.6693 110.901 54.6693C114.562 54.6693 117.135 55.9237 118.62 58.4325C120.13 60.9157 120.885 64.3717 120.885 68.8005C120.885 73.2805 120.13 76.7877 118.62 79.3221C117.135 81.8309 114.562 83.0853 110.901 83.0853C107.241 83.0853 104.655 81.8309 103.145 79.3221C101.66 76.7877 100.917 73.2805 100.917 68.8005ZM116.585 68.8005C116.585 66.7269 116.444 64.9733 116.162 63.5397C115.906 62.1061 115.369 60.9413 114.549 60.0453C113.73 59.1237 112.514 58.6629 110.901 58.6629C109.289 58.6629 108.073 59.1237 107.253 60.0453C106.434 60.9413 105.884 62.1061 105.602 63.5397C105.346 64.9733 105.218 66.7269 105.218 68.8005C105.218 70.9509 105.346 72.7557 105.602 74.2149C105.858 75.6741 106.396 76.8517 107.215 77.7477C108.06 78.6437 109.289 79.0917 110.901 79.0917C112.514 79.0917 113.73 78.6437 114.549 77.7477C115.394 76.8517 115.945 75.6741 116.201 74.2149C116.457 72.7557 116.585 70.9509 116.585 68.8005ZM129.933 77.9013L125.287 88.4997H122.445L125.172 77.9013H129.933ZM132.222 68.8005C132.222 64.3717 132.965 60.9157 134.45 58.4325C135.96 55.9237 138.546 54.6693 142.206 54.6693C145.867 54.6693 148.44 55.9237 149.925 58.4325C151.435 60.9157 152.19 64.3717 152.19 68.8005C152.19 73.2805 151.435 76.7877 149.925 79.3221C148.44 81.8309 145.867 83.0853 142.206 83.0853C138.546 83.0853 135.96 81.8309 134.45 79.3221C132.965 76.7877 132.222 73.2805 132.222 68.8005ZM147.89 68.8005C147.89 66.7269 147.749 64.9733 147.467 63.5397C147.211 62.1061 146.674 60.9413 145.854 60.0453C145.035 59.1237 143.819 58.6629 142.206 58.6629C140.594 58.6629 139.378 59.1237 138.558 60.0453C137.739 60.9413 137.189 62.1061 136.907 63.5397C136.651 64.9733 136.523 66.7269 136.523 68.8005C136.523 70.9509 136.651 72.7557 136.907 74.2149C137.163 75.6741 137.701 76.8517 138.52 77.7477C139.365 78.6437 140.594 79.0917 142.206 79.0917C143.819 79.0917 145.035 78.6437 145.854 77.7477C146.699 76.8517 147.25 75.6741 147.506 74.2149C147.762 72.7557 147.89 70.9509 147.89 68.8005ZM155.862 68.8005C155.862 64.3717 156.605 60.9157 158.09 58.4325C159.6 55.9237 162.186 54.6693 165.846 54.6693C169.507 54.6693 172.08 55.9237 173.565 58.4325C175.075 60.9157 175.83 64.3717 175.83 68.8005C175.83 73.2805 175.075 76.7877 173.565 79.3221C172.08 81.8309 169.507 83.0853 165.846 83.0853C162.186 83.0853 159.6 81.8309 158.09 79.3221C156.605 76.7877 155.862 73.2805 155.862 68.8005ZM171.53 68.8005C171.53 66.7269 171.389 64.9733 171.107 63.5397C170.851 62.1061 170.314 60.9413 169.494 60.0453C168.675 59.1237 167.459 58.6629 165.846 58.6629C164.234 58.6629 163.018 59.1237 162.198 60.0453C161.379 60.9413 160.829 62.1061 160.547 63.5397C160.291 64.9733 160.163 66.7269 160.163 68.8005C160.163 70.9509 160.291 72.7557 160.547 74.2149C160.803 75.6741 161.341 76.8517 162.16 77.7477C163.005 78.6437 164.234 79.0917 165.846 79.0917C167.459 79.0917 168.675 78.6437 169.494 77.7477C170.339 76.8517 170.89 75.6741 171.146 74.2149C171.402 72.7557 171.53 70.9509 171.53 68.8005ZM179.502 68.8005C179.502 64.3717 180.245 60.9157 181.73 58.4325C183.24 55.9237 185.826 54.6693 189.486 54.6693C193.147 54.6693 195.72 55.9237 197.205 58.4325C198.715 60.9157 199.47 64.3717 199.47 68.8005C199.47 73.2805 198.715 76.7877 197.205 79.3221C195.72 81.8309 193.147 83.0853 189.486 83.0853C185.826 83.0853 183.24 81.8309 181.73 79.3221C180.245 76.7877 179.502 73.2805 179.502 68.8005ZM195.17 68.8005C195.17 66.7269 195.029 64.9733 194.747 63.5397C194.491 62.1061 193.954 60.9413 193.134 60.0453C192.315 59.1237 191.099 58.6629 189.486 58.6629C187.874 58.6629 186.658 59.1237 185.838 60.0453C185.019 60.9413 184.469 62.1061 184.187 63.5397C183.931 64.9733 183.803 66.7269 183.803 68.8005C183.803 70.9509 183.931 72.7557 184.187 74.2149C184.443 75.6741 184.981 76.8517 185.8 77.7477C186.645 78.6437 187.874 79.0917 189.486 79.0917C191.099 79.0917 192.315 78.6437 193.134 77.7477C193.979 76.8517 194.53 75.6741 194.786 74.2149C195.042 72.7557 195.17 70.9509 195.17 68.8005ZM224.339 71.1429H216.582V79.0917H212.512V71.1429H204.755V67.4565H212.512V59.5077H216.582V67.4565H224.339V71.1429Z" fill="#0A0A0A"/>
<path d="M48.7825 137.563C47.4385 137.563 46.2289 137.333 45.1537 136.872C44.0785 136.392 43.2337 135.72 42.6193 134.856C42.0049 133.992 41.6977 132.984 41.6977 131.832H45.2113C45.2881 132.696 45.6241 133.406 46.2193 133.963C46.8337 134.52 47.6881 134.798 48.7825 134.798C49.9153 134.798 50.7985 134.529 51.4321 133.992C52.0657 133.435 52.3825 132.725 52.3825 131.861C52.3825 131.189 52.1809 130.641 51.7777 130.219C51.3937 129.797 50.9041 129.47 50.3089 129.24C49.7329 129.009 48.9265 128.76 47.8897 128.491C46.5841 128.145 45.5185 127.8 44.6929 127.454C43.8865 127.089 43.1953 126.533 42.6193 125.784C42.0433 125.035 41.7553 124.037 41.7553 122.789C41.7553 121.637 42.0433 120.629 42.6193 119.765C43.1953 118.901 44.0017 118.238 45.0385 117.777C46.0753 117.317 47.2753 117.086 48.6385 117.086C50.5777 117.086 52.1617 117.576 53.3905 118.555C54.6385 119.515 55.3297 120.84 55.4641 122.529H51.8353C51.7777 121.8 51.4321 121.176 50.7985 120.657C50.1649 120.139 49.3297 119.88 48.2929 119.88C47.3521 119.88 46.5841 120.12 45.9889 120.6C45.3937 121.08 45.0961 121.771 45.0961 122.673C45.0961 123.288 45.2785 123.797 45.6433 124.2C46.0273 124.584 46.5073 124.891 47.0833 125.121C47.6593 125.352 48.4465 125.601 49.4449 125.87C50.7697 126.235 51.8449 126.6 52.6705 126.965C53.5153 127.329 54.2257 127.896 54.8017 128.664C55.3969 129.413 55.6945 130.421 55.6945 131.688C55.6945 132.705 55.4161 133.665 54.8593 134.568C54.3217 135.47 53.5249 136.2 52.4689 136.757C51.4321 137.294 50.2033 137.563 48.7825 137.563ZM78.0582 121.233C79.3062 121.233 80.4198 121.493 81.399 122.011C82.3974 122.529 83.175 123.297 83.7318 124.315C84.3078 125.333 84.5958 126.561 84.5958 128.001V137.361H81.3414V128.491C81.3414 127.07 80.9862 125.985 80.2758 125.237C79.5654 124.469 78.5958 124.085 77.367 124.085C76.1382 124.085 75.159 124.469 74.4294 125.237C73.719 125.985 73.3638 127.07 73.3638 128.491V137.361H70.1094V128.491C70.1094 127.07 69.7542 125.985 69.0438 125.237C68.3334 124.469 67.3638 124.085 66.135 124.085C64.9062 124.085 63.927 124.469 63.1974 125.237C62.487 125.985 62.1318 127.07 62.1318 128.491V137.361H58.8486V121.493H62.1318V123.307C62.6694 122.654 63.351 122.145 64.1766 121.781C65.0022 121.416 65.8854 121.233 66.8262 121.233C68.0934 121.233 69.2262 121.502 70.2246 122.04C71.223 122.577 71.991 123.355 72.5286 124.373C73.0086 123.413 73.7574 122.654 74.775 122.097C75.7926 121.521 76.887 121.233 78.0582 121.233ZM89.724 119.39C89.1288 119.39 88.6296 119.189 88.2264 118.785C87.8232 118.382 87.6216 117.883 87.6216 117.288C87.6216 116.693 87.8232 116.193 88.2264 115.79C88.6296 115.387 89.1288 115.185 89.724 115.185C90.3 115.185 90.7896 115.387 91.1928 115.79C91.596 116.193 91.7976 116.693 91.7976 117.288C91.7976 117.883 91.596 118.382 91.1928 118.785C90.7896 119.189 90.3 119.39 89.724 119.39ZM91.3368 121.493V137.361H88.0536V121.493H91.3368ZM98.2105 116.049V137.361H94.9273V116.049H98.2105ZM116.345 129.038C116.345 129.633 116.307 130.171 116.23 130.651H104.105C104.201 131.918 104.671 132.936 105.516 133.704C106.361 134.472 107.398 134.856 108.627 134.856C110.393 134.856 111.641 134.117 112.371 132.638H115.913C115.433 134.097 114.559 135.297 113.292 136.238C112.044 137.16 110.489 137.621 108.627 137.621C107.11 137.621 105.747 137.285 104.537 136.613C103.347 135.921 102.406 134.961 101.715 133.733C101.043 132.485 100.707 131.045 100.707 129.413C100.707 127.781 101.033 126.35 101.686 125.121C102.358 123.873 103.289 122.913 104.479 122.241C105.689 121.569 107.071 121.233 108.627 121.233C110.124 121.233 111.459 121.56 112.63 122.213C113.801 122.865 114.713 123.787 115.366 124.977C116.019 126.149 116.345 127.502 116.345 129.038ZM112.918 128.001C112.899 126.792 112.467 125.822 111.622 125.093C110.777 124.363 109.731 123.998 108.483 123.998C107.35 123.998 106.38 124.363 105.574 125.093C104.767 125.803 104.287 126.773 104.134 128.001H112.918ZM124.616 137.621C123.368 137.621 122.245 137.4 121.246 136.958C120.267 136.497 119.49 135.883 118.914 135.115C118.338 134.328 118.03 133.454 117.992 132.494H121.39C121.448 133.166 121.765 133.733 122.341 134.193C122.936 134.635 123.675 134.856 124.558 134.856C125.48 134.856 126.19 134.683 126.69 134.337C127.208 133.973 127.467 133.512 127.467 132.955C127.467 132.36 127.179 131.918 126.603 131.63C126.046 131.342 125.154 131.025 123.925 130.68C122.734 130.353 121.765 130.037 121.016 129.729C120.267 129.422 119.614 128.952 119.058 128.318C118.52 127.685 118.251 126.849 118.251 125.813C118.251 124.968 118.501 124.2 119 123.509C119.499 122.798 120.21 122.241 121.131 121.838C122.072 121.435 123.147 121.233 124.357 121.233C126.162 121.233 127.611 121.694 128.706 122.616C129.819 123.518 130.414 124.757 130.491 126.331H127.208C127.15 125.621 126.862 125.054 126.344 124.632C125.826 124.209 125.125 123.998 124.242 123.998C123.378 123.998 122.715 124.161 122.254 124.488C121.794 124.814 121.563 125.246 121.563 125.784C121.563 126.206 121.717 126.561 122.024 126.849C122.331 127.137 122.706 127.368 123.147 127.541C123.589 127.694 124.242 127.896 125.106 128.145C126.258 128.453 127.198 128.769 127.928 129.096C128.677 129.403 129.32 129.864 129.858 130.478C130.395 131.093 130.674 131.909 130.693 132.926C130.693 133.829 130.443 134.635 129.944 135.345C129.445 136.056 128.734 136.613 127.813 137.016C126.91 137.419 125.845 137.621 124.616 137.621ZM147.165 137.621C145.667 137.621 144.314 137.285 143.104 136.613C141.895 135.921 140.944 134.961 140.253 133.733C139.562 132.485 139.216 131.045 139.216 129.413C139.216 127.8 139.571 126.369 140.282 125.121C140.992 123.873 141.962 122.913 143.191 122.241C144.419 121.569 145.792 121.233 147.309 121.233C148.826 121.233 150.199 121.569 151.427 122.241C152.656 122.913 153.626 123.873 154.336 125.121C155.047 126.369 155.402 127.8 155.402 129.413C155.402 131.025 155.037 132.456 154.307 133.704C153.578 134.952 152.579 135.921 151.312 136.613C150.064 137.285 148.682 137.621 147.165 137.621ZM147.165 134.769C148.01 134.769 148.797 134.568 149.527 134.165C150.275 133.761 150.88 133.157 151.341 132.35C151.802 131.544 152.032 130.565 152.032 129.413C152.032 128.261 151.811 127.291 151.37 126.504C150.928 125.697 150.343 125.093 149.613 124.689C148.883 124.286 148.096 124.085 147.251 124.085C146.407 124.085 145.619 124.286 144.89 124.689C144.179 125.093 143.613 125.697 143.191 126.504C142.768 127.291 142.557 128.261 142.557 129.413C142.557 131.121 142.989 132.446 143.853 133.387C144.736 134.309 145.84 134.769 147.165 134.769ZM164.58 124.171H161.643V137.361H158.331V124.171H156.459V121.493H158.331V120.369C158.331 118.545 158.811 117.221 159.771 116.395C160.75 115.55 162.276 115.128 164.35 115.128V117.864C163.351 117.864 162.651 118.056 162.247 118.44C161.844 118.805 161.643 119.448 161.643 120.369V121.493H164.58V124.171ZM172.437 127.31C172.437 125.352 172.888 123.595 173.79 122.04C174.712 120.485 175.95 119.275 177.505 118.411C179.08 117.528 180.798 117.086 182.661 117.086C184.792 117.086 186.683 117.614 188.334 118.67C190.005 119.707 191.214 121.185 191.963 123.105H188.017C187.499 122.049 186.779 121.262 185.857 120.744C184.936 120.225 183.87 119.966 182.661 119.966C181.336 119.966 180.155 120.264 179.118 120.859C178.081 121.454 177.265 122.309 176.67 123.422C176.094 124.536 175.806 125.832 175.806 127.31C175.806 128.789 176.094 130.085 176.67 131.198C177.265 132.312 178.081 133.176 179.118 133.79C180.155 134.385 181.336 134.683 182.661 134.683C183.87 134.683 184.936 134.424 185.857 133.905C186.779 133.387 187.499 132.6 188.017 131.544H191.963C191.214 133.464 190.005 134.942 188.334 135.979C186.683 137.016 184.792 137.534 182.661 137.534C180.779 137.534 179.061 137.102 177.505 136.238C175.95 135.355 174.712 134.136 173.79 132.581C172.888 131.025 172.437 129.269 172.437 127.31ZM209.457 121.493V137.361H206.174V135.489C205.656 136.142 204.974 136.661 204.129 137.045C203.304 137.409 202.421 137.592 201.48 137.592C200.232 137.592 199.109 137.333 198.11 136.814C197.131 136.296 196.353 135.528 195.777 134.51C195.221 133.493 194.942 132.264 194.942 130.824V121.493H198.197V130.334C198.197 131.755 198.552 132.849 199.262 133.617C199.973 134.366 200.942 134.741 202.171 134.741C203.4 134.741 204.369 134.366 205.08 133.617C205.809 132.849 206.174 131.755 206.174 130.334V121.493H209.457ZM218.829 137.621C217.581 137.621 216.458 137.4 215.46 136.958C214.48 136.497 213.703 135.883 213.127 135.115C212.551 134.328 212.244 133.454 212.205 132.494H215.604C215.661 133.166 215.978 133.733 216.554 134.193C217.149 134.635 217.888 134.856 218.772 134.856C219.693 134.856 220.404 134.683 220.903 134.337C221.421 133.973 221.68 133.512 221.68 132.955C221.68 132.36 221.392 131.918 220.816 131.63C220.26 131.342 219.367 131.025 218.138 130.68C216.948 130.353 215.978 130.037 215.229 129.729C214.48 129.422 213.828 128.952 213.271 128.318C212.733 127.685 212.464 126.849 212.464 125.813C212.464 124.968 212.714 124.2 213.213 123.509C213.712 122.798 214.423 122.241 215.344 121.838C216.285 121.435 217.36 121.233 218.57 121.233C220.375 121.233 221.824 121.694 222.919 122.616C224.032 123.518 224.628 124.757 224.704 126.331H221.421C221.364 125.621 221.076 125.054 220.557 124.632C220.039 124.209 219.338 123.998 218.455 123.998C217.591 123.998 216.928 124.161 216.468 124.488C216.007 124.814 215.776 125.246 215.776 125.784C215.776 126.206 215.93 126.561 216.237 126.849C216.544 127.137 216.919 127.368 217.36 127.541C217.802 127.694 218.455 127.896 219.319 128.145C220.471 128.453 221.412 128.769 222.141 129.096C222.89 129.403 223.533 129.864 224.071 130.478C224.608 131.093 224.887 131.909 224.906 132.926C224.906 133.829 224.656 134.635 224.157 135.345C223.658 136.056 222.948 136.613 222.026 137.016C221.124 137.419 220.058 137.621 218.829 137.621ZM231.564 124.171V132.955C231.564 133.55 231.698 133.982 231.967 134.251C232.255 134.501 232.735 134.625 233.407 134.625H235.423V137.361H232.831C231.353 137.361 230.22 137.016 229.433 136.325C228.646 135.633 228.252 134.51 228.252 132.955V124.171H226.38V121.493H228.252V117.547H231.564V121.493H235.423V124.171H231.564ZM244.612 137.621C243.115 137.621 241.761 137.285 240.552 136.613C239.342 135.921 238.392 134.961 237.7 133.733C237.009 132.485 236.664 131.045 236.664 129.413C236.664 127.8 237.019 126.369 237.729 125.121C238.44 123.873 239.409 122.913 240.638 122.241C241.867 121.569 243.24 121.233 244.756 121.233C246.273 121.233 247.646 121.569 248.875 122.241C250.104 122.913 251.073 123.873 251.784 125.121C252.494 126.369 252.849 127.8 252.849 129.413C252.849 131.025 252.484 132.456 251.755 133.704C251.025 134.952 250.027 135.921 248.76 136.613C247.512 137.285 246.129 137.621 244.612 137.621ZM244.612 134.769C245.457 134.769 246.244 134.568 246.974 134.165C247.723 133.761 248.328 133.157 248.788 132.35C249.249 131.544 249.48 130.565 249.48 129.413C249.48 128.261 249.259 127.291 248.817 126.504C248.376 125.697 247.79 125.093 247.06 124.689C246.331 124.286 245.544 124.085 244.699 124.085C243.854 124.085 243.067 124.286 242.337 124.689C241.627 125.093 241.06 125.697 240.638 126.504C240.216 127.291 240.004 128.261 240.004 129.413C240.004 131.121 240.436 132.446 241.3 133.387C242.184 134.309 243.288 134.769 244.612 134.769ZM274.584 121.233C275.832 121.233 276.946 121.493 277.925 122.011C278.924 122.529 279.701 123.297 280.258 124.315C280.834 125.333 281.122 126.561 281.122 128.001V137.361H277.868V128.491C277.868 127.07 277.512 125.985 276.802 125.237C276.092 124.469 275.122 124.085 273.893 124.085C272.664 124.085 271.685 124.469 270.956 125.237C270.245 125.985 269.89 127.07 269.89 128.491V137.361H266.636V128.491C266.636 127.07 266.28 125.985 265.57 125.237C264.86 124.469 263.89 124.085 262.661 124.085C261.432 124.085 260.453 124.469 259.724 125.237C259.013 125.985 258.658 127.07 258.658 128.491V137.361H255.375V121.493H258.658V123.307C259.196 122.654 259.877 122.145 260.703 121.781C261.528 121.416 262.412 121.233 263.352 121.233C264.62 121.233 265.752 121.502 266.751 122.04C267.749 122.577 268.517 123.355 269.055 124.373C269.535 123.413 270.284 122.654 271.301 122.097C272.319 121.521 273.413 121.233 274.584 121.233ZM299.124 129.038C299.124 129.633 299.085 130.171 299.009 130.651H286.884C286.98 131.918 287.45 132.936 288.295 133.704C289.14 134.472 290.177 134.856 291.405 134.856C293.172 134.856 294.42 134.117 295.149 132.638H298.692C298.212 134.097 297.338 135.297 296.071 136.238C294.823 137.16 293.268 137.621 291.405 137.621C289.889 137.621 288.525 137.285 287.316 136.613C286.125 135.921 285.185 134.961 284.493 133.733C283.821 132.485 283.485 131.045 283.485 129.413C283.485 127.781 283.812 126.35 284.465 125.121C285.137 123.873 286.068 122.913 287.258 122.241C288.468 121.569 289.85 121.233 291.405 121.233C292.903 121.233 294.237 121.56 295.409 122.213C296.58 122.865 297.492 123.787 298.145 124.977C298.797 126.149 299.124 127.502 299.124 129.038ZM295.697 128.001C295.677 126.792 295.245 125.822 294.401 125.093C293.556 124.363 292.509 123.998 291.261 123.998C290.129 123.998 289.159 124.363 288.353 125.093C287.546 125.803 287.066 126.773 286.913 128.001H295.697ZM304.918 123.797C305.398 122.99 306.032 122.366 306.819 121.925C307.625 121.464 308.576 121.233 309.67 121.233V124.632H308.835C307.548 124.632 306.569 124.958 305.897 125.611C305.244 126.264 304.918 127.397 304.918 129.009V137.361H301.635V121.493H304.918V123.797ZM317.728 137.621C316.48 137.621 315.357 137.4 314.358 136.958C313.379 136.497 312.602 135.883 312.026 135.115C311.45 134.328 311.142 133.454 311.104 132.494H314.502C314.56 133.166 314.877 133.733 315.453 134.193C316.048 134.635 316.787 134.856 317.67 134.856C318.592 134.856 319.302 134.683 319.802 134.337C320.32 133.973 320.579 133.512 320.579 132.955C320.579 132.36 320.291 131.918 319.715 131.63C319.158 131.342 318.266 131.025 317.037 130.68C315.846 130.353 314.877 130.037 314.128 129.729C313.379 129.422 312.726 128.952 312.17 128.318C311.632 127.685 311.363 126.849 311.363 125.813C311.363 124.968 311.613 124.2 312.112 123.509C312.611 122.798 313.322 122.241 314.243 121.838C315.184 121.435 316.259 121.233 317.469 121.233C319.274 121.233 320.723 121.694 321.818 122.616C322.931 123.518 323.526 124.757 323.603 126.331H320.32C320.262 125.621 319.974 125.054 319.456 124.632C318.938 124.209 318.237 123.998 317.354 123.998C316.49 123.998 315.827 124.161 315.366 124.488C314.906 124.814 314.675 125.246 314.675 125.784C314.675 126.206 314.829 126.561 315.136 126.849C315.443 127.137 315.818 127.368 316.259 127.541C316.701 127.694 317.354 127.896 318.218 128.145C319.37 128.453 320.31 128.769 321.04 129.096C321.789 129.403 322.432 129.864 322.97 130.478C323.507 131.093 323.786 131.909 323.805 132.926C323.805 133.829 323.555 134.635 323.056 135.345C322.557 136.056 321.846 136.613 320.925 137.016C320.022 137.419 318.957 137.621 317.728 137.621Z" fill="#131313"/>
<path d="M149.33 369.635C150.591 369.174 151.54 370.818 150.51 371.68L146.495 375.036C146.108 375.36 145.965 375.892 146.139 376.367L147.937 381.281C148.399 382.542 146.754 383.491 145.893 382.461L142.537 378.446C142.213 378.059 141.68 377.916 141.206 378.09L136.292 379.888C135.031 380.35 134.081 378.705 135.112 377.844L139.127 374.488C139.514 374.164 139.657 373.631 139.483 373.157L137.684 368.243C137.223 366.982 138.868 366.032 139.729 367.063L143.085 371.078C143.409 371.465 143.941 371.608 144.416 371.434L149.33 369.635Z" fill="#FEB649"/>
<path d="M160.563 382.723C161.905 382.778 162.154 384.661 160.872 385.063L155.88 386.63C155.398 386.782 155.062 387.219 155.041 387.724L154.826 392.952C154.771 394.294 152.888 394.543 152.486 393.262L150.919 388.269C150.767 387.787 150.33 387.452 149.825 387.431L144.597 387.215C143.255 387.16 143.006 385.277 144.287 384.875L149.28 383.308C149.762 383.157 150.097 382.719 150.118 382.214L150.334 376.986C150.389 375.644 152.272 375.395 152.674 376.677L154.241 381.669C154.392 382.151 154.83 382.487 155.335 382.508L160.563 382.723Z" fill="#FEB649"/>
<path d="M165.521 385.761C166.536 386.64 165.558 388.268 164.305 387.784L159.424 385.899C158.952 385.717 158.417 385.85 158.086 386.232L154.661 390.188C153.781 391.203 152.153 390.224 152.637 388.971L154.522 384.09C154.704 383.619 154.571 383.084 154.189 382.753L150.234 379.327C149.218 378.448 150.197 376.82 151.45 377.304L156.331 379.189C156.802 379.371 157.337 379.237 157.668 378.855L161.094 374.9C161.974 373.885 163.601 374.863 163.118 376.116L161.233 380.997C161.051 381.469 161.184 382.004 161.566 382.335L165.521 385.761Z" fill="#FEB649"/>
<circle cx="148.076" cy="380.494" r="43.2597" fill="#FEB649"/>
<path d="M172.102 387.668C172.102 394.041 169.571 400.153 165.065 404.659C160.559 409.165 154.447 411.696 148.075 411.696C141.702 411.696 135.591 409.165 131.084 404.659C126.578 400.153 124.047 394.041 124.047 387.668L148.075 387.668H172.102Z" fill="#E6E6E6"/>
<circle cx="130.684" cy="365.446" r="6.6375" fill="#E6E6E6"/>
<circle cx="165.466" cy="365.446" r="6.6375" fill="#E6E6E6"/>
<path d="M-1036.45 326.373C-1151.49 270.707 -1164.8 462.51 -1157.07 541.37L-1160.49 549.091H439.757C459.119 576.275 497.219 554.124 494.724 440.048C491.606 297.454 474.711 385.966 344.013 291.322C213.314 196.679 130.689 391.975 27.0311 440.048C-76.6265 488.121 -150.485 382.04 -173.679 310.139C-196.873 238.237 -261.816 300.861 -326.759 358.846C-391.702 416.831 -527.887 351.886 -616.024 326.373C-704.161 300.86 -780.067 317.097 -826.455 358.846C-872.843 400.595 -892.652 395.955 -1036.45 326.373Z" fill="#ED7D31"/>
<rect x="1.62891" y="515.58" width="364.8" height="27.4875" fill="#171717"/>
</g>
<rect x="1.62891" y="2.16211" width="364.8" height="540.906" rx="28.8" stroke="#131313" stroke-width="2.4"/>
<defs>
<clipPath id="clip0_1610_4191">
<rect x="1.62891" y="2.16211" width="364.8" height="540.906" rx="28.8" fill="white"/>
</clipPath>
</defs>
</svg>
