<svg width="19" height="19" viewBox="0 0 19 19" fill="none" xmlns="http://www.w3.org/2000/svg">
<path d="M8.13665 1.29398C8.36739 -0.0291262 10.2666 -0.0291228 10.4974 1.29399L11.3963 6.44875C11.4831 6.9466 11.873 7.33645 12.3708 7.42327L17.5256 8.3222C18.8487 8.55293 18.8487 10.4522 17.5256 10.6829L12.3708 11.5818C11.873 11.6687 11.4831 12.0585 11.3963 12.5564L10.4974 17.7111C10.2666 19.0342 8.36739 19.0342 8.13665 17.7111L7.23772 12.5564C7.15091 12.0585 6.76105 11.6687 6.2632 11.5818L1.10844 10.6829C-0.214673 10.4522 -0.21467 8.55293 1.10844 8.3222L6.26321 7.42327C6.76106 7.33645 7.15091 6.9466 7.23772 6.44875L8.13665 1.29398Z" fill="white"/>
</svg>
