<svg width="312" height="343" viewBox="0 0 312 343" fill="none" xmlns="http://www.w3.org/2000/svg">
<g clip-path="url(#clip0_1777_3477)">
<rect width="312" height="342.256" rx="24" fill="#FEB649"/>
<path d="M66.472 199.121C-30.8881 152.01 -42.1449 314.334 -35.6033 381.074L-38.5 387.608H1315.8C1332.19 410.614 1364.43 391.867 1362.32 295.325C1359.68 174.647 1345.38 249.555 1234.77 169.457C1124.16 89.3592 1054.23 254.64 966.507 295.325C878.78 336.009 816.274 246.232 796.644 185.381C777.015 124.53 722.053 177.529 667.091 226.603C612.129 275.676 496.875 220.713 422.284 199.12C347.693 177.528 283.453 191.27 244.195 226.603C204.936 261.935 188.172 258.008 66.472 199.121Z" fill="#542A29"/>
<path d="M25.68 127.198V129.528H28.22V130.278H25.68V132.678H28.52V133.428H24.77V126.448H28.52V127.198H25.68ZM31.587 133.518C31.167 133.518 30.7903 133.448 30.457 133.308C30.1236 133.161 29.8603 132.961 29.667 132.708C29.4736 132.448 29.367 132.151 29.347 131.818H30.287C30.3136 132.091 30.4403 132.314 30.667 132.488C30.9003 132.661 31.2036 132.748 31.577 132.748C31.9236 132.748 32.197 132.671 32.397 132.518C32.597 132.364 32.697 132.171 32.697 131.938C32.697 131.698 32.5903 131.521 32.377 131.408C32.1636 131.288 31.8336 131.171 31.387 131.058C30.9803 130.951 30.647 130.844 30.387 130.738C30.1336 130.624 29.9136 130.461 29.727 130.248C29.547 130.028 29.457 129.741 29.457 129.388C29.457 129.108 29.5403 128.851 29.707 128.618C29.8736 128.384 30.1103 128.201 30.417 128.068C30.7236 127.928 31.0736 127.858 31.467 127.858C32.0736 127.858 32.5636 128.011 32.937 128.318C33.3103 128.624 33.5103 129.044 33.537 129.578H32.627C32.607 129.291 32.4903 129.061 32.277 128.888C32.0703 128.714 31.7903 128.628 31.437 128.628C31.1103 128.628 30.8503 128.698 30.657 128.838C30.4636 128.978 30.367 129.161 30.367 129.388C30.367 129.568 30.4236 129.718 30.537 129.838C30.657 129.951 30.8036 130.044 30.977 130.118C31.157 130.184 31.4036 130.261 31.717 130.348C32.1103 130.454 32.4303 130.561 32.677 130.668C32.9236 130.768 33.1336 130.921 33.307 131.128C33.487 131.334 33.5803 131.604 33.587 131.938C33.587 132.238 33.5036 132.508 33.337 132.748C33.1703 132.988 32.9336 133.178 32.627 133.318C32.327 133.451 31.9803 133.518 31.587 133.518ZM35.7316 128.698V131.928C35.7316 132.194 35.7882 132.384 35.9016 132.498C36.0149 132.604 36.2116 132.658 36.4916 132.658H37.1616V133.428H36.3416C35.8349 133.428 35.4549 133.311 35.2016 133.078C34.9482 132.844 34.8216 132.461 34.8216 131.928V128.698H34.1116V127.948H34.8216V126.568H35.7316V127.948H37.1616V128.698H35.7316ZM37.6741 130.668C37.6741 130.108 37.7875 129.618 38.0141 129.198C38.2408 128.771 38.5508 128.441 38.9441 128.208C39.3441 127.974 39.7875 127.858 40.2741 127.858C40.7541 127.858 41.1708 127.961 41.5241 128.168C41.8775 128.374 42.1408 128.634 42.3141 128.948V127.948H43.2341V133.428H42.3141V132.408C42.1341 132.728 41.8641 132.994 41.5041 133.208C41.1508 133.414 40.7375 133.518 40.2641 133.518C39.7775 133.518 39.3375 133.398 38.9441 133.158C38.5508 132.918 38.2408 132.581 38.0141 132.148C37.7875 131.714 37.6741 131.221 37.6741 130.668ZM42.3141 130.678C42.3141 130.264 42.2308 129.904 42.0641 129.598C41.8975 129.291 41.6708 129.058 41.3841 128.898C41.1041 128.731 40.7941 128.648 40.4541 128.648C40.1141 128.648 39.8041 128.728 39.5241 128.888C39.2441 129.048 39.0208 129.281 38.8541 129.588C38.6875 129.894 38.6041 130.254 38.6041 130.668C38.6041 131.088 38.6875 131.454 38.8541 131.768C39.0208 132.074 39.2441 132.311 39.5241 132.478C39.8041 132.638 40.1141 132.718 40.4541 132.718C40.7941 132.718 41.1041 132.638 41.3841 132.478C41.6708 132.311 41.8975 132.074 42.0641 131.768C42.2308 131.454 42.3141 131.091 42.3141 130.678ZM45.432 128.968C45.6186 128.641 45.892 128.374 46.252 128.168C46.612 127.961 47.022 127.858 47.482 127.858C47.9753 127.858 48.4186 127.974 48.812 128.208C49.2053 128.441 49.5153 128.771 49.742 129.198C49.9686 129.618 50.082 130.108 50.082 130.668C50.082 131.221 49.9686 131.714 49.742 132.148C49.5153 132.581 49.202 132.918 48.802 133.158C48.4086 133.398 47.9686 133.518 47.482 133.518C47.0086 133.518 46.592 133.414 46.232 133.208C45.8786 133.001 45.612 132.738 45.432 132.418V133.428H44.522V126.028H45.432V128.968ZM49.152 130.668C49.152 130.254 49.0686 129.894 48.902 129.588C48.7353 129.281 48.5086 129.048 48.222 128.888C47.942 128.728 47.632 128.648 47.292 128.648C46.9586 128.648 46.6486 128.731 46.362 128.898C46.082 129.058 45.8553 129.294 45.682 129.608C45.5153 129.914 45.432 130.271 45.432 130.678C45.432 131.091 45.5153 131.454 45.682 131.768C45.8553 132.074 46.082 132.311 46.362 132.478C46.6486 132.638 46.9586 132.718 47.292 132.718C47.632 132.718 47.942 132.638 48.222 132.478C48.5086 132.311 48.7353 132.074 48.902 131.768C49.0686 131.454 49.152 131.088 49.152 130.668ZM51.9398 126.028V133.428H51.0298V126.028H51.9398ZM53.7107 127.058C53.5374 127.058 53.3907 126.998 53.2707 126.878C53.1507 126.758 53.0907 126.611 53.0907 126.438C53.0907 126.264 53.1507 126.118 53.2707 125.998C53.3907 125.878 53.5374 125.818 53.7107 125.818C53.8774 125.818 54.0174 125.878 54.1307 125.998C54.2507 126.118 54.3107 126.264 54.3107 126.438C54.3107 126.611 54.2507 126.758 54.1307 126.878C54.0174 126.998 53.8774 127.058 53.7107 127.058ZM54.1507 127.948V133.428H53.2407V127.948H54.1507ZM57.3916 133.518C56.9716 133.518 56.595 133.448 56.2616 133.308C55.9283 133.161 55.665 132.961 55.4716 132.708C55.2783 132.448 55.1716 132.151 55.1516 131.818H56.0916C56.1183 132.091 56.245 132.314 56.4716 132.488C56.705 132.661 57.0083 132.748 57.3816 132.748C57.7283 132.748 58.0016 132.671 58.2016 132.518C58.4016 132.364 58.5016 132.171 58.5016 131.938C58.5016 131.698 58.395 131.521 58.1816 131.408C57.9683 131.288 57.6383 131.171 57.1916 131.058C56.785 130.951 56.4516 130.844 56.1916 130.738C55.9383 130.624 55.7183 130.461 55.5316 130.248C55.3516 130.028 55.2616 129.741 55.2616 129.388C55.2616 129.108 55.345 128.851 55.5116 128.618C55.6783 128.384 55.915 128.201 56.2216 128.068C56.5283 127.928 56.8783 127.858 57.2716 127.858C57.8783 127.858 58.3683 128.011 58.7416 128.318C59.115 128.624 59.315 129.044 59.3416 129.578H58.4316C58.4116 129.291 58.295 129.061 58.0816 128.888C57.875 128.714 57.595 128.628 57.2416 128.628C56.915 128.628 56.655 128.698 56.4616 128.838C56.2683 128.978 56.1716 129.161 56.1716 129.388C56.1716 129.568 56.2283 129.718 56.3416 129.838C56.4616 129.951 56.6083 130.044 56.7816 130.118C56.9616 130.184 57.2083 130.261 57.5216 130.348C57.915 130.454 58.235 130.561 58.4816 130.668C58.7283 130.768 58.9383 130.921 59.1116 131.128C59.2916 131.334 59.385 131.604 59.3916 131.938C59.3916 132.238 59.3083 132.508 59.1416 132.748C58.975 132.988 58.7383 133.178 58.4316 133.318C58.1316 133.451 57.785 133.518 57.3916 133.518ZM63.1463 127.848C63.5596 127.848 63.9329 127.938 64.2663 128.118C64.5996 128.291 64.8596 128.554 65.0463 128.908C65.2396 129.261 65.3363 129.691 65.3363 130.198V133.428H64.4363V130.328C64.4363 129.781 64.2996 129.364 64.0263 129.078C63.7529 128.784 63.3796 128.638 62.9063 128.638C62.4263 128.638 62.0429 128.788 61.7563 129.088C61.4763 129.388 61.3363 129.824 61.3363 130.398V133.428H60.4263V126.028H61.3363V128.728C61.5163 128.448 61.7629 128.231 62.0763 128.078C62.3963 127.924 62.7529 127.848 63.1463 127.848ZM71.5727 130.478C71.5727 130.651 71.5627 130.834 71.5427 131.028H67.1627C67.1961 131.568 67.3794 131.991 67.7127 132.298C68.0527 132.598 68.4627 132.748 68.9427 132.748C69.3361 132.748 69.6627 132.658 69.9227 132.478C70.1894 132.291 70.3761 132.044 70.4827 131.738H71.4627C71.3161 132.264 71.0227 132.694 70.5827 133.028C70.1427 133.354 69.5961 133.518 68.9427 133.518C68.4227 133.518 67.9561 133.401 67.5427 133.168C67.1361 132.934 66.8161 132.604 66.5827 132.178C66.3494 131.744 66.2327 131.244 66.2327 130.678C66.2327 130.111 66.3461 129.614 66.5727 129.188C66.7994 128.761 67.1161 128.434 67.5227 128.208C67.9361 127.974 68.4094 127.858 68.9427 127.858C69.4627 127.858 69.9227 127.971 70.3227 128.198C70.7227 128.424 71.0294 128.738 71.2427 129.138C71.4627 129.531 71.5727 129.978 71.5727 130.478ZM70.6327 130.288C70.6327 129.941 70.5561 129.644 70.4027 129.398C70.2494 129.144 70.0394 128.954 69.7727 128.828C69.5127 128.694 69.2227 128.628 68.9027 128.628C68.4427 128.628 68.0494 128.774 67.7227 129.068C67.4027 129.361 67.2194 129.768 67.1727 130.288H70.6327ZM72.1839 130.668C72.1839 130.108 72.2972 129.618 72.5239 129.198C72.7506 128.771 73.0606 128.441 73.4539 128.208C73.8539 127.974 74.3006 127.858 74.7939 127.858C75.2206 127.858 75.6172 127.958 75.9839 128.158C76.3506 128.351 76.6306 128.608 76.8239 128.928V126.028H77.7439V133.428H76.8239V132.398C76.6439 132.724 76.3772 132.994 76.0239 133.208C75.6706 133.414 75.2572 133.518 74.7839 133.518C74.2972 133.518 73.8539 133.398 73.4539 133.158C73.0606 132.918 72.7506 132.581 72.5239 132.148C72.2972 131.714 72.1839 131.221 72.1839 130.668ZM76.8239 130.678C76.8239 130.264 76.7406 129.904 76.5739 129.598C76.4072 129.291 76.1806 129.058 75.8939 128.898C75.6139 128.731 75.3039 128.648 74.9639 128.648C74.6239 128.648 74.3139 128.728 74.0339 128.888C73.7539 129.048 73.5306 129.281 73.3639 129.588C73.1972 129.894 73.1139 130.254 73.1139 130.668C73.1139 131.088 73.1972 131.454 73.3639 131.768C73.5306 132.074 73.7539 132.311 74.0339 132.478C74.3139 132.638 74.6239 132.718 74.9639 132.718C75.3039 132.718 75.6139 132.638 75.8939 132.478C76.1806 132.311 76.4072 132.074 76.5739 131.768C76.7406 131.454 76.8239 131.091 76.8239 130.678ZM81.9177 127.058C81.7444 127.058 81.5977 126.998 81.4777 126.878C81.3577 126.758 81.2977 126.611 81.2977 126.438C81.2977 126.264 81.3577 126.118 81.4777 125.998C81.5977 125.878 81.7444 125.818 81.9177 125.818C82.0844 125.818 82.2244 125.878 82.3377 125.998C82.4577 126.118 82.5177 126.264 82.5177 126.438C82.5177 126.611 82.4577 126.758 82.3377 126.878C82.2244 126.998 82.0844 127.058 81.9177 127.058ZM82.3577 127.948V133.428H81.4477V127.948H82.3577ZM86.3287 127.848C86.9953 127.848 87.5353 128.051 87.9487 128.458C88.362 128.858 88.5687 129.438 88.5687 130.198V133.428H87.6687V130.328C87.6687 129.781 87.532 129.364 87.2587 129.078C86.9853 128.784 86.612 128.638 86.1387 128.638C85.6587 128.638 85.2753 128.788 84.9887 129.088C84.7087 129.388 84.5687 129.824 84.5687 130.398V133.428H83.6587V127.948H84.5687V128.728C84.7487 128.448 84.992 128.231 85.2987 128.078C85.612 127.924 85.9553 127.848 86.3287 127.848ZM91.9612 132.698C92.8078 132.018 93.4712 131.461 93.9512 131.028C94.4312 130.588 94.8345 130.131 95.1612 129.658C95.4945 129.178 95.6612 128.708 95.6612 128.248C95.6612 127.814 95.5545 127.474 95.3412 127.228C95.1345 126.974 94.7978 126.848 94.3312 126.848C93.8778 126.848 93.5245 126.991 93.2712 127.278C93.0245 127.558 92.8912 127.934 92.8712 128.408H91.9912C92.0178 127.661 92.2445 127.084 92.6712 126.678C93.0978 126.271 93.6478 126.068 94.3212 126.068C95.0078 126.068 95.5512 126.258 95.9512 126.638C96.3578 127.018 96.5612 127.541 96.5612 128.208C96.5612 128.761 96.3945 129.301 96.0612 129.828C95.7345 130.348 95.3612 130.808 94.9412 131.208C94.5212 131.601 93.9845 132.061 93.3312 132.588H96.7712V133.348H91.9612V132.698ZM97.5731 129.738C97.5731 128.591 97.7598 127.698 98.1331 127.058C98.5065 126.411 99.1598 126.088 100.093 126.088C101.02 126.088 101.67 126.411 102.043 127.058C102.416 127.698 102.603 128.591 102.603 129.738C102.603 130.904 102.416 131.811 102.043 132.458C101.67 133.104 101.02 133.428 100.093 133.428C99.1598 133.428 98.5065 133.104 98.1331 132.458C97.7598 131.811 97.5731 130.904 97.5731 129.738ZM101.703 129.738C101.703 129.158 101.663 128.668 101.583 128.268C101.51 127.861 101.353 127.534 101.113 127.288C100.88 127.041 100.54 126.918 100.093 126.918C99.6398 126.918 99.2931 127.041 99.0531 127.288C98.8198 127.534 98.6631 127.861 98.5831 128.268C98.5098 128.668 98.4731 129.158 98.4731 129.738C98.4731 130.338 98.5098 130.841 98.5831 131.248C98.6631 131.654 98.8198 131.981 99.0531 132.228C99.2931 132.474 99.6398 132.598 100.093 132.598C100.54 132.598 100.88 132.474 101.113 132.228C101.353 131.981 101.51 131.654 101.583 131.248C101.663 130.841 101.703 130.338 101.703 129.738ZM103.362 127.028V126.198H105.242V133.428H104.322V127.028H103.362ZM107.876 129.668C107.502 129.521 107.216 129.308 107.016 129.028C106.816 128.748 106.716 128.408 106.716 128.008C106.716 127.648 106.806 127.324 106.986 127.038C107.166 126.744 107.432 126.514 107.786 126.348C108.146 126.174 108.579 126.088 109.086 126.088C109.592 126.088 110.022 126.174 110.376 126.348C110.736 126.514 111.006 126.744 111.186 127.038C111.372 127.324 111.466 127.648 111.466 128.008C111.466 128.394 111.362 128.734 111.156 129.028C110.949 129.314 110.666 129.528 110.306 129.668C110.719 129.794 111.046 130.018 111.286 130.338C111.532 130.651 111.656 131.031 111.656 131.478C111.656 131.911 111.549 132.291 111.336 132.618C111.122 132.938 110.819 133.188 110.426 133.368C110.039 133.541 109.592 133.628 109.086 133.628C108.579 133.628 108.132 133.541 107.746 133.368C107.366 133.188 107.069 132.938 106.856 132.618C106.642 132.291 106.536 131.911 106.536 131.478C106.536 131.031 106.656 130.648 106.896 130.328C107.136 130.008 107.462 129.788 107.876 129.668ZM110.586 128.118C110.586 127.711 110.452 127.398 110.186 127.178C109.919 126.958 109.552 126.848 109.086 126.848C108.626 126.848 108.262 126.958 107.996 127.178C107.729 127.398 107.596 127.714 107.596 128.128C107.596 128.501 107.732 128.801 108.006 129.028C108.286 129.254 108.646 129.368 109.086 129.368C109.532 129.368 109.892 129.254 110.166 129.028C110.446 128.794 110.586 128.491 110.586 128.118ZM109.086 130.068C108.592 130.068 108.189 130.184 107.876 130.418C107.562 130.644 107.406 130.988 107.406 131.448C107.406 131.874 107.556 132.218 107.856 132.478C108.162 132.738 108.572 132.868 109.086 132.868C109.599 132.868 110.006 132.738 110.306 132.478C110.606 132.218 110.756 131.874 110.756 131.448C110.756 131.001 110.602 130.661 110.296 130.428C109.989 130.188 109.586 130.068 109.086 130.068ZM113.054 133.488C112.881 133.488 112.734 133.428 112.614 133.308C112.494 133.188 112.434 133.041 112.434 132.868C112.434 132.694 112.494 132.548 112.614 132.428C112.734 132.308 112.881 132.248 113.054 132.248C113.221 132.248 113.361 132.308 113.474 132.428C113.594 132.548 113.654 132.694 113.654 132.868C113.654 133.041 113.594 133.188 113.474 133.308C113.361 133.428 113.221 133.488 113.054 133.488Z" fill="black"/>
<path d="M37.56 99.6997L32.112 110.116V116.428H29.928V110.116L24.456 99.6997H26.88L31.008 108.172L35.136 99.6997H37.56ZM51.2636 109.348C51.2636 109.764 51.2396 110.204 51.1916 110.668H40.6796C40.7596 111.964 41.1996 112.98 41.9996 113.716C42.8156 114.436 43.7996 114.796 44.9516 114.796C45.8956 114.796 46.6796 114.58 47.3036 114.148C47.9436 113.7 48.3916 113.108 48.6476 112.372H50.9996C50.6476 113.636 49.9436 114.668 48.8876 115.468C47.8316 116.252 46.5196 116.644 44.9516 116.644C43.7036 116.644 42.5836 116.364 41.5916 115.804C40.6156 115.244 39.8476 114.452 39.2876 113.428C38.7276 112.388 38.4476 111.188 38.4476 109.828C38.4476 108.468 38.7196 107.276 39.2636 106.252C39.8076 105.228 40.5676 104.444 41.5436 103.9C42.5356 103.34 43.6716 103.06 44.9516 103.06C46.1996 103.06 47.3036 103.332 48.2636 103.876C49.2236 104.42 49.9596 105.172 50.4716 106.132C50.9996 107.076 51.2636 108.148 51.2636 109.348ZM49.0076 108.892C49.0076 108.06 48.8236 107.348 48.4556 106.756C48.0876 106.148 47.5836 105.692 46.9436 105.388C46.3196 105.068 45.6236 104.908 44.8556 104.908C43.7516 104.908 42.8076 105.26 42.0236 105.964C41.2556 106.668 40.8156 107.644 40.7036 108.892H49.0076ZM52.7304 109.804C52.7304 108.46 53.0024 107.284 53.5464 106.276C54.0904 105.252 54.8344 104.46 55.7784 103.9C56.7384 103.34 57.8024 103.06 58.9704 103.06C60.1224 103.06 61.1224 103.308 61.9704 103.804C62.8184 104.3 63.4504 104.924 63.8664 105.676V103.276H66.0744V116.428H63.8664V113.98C63.4344 114.748 62.7864 115.388 61.9224 115.9C61.0744 116.396 60.0824 116.644 58.9464 116.644C57.7784 116.644 56.7224 116.356 55.7784 115.78C54.8344 115.204 54.0904 114.396 53.5464 113.356C53.0024 112.316 52.7304 111.132 52.7304 109.804ZM63.8664 109.828C63.8664 108.836 63.6664 107.972 63.2664 107.236C62.8664 106.5 62.3224 105.94 61.6344 105.556C60.9624 105.156 60.2184 104.956 59.4024 104.956C58.5864 104.956 57.8424 105.148 57.1704 105.532C56.4984 105.916 55.9624 106.476 55.5624 107.212C55.1624 107.948 54.9624 108.812 54.9624 109.804C54.9624 110.812 55.1624 111.692 55.5624 112.444C55.9624 113.18 56.4984 113.748 57.1704 114.148C57.8424 114.532 58.5864 114.724 59.4024 114.724C60.2184 114.724 60.9624 114.532 61.6344 114.148C62.3224 113.748 62.8664 113.18 63.2664 112.444C63.6664 111.692 63.8664 110.82 63.8664 109.828ZM71.3492 105.412C71.7332 104.66 72.2772 104.076 72.9812 103.66C73.7012 103.244 74.5732 103.036 75.5972 103.036V105.292H75.0212C72.5732 105.292 71.3492 106.62 71.3492 109.276V116.428H69.1652V103.276H71.3492V105.412ZM82.1743 116.644C81.1663 116.644 80.2623 116.476 79.4623 116.14C78.6623 115.788 78.0303 115.308 77.5663 114.7C77.1023 114.076 76.8463 113.364 76.7983 112.564H79.0543C79.1183 113.22 79.4223 113.756 79.9663 114.172C80.5263 114.588 81.2543 114.796 82.1503 114.796C82.9823 114.796 83.6383 114.612 84.1183 114.244C84.5983 113.876 84.8383 113.412 84.8383 112.852C84.8383 112.276 84.5823 111.852 84.0703 111.58C83.5583 111.292 82.7663 111.012 81.6943 110.74C80.7183 110.484 79.9183 110.228 79.2943 109.972C78.6863 109.7 78.1583 109.308 77.7103 108.796C77.2783 108.268 77.0623 107.58 77.0623 106.732C77.0623 106.06 77.2623 105.444 77.6623 104.884C78.0623 104.324 78.6303 103.884 79.3663 103.564C80.1023 103.228 80.9423 103.06 81.8863 103.06C83.3423 103.06 84.5183 103.428 85.4143 104.164C86.3103 104.9 86.7903 105.908 86.8543 107.188H84.6703C84.6223 106.5 84.3423 105.948 83.8303 105.532C83.3343 105.116 82.6623 104.908 81.8143 104.908C81.0303 104.908 80.4063 105.076 79.9423 105.412C79.4783 105.748 79.2463 106.188 79.2463 106.732C79.2463 107.164 79.3823 107.524 79.6543 107.812C79.9423 108.084 80.2943 108.308 80.7103 108.484C81.1423 108.644 81.7343 108.828 82.4863 109.036C83.4303 109.292 84.1983 109.548 84.7903 109.804C85.3823 110.044 85.8863 110.412 86.3023 110.908C86.7343 111.404 86.9583 112.052 86.9743 112.852C86.9743 113.572 86.7743 114.22 86.3743 114.796C85.9743 115.372 85.4063 115.828 84.6703 116.164C83.9503 116.484 83.1183 116.644 82.1743 116.644ZM100.992 116.644C99.7598 116.644 98.6398 116.364 97.6318 115.804C96.6398 115.244 95.8558 114.452 95.2798 113.428C94.7198 112.388 94.4398 111.188 94.4398 109.828C94.4398 108.484 94.7278 107.3 95.3038 106.276C95.8958 105.236 96.6958 104.444 97.7038 103.9C98.7118 103.34 99.8398 103.06 101.088 103.06C102.336 103.06 103.464 103.34 104.472 103.9C105.48 104.444 106.272 105.228 106.848 106.252C107.44 107.276 107.736 108.468 107.736 109.828C107.736 111.188 107.432 112.388 106.824 113.428C106.232 114.452 105.424 115.244 104.4 115.804C103.376 116.364 102.24 116.644 100.992 116.644ZM100.992 114.724C101.776 114.724 102.512 114.54 103.2 114.172C103.888 113.804 104.44 113.252 104.856 112.516C105.288 111.78 105.504 110.884 105.504 109.828C105.504 108.772 105.296 107.876 104.88 107.14C104.464 106.404 103.92 105.86 103.248 105.508C102.576 105.14 101.848 104.956 101.064 104.956C100.264 104.956 99.5278 105.14 98.8558 105.508C98.1998 105.86 97.6718 106.404 97.2718 107.14C96.8718 107.876 96.6718 108.772 96.6718 109.828C96.6718 110.9 96.8638 111.804 97.2478 112.54C97.6478 113.276 98.1758 113.828 98.8318 114.196C99.4878 114.548 100.208 114.724 100.992 114.724ZM115.359 105.076H112.599V116.428H110.415V105.076H108.711V103.276H110.415V102.34C110.415 100.868 110.791 99.7957 111.543 99.1237C112.311 98.4357 113.535 98.0917 115.215 98.0917V99.9157C114.255 99.9157 113.575 100.108 113.175 100.492C112.791 100.86 112.599 101.476 112.599 102.34V103.276H115.359V105.076ZM125.288 101.476V107.068H131.384V108.868H125.288V114.628H132.104V116.428H123.104V99.6757H132.104V101.476H125.288ZM141.673 116.428L138.553 111.532L135.553 116.428H133.273L137.521 109.9L133.273 103.276H135.745L138.865 108.148L141.841 103.276H144.121L139.897 109.78L144.145 116.428H141.673ZM147.877 105.7C148.309 104.948 148.949 104.324 149.797 103.828C150.661 103.316 151.661 103.06 152.797 103.06C153.965 103.06 155.021 103.34 155.965 103.9C156.925 104.46 157.677 105.252 158.221 106.276C158.765 107.284 159.037 108.46 159.037 109.804C159.037 111.132 158.765 112.316 158.221 113.356C157.677 114.396 156.925 115.204 155.965 115.78C155.021 116.356 153.965 116.644 152.797 116.644C151.677 116.644 150.685 116.396 149.821 115.9C148.973 115.388 148.325 114.756 147.877 114.004V122.668H145.693V103.276H147.877V105.7ZM156.805 109.804C156.805 108.812 156.605 107.948 156.205 107.212C155.805 106.476 155.261 105.916 154.573 105.532C153.901 105.148 153.157 104.956 152.341 104.956C151.541 104.956 150.797 105.156 150.109 105.556C149.437 105.94 148.893 106.508 148.477 107.26C148.077 107.996 147.877 108.852 147.877 109.828C147.877 110.82 148.077 111.692 148.477 112.444C148.893 113.18 149.437 113.748 150.109 114.148C150.797 114.532 151.541 114.724 152.341 114.724C153.157 114.724 153.901 114.532 154.573 114.148C155.261 113.748 155.805 113.18 156.205 112.444C156.605 111.692 156.805 110.812 156.805 109.804ZM173.312 109.348C173.312 109.764 173.288 110.204 173.24 110.668H162.728C162.808 111.964 163.248 112.98 164.048 113.716C164.864 114.436 165.848 114.796 167 114.796C167.944 114.796 168.728 114.58 169.352 114.148C169.992 113.7 170.44 113.108 170.696 112.372H173.048C172.696 113.636 171.992 114.668 170.936 115.468C169.88 116.252 168.568 116.644 167 116.644C165.752 116.644 164.632 116.364 163.64 115.804C162.664 115.244 161.896 114.452 161.336 113.428C160.776 112.388 160.496 111.188 160.496 109.828C160.496 108.468 160.768 107.276 161.312 106.252C161.856 105.228 162.616 104.444 163.592 103.9C164.584 103.34 165.72 103.06 167 103.06C168.248 103.06 169.352 103.332 170.312 103.876C171.272 104.42 172.008 105.172 172.52 106.132C173.048 107.076 173.312 108.148 173.312 109.348ZM171.056 108.892C171.056 108.06 170.872 107.348 170.504 106.756C170.136 106.148 169.632 105.692 168.992 105.388C168.368 105.068 167.672 104.908 166.904 104.908C165.8 104.908 164.856 105.26 164.072 105.964C163.304 106.668 162.864 107.644 162.752 108.892H171.056ZM177.779 105.412C178.163 104.66 178.707 104.076 179.411 103.66C180.131 103.244 181.003 103.036 182.027 103.036V105.292H181.451C179.003 105.292 177.779 106.62 177.779 109.276V116.428H175.595V103.276H177.779V105.412ZM185.076 101.14C184.66 101.14 184.308 100.996 184.02 100.708C183.732 100.42 183.588 100.068 183.588 99.6517C183.588 99.2357 183.732 98.8837 184.02 98.5957C184.308 98.3077 184.66 98.1637 185.076 98.1637C185.476 98.1637 185.812 98.3077 186.084 98.5957C186.372 98.8837 186.516 99.2357 186.516 99.6517C186.516 100.068 186.372 100.42 186.084 100.708C185.812 100.996 185.476 101.14 185.076 101.14ZM186.132 103.276V116.428H183.948V103.276H186.132ZM201.254 109.348C201.254 109.764 201.23 110.204 201.182 110.668H190.67C190.75 111.964 191.19 112.98 191.99 113.716C192.806 114.436 193.79 114.796 194.942 114.796C195.886 114.796 196.67 114.58 197.294 114.148C197.934 113.7 198.382 113.108 198.638 112.372H200.99C200.638 113.636 199.934 114.668 198.878 115.468C197.822 116.252 196.51 116.644 194.942 116.644C193.694 116.644 192.574 116.364 191.582 115.804C190.606 115.244 189.838 114.452 189.278 113.428C188.718 112.388 188.438 111.188 188.438 109.828C188.438 108.468 188.71 107.276 189.254 106.252C189.798 105.228 190.558 104.444 191.534 103.9C192.526 103.34 193.662 103.06 194.942 103.06C196.19 103.06 197.294 103.332 198.254 103.876C199.214 104.42 199.95 105.172 200.462 106.132C200.99 107.076 201.254 108.148 201.254 109.348ZM198.998 108.892C198.998 108.06 198.814 107.348 198.446 106.756C198.078 106.148 197.574 105.692 196.934 105.388C196.31 105.068 195.614 104.908 194.846 104.908C193.742 104.908 192.798 105.26 192.014 105.964C191.246 106.668 190.806 107.644 190.694 108.892H198.998ZM209.945 103.036C211.545 103.036 212.841 103.524 213.833 104.5C214.825 105.46 215.321 106.852 215.321 108.676V116.428H213.161V108.988C213.161 107.676 212.833 106.676 212.177 105.988C211.521 105.284 210.625 104.932 209.489 104.932C208.337 104.932 207.417 105.292 206.729 106.012C206.057 106.732 205.721 107.78 205.721 109.156V116.428H203.537V103.276H205.721V105.148C206.153 104.476 206.737 103.956 207.473 103.588C208.225 103.22 209.049 103.036 209.945 103.036ZM217.473 109.828C217.473 108.468 217.745 107.284 218.289 106.276C218.833 105.252 219.585 104.46 220.545 103.9C221.521 103.34 222.633 103.06 223.881 103.06C225.497 103.06 226.825 103.452 227.865 104.236C228.921 105.02 229.617 106.108 229.953 107.5H227.601C227.377 106.7 226.937 106.068 226.281 105.604C225.641 105.14 224.841 104.908 223.881 104.908C222.633 104.908 221.625 105.34 220.857 106.204C220.089 107.052 219.705 108.26 219.705 109.828C219.705 111.412 220.089 112.636 220.857 113.5C221.625 114.364 222.633 114.796 223.881 114.796C224.841 114.796 225.641 114.572 226.281 114.124C226.921 113.676 227.361 113.036 227.601 112.204H229.953C229.601 113.548 228.897 114.628 227.841 115.444C226.785 116.244 225.465 116.644 223.881 116.644C222.633 116.644 221.521 116.364 220.545 115.804C219.585 115.244 218.833 114.452 218.289 113.428C217.745 112.404 217.473 111.204 217.473 109.828ZM244.267 109.348C244.267 109.764 244.243 110.204 244.195 110.668H233.683C233.763 111.964 234.203 112.98 235.003 113.716C235.819 114.436 236.803 114.796 237.955 114.796C238.899 114.796 239.683 114.58 240.307 114.148C240.947 113.7 241.395 113.108 241.651 112.372H244.003C243.651 113.636 242.947 114.668 241.891 115.468C240.835 116.252 239.523 116.644 237.955 116.644C236.707 116.644 235.587 116.364 234.595 115.804C233.619 115.244 232.851 114.452 232.291 113.428C231.731 112.388 231.451 111.188 231.451 109.828C231.451 108.468 231.723 107.276 232.267 106.252C232.811 105.228 233.571 104.444 234.547 103.9C235.539 103.34 236.675 103.06 237.955 103.06C239.203 103.06 240.307 103.332 241.267 103.876C242.227 104.42 242.963 105.172 243.475 106.132C244.003 107.076 244.267 108.148 244.267 109.348ZM242.011 108.892C242.011 108.06 241.827 107.348 241.459 106.756C241.091 106.148 240.587 105.692 239.947 105.388C239.323 105.068 238.627 104.908 237.859 104.908C236.755 104.908 235.811 105.26 235.027 105.964C234.259 106.668 233.819 107.644 233.707 108.892H242.011Z" fill="black"/>
<g clip-path="url(#clip1_1777_3477)">
<rect x="24.5893" y="24.5893" width="140.809" height="55.3929" rx="27.6964" fill="#ED7D31" stroke="#E26A19" stroke-width="1.17857"/>
<path d="M67.7464 42.5226H55.1121V50.0277C55.6401 49.3237 56.4195 48.7329 57.4504 48.2552C58.5064 47.7775 59.6252 47.5386 60.807 47.5386C62.919 47.5386 64.6287 47.9912 65.9361 48.8963C67.2687 49.8015 68.2115 50.9455 68.7647 52.3283C69.343 53.7112 69.6321 55.1695 69.6321 56.7032C69.6321 58.5637 69.2675 60.2232 68.5384 61.6815C67.8344 63.1146 66.7658 64.246 65.3327 65.0757C63.9247 65.9055 62.1898 66.3203 60.1281 66.3203C57.3875 66.3203 55.1875 65.6415 53.5281 64.2837C51.8687 62.926 50.8755 61.1283 50.5487 58.8906H54.735C55.0115 60.0723 55.6275 61.0152 56.583 61.7192C57.5384 62.398 58.7327 62.7375 60.1658 62.7375C61.951 62.7375 63.2835 62.1969 64.1635 61.1157C65.0687 60.0346 65.5212 58.6015 65.5212 56.8163C65.5212 55.006 65.0687 53.6232 64.1635 52.6677C63.2584 51.6872 61.9258 51.1969 60.1658 51.1969C58.9338 51.1969 57.8904 51.5112 57.0355 52.1397C56.2058 52.7432 55.6024 53.5729 55.2252 54.6289H51.1521V38.7512H67.7464V42.5226Z" fill="#E6E6E6"/>
<path d="M76.7482 60.4746C79.1619 58.3877 81.0602 56.678 82.4431 55.3455C83.8511 53.9877 85.0202 52.5797 85.9505 51.1215C86.8808 49.6632 87.3459 48.2049 87.3459 46.7466C87.3459 45.238 86.9814 44.0563 86.2522 43.2015C85.5482 42.3466 84.4294 41.9192 82.8957 41.9192C81.4122 41.9192 80.2557 42.3969 79.4259 43.3523C78.6214 44.2826 78.1939 45.5397 78.1437 47.1237H73.9951C74.0705 44.2575 74.9254 42.07 76.5597 40.5615C78.2191 39.0277 80.3185 38.2609 82.8579 38.2609C85.5985 38.2609 87.7357 39.0152 89.2694 40.5237C90.8282 42.0323 91.6077 44.0437 91.6077 46.558C91.6077 48.3683 91.1425 50.1157 90.2122 51.8003C89.3071 53.4597 88.2134 54.9557 86.9311 56.2883C85.6739 57.5957 84.0648 59.1169 82.1037 60.8517L80.4065 62.3603H92.3619V65.9432H74.0328V62.8129L76.7482 60.4746Z" fill="#E6E6E6"/>
<path d="M114.121 42.5226H101.487V50.0277C102.015 49.3237 102.795 48.7329 103.825 48.2552C104.881 47.7775 106 47.5386 107.182 47.5386C109.294 47.5386 111.004 47.9912 112.311 48.8963C113.644 49.8015 114.587 50.9455 115.14 52.3283C115.718 53.7112 116.007 55.1695 116.007 56.7032C116.007 58.5637 115.643 60.2232 114.913 61.6815C114.209 63.1146 113.141 64.246 111.708 65.0757C110.3 65.9055 108.565 66.3203 106.503 66.3203C103.763 66.3203 101.563 65.6415 99.9031 64.2837C98.2437 62.926 97.2505 61.1283 96.9237 58.8906H101.11C101.387 60.0723 102.003 61.0152 102.958 61.7192C103.913 62.398 105.108 62.7375 106.541 62.7375C108.326 62.7375 109.659 62.1969 110.539 61.1157C111.444 60.0346 111.896 58.6015 111.896 56.8163C111.896 55.006 111.444 53.6232 110.539 52.6677C109.633 51.6872 108.301 51.1969 106.541 51.1969C105.309 51.1969 104.265 51.5112 103.411 52.1397C102.581 52.7432 101.977 53.5729 101.6 54.6289H97.5271V38.7512H114.121V42.5226Z" fill="#E6E6E6"/>
<path d="M141.566 54.5157H133.947V62.3226H129.95V54.5157H122.331V50.8952H129.95V43.0883H133.947V50.8952H141.566V54.5157Z" fill="#E6E6E6"/>
</g>
<g filter="url(#filter0_b_1777_3477)">
<path d="M119.938 194.256H192.06V221.388C192.06 241.304 175.915 257.449 155.999 257.449V257.449C136.083 257.449 119.938 241.304 119.938 221.388V194.256Z" fill="black" fill-opacity="0.37"/>
<path d="M124.059 198.377H187.938V221.388C187.938 239.027 173.638 253.327 155.999 253.327C138.359 253.327 124.059 239.027 124.059 221.388V198.377Z" stroke="#D9D9D9" stroke-width="8.24253"/>
</g>
<g filter="url(#filter1_b_1777_3477)">
<path d="M119.938 293.506C119.938 273.59 136.083 257.445 155.999 257.445V257.445C175.915 257.445 192.06 273.59 192.06 293.506V320.638H119.938V293.506Z" fill="black" fill-opacity="0.4"/>
<path d="M187.938 293.506V316.517H124.059V293.506C124.059 275.867 138.359 261.567 155.999 261.567C173.638 261.567 187.938 275.867 187.938 293.506Z" stroke="#D9D9D9" stroke-width="8.24253"/>
</g>
<path fill-rule="evenodd" clip-rule="evenodd" d="M133.911 223.93L133.883 223.93C133.883 224.285 133.892 224.639 133.911 224.993V223.93ZM134.095 226.831C134.352 228.574 134.84 230.284 135.55 231.918C136.651 234.451 138.265 236.752 140.299 238.69C142.334 240.629 144.749 242.166 147.407 243.215C150.065 244.264 152.913 244.804 155.79 244.804C158.667 244.804 161.516 244.264 164.174 243.215C166.832 242.166 169.247 240.629 171.281 238.69C173.316 236.752 174.93 234.451 176.03 231.918C176.741 230.284 177.229 228.574 177.486 226.831H134.095Z" fill="#D9D9D9"/>
<path fill-rule="evenodd" clip-rule="evenodd" d="M177.394 308.111H134C134.256 306.362 134.745 304.648 135.457 303.009C136.558 300.476 138.172 298.175 140.206 296.237C142.241 294.298 144.656 292.761 147.314 291.712C149.972 290.663 152.82 290.123 155.697 290.123C158.574 290.123 161.423 290.663 164.081 291.712C166.739 292.761 169.154 294.298 171.188 296.237C173.223 298.175 174.836 300.476 175.937 303.009C176.65 304.648 177.138 306.362 177.394 308.111Z" fill="#D9D9D9"/>
<rect x="0.03125" y="322.256" width="313.253" height="20" fill="#ED7D31"/>
</g>
<defs>
<filter id="filter0_b_1777_3477" x="91.7417" y="166.06" width="128.517" height="119.585" filterUnits="userSpaceOnUse" color-interpolation-filters="sRGB">
<feFlood flood-opacity="0" result="BackgroundImageFix"/>
<feGaussianBlur in="BackgroundImageFix" stdDeviation="14.0979"/>
<feComposite in2="SourceAlpha" operator="in" result="effect1_backgroundBlur_1777_3477"/>
<feBlend mode="normal" in="SourceGraphic" in2="effect1_backgroundBlur_1777_3477" result="shape"/>
</filter>
<filter id="filter1_b_1777_3477" x="105.84" y="243.347" width="100.321" height="91.3891" filterUnits="userSpaceOnUse" color-interpolation-filters="sRGB">
<feFlood flood-opacity="0" result="BackgroundImageFix"/>
<feGaussianBlur in="BackgroundImageFix" stdDeviation="7.04894"/>
<feComposite in2="SourceAlpha" operator="in" result="effect1_backgroundBlur_1777_3477"/>
<feBlend mode="normal" in="SourceGraphic" in2="effect1_backgroundBlur_1777_3477" result="shape"/>
</filter>
<clipPath id="clip0_1777_3477">
<rect width="312" height="342.256" rx="24" fill="white"/>
</clipPath>
<clipPath id="clip1_1777_3477">
<rect width="141.987" height="56.5714" fill="white" transform="translate(24 24)"/>
</clipPath>
</defs>
</svg>
