<svg width="368" height="545" viewBox="0 0 368 545" fill="none" xmlns="http://www.w3.org/2000/svg">
<g clip-path="url(#clip0_1610_4128)">
<rect x="1.78906" y="2.16211" width="364.8" height="540.906" rx="28.8" fill="#FEB649"/>
<path d="M48.9688 327.795C-66.0721 272.129 -79.3732 463.932 -71.6437 542.792L-75.0664 550.513H1525.18C1544.54 577.697 1582.64 555.545 1580.15 441.47C1577.03 298.876 1560.13 387.388 1429.43 292.744C1298.74 198.101 1216.11 393.397 1112.45 441.47C1008.8 489.543 934.937 383.462 911.743 311.56C888.549 239.659 823.606 302.283 758.663 360.268C693.72 418.253 557.535 353.308 469.398 327.795C381.26 302.282 305.355 318.519 258.967 360.268C212.579 402.017 192.77 397.377 48.9688 327.795Z" fill="#542A29"/>
<path d="M1.78906 515.58H366.589V543.068H1.78906V515.58Z" fill="#171717"/>
<g filter="url(#filter0_b_1610_4128)">
<path d="M122.395 300.031H245.174V346.22C245.174 380.124 217.689 407.609 183.784 407.609V407.609C149.88 407.609 122.395 380.124 122.395 346.22V300.031Z" fill="black" fill-opacity="0.37"/>
<path d="M129.41 307.047H238.158V346.22C238.158 376.249 213.814 400.593 183.784 400.593C153.754 400.593 129.41 376.25 129.41 346.22V307.047Z" stroke="#D9D9D9" stroke-width="14.0319"/>
</g>
<g filter="url(#filter1_b_1610_4128)">
<path d="M122.395 468.993C122.395 435.089 149.88 407.604 183.784 407.604V407.604C217.689 407.604 245.174 435.089 245.174 468.993V515.182H122.395V468.993Z" fill="black" fill-opacity="0.4"/>
<path d="M238.158 468.993V508.166H129.41V468.993C129.41 438.963 153.754 414.619 183.784 414.619C213.814 414.619 238.158 438.963 238.158 468.993Z" stroke="#D9D9D9" stroke-width="14.0319"/>
</g>
<path fill-rule="evenodd" clip-rule="evenodd" d="M146.171 350.549L146.121 350.549C146.121 351.163 146.138 351.776 146.171 352.388V350.549ZM146.483 355.486C146.92 358.455 147.751 361.366 148.96 364.148C150.834 368.46 153.581 372.377 157.045 375.677C160.508 378.977 164.619 381.595 169.144 383.38C173.669 385.166 178.519 386.085 183.416 386.085C188.314 386.085 193.164 385.166 197.689 383.38C202.213 381.595 206.325 378.977 209.788 375.677C213.251 372.377 215.998 368.46 217.873 364.148C219.082 361.366 219.913 358.455 220.35 355.486H146.483Z" fill="#D9D9D9"/>
<path fill-rule="evenodd" clip-rule="evenodd" d="M220.206 493.855H146.332C146.768 490.878 147.6 487.959 148.813 485.17C150.687 480.858 153.434 476.941 156.897 473.641C160.36 470.341 164.472 467.723 168.997 465.938C173.522 464.152 178.371 463.232 183.269 463.232C188.167 463.232 193.016 464.152 197.541 465.938C202.066 467.723 206.177 470.341 209.641 473.641C213.104 476.941 215.851 480.858 217.725 485.17C218.938 487.959 219.77 490.878 220.206 493.855Z" fill="#D9D9D9"/>
<g clip-path="url(#clip1_1610_4128)">
<rect x="40.7914" y="41.1625" width="143.369" height="56.4" rx="28.2" fill="#ED7D31" stroke="#E26A19" stroke-width="1.2"/>
<path d="M84.7309 58.9317H71.8669V66.5733C72.4045 65.8565 73.1981 65.2549 74.2477 64.7685C75.3229 64.2821 76.4621 64.0389 77.6653 64.0389C79.8157 64.0389 81.5565 64.4997 82.8877 65.4213C84.2445 66.3429 85.2045 67.5077 85.7677 68.9157C86.3565 70.3237 86.6509 71.8085 86.6509 73.3701C86.6509 75.2645 86.2797 76.9541 85.5373 78.4389C84.8205 79.8981 83.7325 81.0501 82.2733 81.8949C80.8397 82.7397 79.0733 83.1621 76.9741 83.1621C74.1837 83.1621 71.9437 82.4709 70.2541 81.0885C68.5645 79.7061 67.5533 77.8757 67.2205 75.5973H71.4829C71.7645 76.8005 72.3917 77.7605 73.3645 78.4773C74.3373 79.1685 75.5533 79.5141 77.0125 79.5141C78.8301 79.5141 80.1869 78.9637 81.0829 77.8629C82.0045 76.7621 82.4653 75.3029 82.4653 73.4853C82.4653 71.6421 82.0045 70.2341 81.0829 69.2613C80.1613 68.2629 78.8045 67.7637 77.0125 67.7637C75.7581 67.7637 74.6957 68.0837 73.8253 68.7237C72.9805 69.3381 72.3661 70.1829 71.9821 71.2581H67.8349V55.0917H84.7309V58.9317Z" fill="#E6E6E6"/>
<path d="M93.9029 77.2101C96.3605 75.0853 98.2933 73.3445 99.7013 71.9877C101.135 70.6053 102.325 69.1717 103.272 67.6869C104.22 66.2021 104.693 64.7173 104.693 63.2325C104.693 61.6965 104.322 60.4933 103.58 59.6229C102.863 58.7525 101.724 58.3173 100.162 58.3173C98.6517 58.3173 97.4741 58.8037 96.6293 59.7765C95.8101 60.7237 95.3749 62.0037 95.3237 63.6165H91.0997C91.1765 60.6981 92.0469 58.4709 93.7109 56.9349C95.4005 55.3733 97.5381 54.5925 100.124 54.5925C102.914 54.5925 105.09 55.3605 106.652 56.8965C108.239 58.4325 109.032 60.4805 109.032 63.0405C109.032 64.8837 108.559 66.6629 107.612 68.3781C106.69 70.0677 105.576 71.5909 104.271 72.9477C102.991 74.2789 101.352 75.8277 99.3557 77.5941L97.6277 79.1301H109.8V82.7781H91.1381V79.5909L93.9029 77.2101Z" fill="#E6E6E6"/>
<path d="M131.95 58.9317H119.086V66.5733C119.623 65.8565 120.417 65.2549 121.466 64.7685C122.542 64.2821 123.681 64.0389 124.884 64.0389C127.034 64.0389 128.775 64.4997 130.106 65.4213C131.463 66.3429 132.423 67.5077 132.986 68.9157C133.575 70.3237 133.87 71.8085 133.87 73.3701C133.87 75.2645 133.498 76.9541 132.756 78.4389C132.039 79.8981 130.951 81.0501 129.492 81.8949C128.058 82.7397 126.292 83.1621 124.193 83.1621C121.402 83.1621 119.162 82.4709 117.473 81.0885C115.783 79.7061 114.772 77.8757 114.439 75.5973H118.702C118.983 76.8005 119.61 77.7605 120.583 78.4773C121.556 79.1685 122.772 79.5141 124.231 79.5141C126.049 79.5141 127.406 78.9637 128.302 77.8629C129.223 76.7621 129.684 75.3029 129.684 73.4853C129.684 71.6421 129.223 70.2341 128.302 69.2613C127.38 68.2629 126.023 67.7637 124.231 67.7637C122.977 67.7637 121.914 68.0837 121.044 68.7237C120.199 69.3381 119.585 70.1829 119.201 71.2581H115.054V55.0917H131.95V58.9317Z" fill="#E6E6E6"/>
<path d="M159.899 71.1429H152.142V79.0917H148.072V71.1429H140.315V67.4565H148.072V59.5077H152.142V67.4565H159.899V71.1429Z" fill="#E6E6E6"/>
</g>
<path d="M57.1795 117.345L50.5555 130.104V137.361H47.2723V130.104L40.6195 117.345H44.2771L48.9139 127.166L53.5507 117.345H57.1795ZM73.609 129.038C73.609 129.633 73.5706 130.171 73.4938 130.651H61.369C61.465 131.918 61.9354 132.936 62.7802 133.704C63.625 134.472 64.6618 134.856 65.8906 134.856C67.657 134.856 68.905 134.117 69.6346 132.638H73.177C72.697 134.097 71.8234 135.297 70.5562 136.238C69.3082 137.16 67.753 137.621 65.8906 137.621C64.3738 137.621 63.0106 137.285 61.801 136.613C60.6106 135.921 59.6698 134.961 58.9786 133.733C58.3066 132.485 57.9706 131.045 57.9706 129.413C57.9706 127.781 58.297 126.35 58.9498 125.121C59.6218 123.873 60.553 122.913 61.7434 122.241C62.953 121.569 64.3354 121.233 65.8906 121.233C67.3882 121.233 68.7226 121.56 69.8938 122.213C71.065 122.865 71.977 123.787 72.6298 124.977C73.2826 126.149 73.609 127.502 73.609 129.038ZM70.1818 128.001C70.1626 126.792 69.7306 125.822 68.8858 125.093C68.041 124.363 66.9946 123.998 65.7466 123.998C64.6138 123.998 63.6442 124.363 62.8378 125.093C62.0314 125.803 61.5514 126.773 61.3978 128.001H70.1818ZM75.0256 129.355C75.0256 127.761 75.352 126.35 76.0048 125.121C76.6768 123.893 77.5792 122.942 78.712 122.27C79.864 121.579 81.1312 121.233 82.5136 121.233C83.7616 121.233 84.8464 121.483 85.768 121.982C86.7088 122.462 87.4576 123.067 88.0144 123.797V121.493H91.3264V137.361H88.0144V135C87.4576 135.749 86.6992 136.373 85.7392 136.872C84.7792 137.371 83.6848 137.621 82.456 137.621C81.0928 137.621 79.8448 137.275 78.712 136.584C77.5792 135.873 76.6768 134.894 76.0048 133.646C75.352 132.379 75.0256 130.949 75.0256 129.355ZM88.0144 129.413C88.0144 128.318 87.784 127.368 87.3232 126.561C86.8816 125.755 86.296 125.141 85.5664 124.718C84.8368 124.296 84.0496 124.085 83.2048 124.085C82.36 124.085 81.5728 124.296 80.8432 124.718C80.1136 125.121 79.5184 125.726 79.0576 126.533C78.616 127.32 78.3952 128.261 78.3952 129.355C78.3952 130.449 78.616 131.409 79.0576 132.235C79.5184 133.061 80.1136 133.694 80.8432 134.136C81.592 134.558 82.3792 134.769 83.2048 134.769C84.0496 134.769 84.8368 134.558 85.5664 134.136C86.296 133.713 86.8816 133.099 87.3232 132.293C87.784 131.467 88.0144 130.507 88.0144 129.413ZM98.202 123.797C98.682 122.99 99.3156 122.366 100.103 121.925C100.909 121.464 101.86 121.233 102.954 121.233V124.632H102.119C100.832 124.632 99.8532 124.958 99.1812 125.611C98.5284 126.264 98.202 127.397 98.202 129.009V137.361H94.9188V121.493H98.202V123.797ZM111.012 137.621C109.764 137.621 108.641 137.4 107.642 136.958C106.663 136.497 105.885 135.883 105.309 135.115C104.733 134.328 104.426 133.454 104.388 132.494H107.786C107.844 133.166 108.161 133.733 108.737 134.193C109.332 134.635 110.071 134.856 110.954 134.856C111.876 134.856 112.586 134.683 113.085 134.337C113.604 133.973 113.863 133.512 113.863 132.955C113.863 132.36 113.575 131.918 112.999 131.63C112.442 131.342 111.549 131.025 110.321 130.68C109.13 130.353 108.161 130.037 107.412 129.729C106.663 129.422 106.01 128.952 105.453 128.318C104.916 127.685 104.647 126.849 104.647 125.813C104.647 124.968 104.897 124.2 105.396 123.509C105.895 122.798 106.605 122.241 107.527 121.838C108.468 121.435 109.543 121.233 110.753 121.233C112.557 121.233 114.007 121.694 115.101 122.616C116.215 123.518 116.81 124.757 116.887 126.331H113.604C113.546 125.621 113.258 125.054 112.74 124.632C112.221 124.209 111.521 123.998 110.637 123.998C109.773 123.998 109.111 124.161 108.65 124.488C108.189 124.814 107.959 125.246 107.959 125.784C107.959 126.206 108.113 126.561 108.42 126.849C108.727 127.137 109.101 127.368 109.543 127.541C109.985 127.694 110.637 127.896 111.501 128.145C112.653 128.453 113.594 128.769 114.324 129.096C115.073 129.403 115.716 129.864 116.253 130.478C116.791 131.093 117.069 131.909 117.089 132.926C117.089 133.829 116.839 134.635 116.34 135.345C115.841 136.056 115.13 136.613 114.209 137.016C113.306 137.419 112.241 137.621 111.012 137.621ZM133.561 137.621C132.063 137.621 130.71 137.285 129.5 136.613C128.29 135.921 127.34 134.961 126.649 133.733C125.958 132.485 125.612 131.045 125.612 129.413C125.612 127.8 125.967 126.369 126.678 125.121C127.388 123.873 128.358 122.913 129.586 122.241C130.815 121.569 132.188 121.233 133.705 121.233C135.222 121.233 136.594 121.569 137.823 122.241C139.052 122.913 140.022 123.873 140.732 125.121C141.442 126.369 141.798 127.8 141.798 129.413C141.798 131.025 141.433 132.456 140.703 133.704C139.974 134.952 138.975 135.921 137.708 136.613C136.46 137.285 135.078 137.621 133.561 137.621ZM133.561 134.769C134.406 134.769 135.193 134.568 135.922 134.165C136.671 133.761 137.276 133.157 137.737 132.35C138.198 131.544 138.428 130.565 138.428 129.413C138.428 128.261 138.207 127.291 137.766 126.504C137.324 125.697 136.738 125.093 136.009 124.689C135.279 124.286 134.492 124.085 133.647 124.085C132.802 124.085 132.015 124.286 131.286 124.689C130.575 125.093 130.009 125.697 129.586 126.504C129.164 127.291 128.953 128.261 128.953 129.413C128.953 131.121 129.385 132.446 130.249 133.387C131.132 134.309 132.236 134.769 133.561 134.769ZM150.976 124.171H148.038V137.361H144.726V124.171H142.854V121.493H144.726V120.369C144.726 118.545 145.206 117.221 146.166 116.395C147.146 115.55 148.672 115.128 150.746 115.128V117.864C149.747 117.864 149.046 118.056 148.643 118.44C148.24 118.805 148.038 119.448 148.038 120.369V121.493H150.976V124.171ZM163.21 119.995V125.87H170.122V128.549H163.21V134.683H170.986V137.361H159.927V117.317H170.986V119.995H163.21ZM181.107 129.326L186.233 137.361H182.518L179.091 131.976L175.865 137.361H172.438L177.564 129.557L172.438 121.493H176.153L179.58 126.878L182.806 121.493H186.233L181.107 129.326ZM191.245 123.825C191.802 123.096 192.56 122.481 193.52 121.982C194.48 121.483 195.565 121.233 196.775 121.233C198.157 121.233 199.415 121.579 200.547 122.27C201.699 122.942 202.602 123.893 203.255 125.121C203.907 126.35 204.234 127.761 204.234 129.355C204.234 130.949 203.907 132.379 203.255 133.646C202.602 134.894 201.699 135.873 200.547 136.584C199.415 137.275 198.157 137.621 196.775 137.621C195.565 137.621 194.49 137.381 193.549 136.901C192.608 136.401 191.84 135.787 191.245 135.057V144.907H187.962V121.493H191.245V123.825ZM200.893 129.355C200.893 128.261 200.663 127.32 200.202 126.533C199.76 125.726 199.165 125.121 198.416 124.718C197.687 124.296 196.899 124.085 196.055 124.085C195.229 124.085 194.442 124.296 193.693 124.718C192.963 125.141 192.368 125.755 191.907 126.561C191.466 127.368 191.245 128.318 191.245 129.413C191.245 130.507 191.466 131.467 191.907 132.293C192.368 133.099 192.963 133.713 193.693 134.136C194.442 134.558 195.229 134.769 196.055 134.769C196.899 134.769 197.687 134.558 198.416 134.136C199.165 133.694 199.76 133.061 200.202 132.235C200.663 131.409 200.893 130.449 200.893 129.355ZM221.305 129.038C221.305 129.633 221.266 130.171 221.189 130.651H209.065C209.161 131.918 209.631 132.936 210.476 133.704C211.321 134.472 212.357 134.856 213.586 134.856C215.353 134.856 216.601 134.117 217.33 132.638H220.873C220.393 134.097 219.519 135.297 218.252 136.238C217.004 137.16 215.449 137.621 213.586 137.621C212.069 137.621 210.706 137.285 209.497 136.613C208.306 135.921 207.365 134.961 206.674 133.733C206.002 132.485 205.666 131.045 205.666 129.413C205.666 127.781 205.993 126.35 206.645 125.121C207.317 123.873 208.249 122.913 209.439 122.241C210.649 121.569 212.031 121.233 213.586 121.233C215.084 121.233 216.418 121.56 217.589 122.213C218.761 122.865 219.673 123.787 220.325 124.977C220.978 126.149 221.305 127.502 221.305 129.038ZM217.877 128.001C217.858 126.792 217.426 125.822 216.581 125.093C215.737 124.363 214.69 123.998 213.442 123.998C212.309 123.998 211.34 124.363 210.533 125.093C209.727 125.803 209.247 126.773 209.093 128.001H217.877ZM227.099 123.797C227.579 122.99 228.212 122.366 229 121.925C229.806 121.464 230.756 121.233 231.851 121.233V124.632H231.016C229.729 124.632 228.75 124.958 228.078 125.611C227.425 126.264 227.099 127.397 227.099 129.009V137.361H223.816V121.493H227.099V123.797ZM235.819 119.39C235.224 119.39 234.725 119.189 234.322 118.785C233.918 118.382 233.717 117.883 233.717 117.288C233.717 116.693 233.918 116.193 234.322 115.79C234.725 115.387 235.224 115.185 235.819 115.185C236.395 115.185 236.885 115.387 237.288 115.79C237.691 116.193 237.893 116.693 237.893 117.288C237.893 117.883 237.691 118.382 237.288 118.785C236.885 119.189 236.395 119.39 235.819 119.39ZM237.432 121.493V137.361H234.149V121.493H237.432ZM255.567 129.038C255.567 129.633 255.528 130.171 255.451 130.651H243.327C243.423 131.918 243.893 132.936 244.738 133.704C245.583 134.472 246.619 134.856 247.848 134.856C249.615 134.856 250.863 134.117 251.592 132.638H255.135C254.655 134.097 253.781 135.297 252.514 136.238C251.266 137.16 249.711 137.621 247.848 137.621C246.331 137.621 244.968 137.285 243.759 136.613C242.568 135.921 241.627 134.961 240.936 133.733C240.264 132.485 239.928 131.045 239.928 129.413C239.928 127.781 240.255 126.35 240.907 125.121C241.579 123.873 242.511 122.913 243.701 122.241C244.911 121.569 246.293 121.233 247.848 121.233C249.346 121.233 250.68 121.56 251.851 122.213C253.023 122.865 253.935 123.787 254.587 124.977C255.24 126.149 255.567 127.502 255.567 129.038ZM252.139 128.001C252.12 126.792 251.688 125.822 250.843 125.093C249.999 124.363 248.952 123.998 247.704 123.998C246.571 123.998 245.602 124.363 244.795 125.093C243.989 125.803 243.509 126.773 243.355 128.001H252.139ZM266.084 121.233C267.332 121.233 268.446 121.493 269.425 122.011C270.423 122.529 271.201 123.297 271.758 124.315C272.314 125.333 272.593 126.561 272.593 128.001V137.361H269.338V128.491C269.338 127.07 268.983 125.985 268.273 125.237C267.562 124.469 266.593 124.085 265.364 124.085C264.135 124.085 263.156 124.469 262.426 125.237C261.716 125.985 261.361 127.07 261.361 128.491V137.361H258.078V121.493H261.361V123.307C261.898 122.654 262.58 122.145 263.406 121.781C264.25 121.416 265.143 121.233 266.084 121.233ZM274.966 129.413C274.966 127.781 275.293 126.35 275.945 125.121C276.617 123.873 277.539 122.913 278.71 122.241C279.881 121.569 281.225 121.233 282.742 121.233C284.662 121.233 286.246 121.694 287.494 122.616C288.761 123.518 289.616 124.814 290.057 126.504H286.515C286.227 125.717 285.766 125.102 285.133 124.661C284.499 124.219 283.702 123.998 282.742 123.998C281.398 123.998 280.323 124.478 279.517 125.438C278.729 126.379 278.336 127.704 278.336 129.413C278.336 131.121 278.729 132.456 279.517 133.416C280.323 134.376 281.398 134.856 282.742 134.856C284.643 134.856 285.901 134.021 286.515 132.35H290.057C289.597 133.963 288.733 135.249 287.465 136.209C286.198 137.15 284.624 137.621 282.742 137.621C281.225 137.621 279.881 137.285 278.71 136.613C277.539 135.921 276.617 134.961 275.945 133.733C275.293 132.485 274.966 131.045 274.966 129.413ZM307.153 129.038C307.153 129.633 307.115 130.171 307.038 130.651H294.913C295.009 131.918 295.48 132.936 296.325 133.704C297.169 134.472 298.206 134.856 299.435 134.856C301.201 134.856 302.449 134.117 303.179 132.638H306.721C306.241 134.097 305.368 135.297 304.101 136.238C302.853 137.16 301.297 137.621 299.435 137.621C297.918 137.621 296.555 137.285 295.345 136.613C294.155 135.921 293.214 134.961 292.523 133.733C291.851 132.485 291.515 131.045 291.515 129.413C291.515 127.781 291.841 126.35 292.494 125.121C293.166 123.873 294.097 122.913 295.288 122.241C296.497 121.569 297.88 121.233 299.435 121.233C300.933 121.233 302.267 121.56 303.438 122.213C304.609 122.865 305.521 123.787 306.174 124.977C306.827 126.149 307.153 127.502 307.153 129.038ZM303.726 128.001C303.707 126.792 303.275 125.822 302.43 125.093C301.585 124.363 300.539 123.998 299.291 123.998C298.158 123.998 297.189 124.363 296.382 125.093C295.576 125.803 295.096 126.773 294.942 128.001H303.726Z" fill="black"/>
<path d="M42.8755 163.995V167.723H46.9395V168.923H42.8755V172.763H47.4195V173.963H41.4195V162.795H47.4195V163.995H42.8755ZM52.3266 174.107C51.6546 174.107 51.052 173.995 50.5186 173.771C49.9853 173.536 49.564 173.216 49.2546 172.811C48.9453 172.395 48.7746 171.92 48.7426 171.387H50.2466C50.2893 171.824 50.492 172.182 50.8546 172.459C51.228 172.736 51.7133 172.875 52.3106 172.875C52.8653 172.875 53.3026 172.752 53.6226 172.507C53.9426 172.262 54.1026 171.952 54.1026 171.579C54.1026 171.195 53.932 170.912 53.5906 170.731C53.2493 170.539 52.7213 170.352 52.0066 170.171C51.356 170 50.8226 169.83 50.4066 169.659C50.0013 169.478 49.6493 169.216 49.3506 168.875C49.0626 168.523 48.9186 168.064 48.9186 167.499C48.9186 167.051 49.052 166.64 49.3186 166.267C49.5853 165.894 49.964 165.6 50.4546 165.387C50.9453 165.163 51.5053 165.051 52.1346 165.051C53.1053 165.051 53.8893 165.296 54.4866 165.787C55.084 166.278 55.404 166.95 55.4466 167.803H53.9906C53.9586 167.344 53.772 166.976 53.4306 166.699C53.1 166.422 52.652 166.283 52.0866 166.283C51.564 166.283 51.148 166.395 50.8386 166.619C50.5293 166.843 50.3746 167.136 50.3746 167.499C50.3746 167.787 50.4653 168.027 50.6466 168.219C50.8386 168.4 51.0733 168.55 51.3506 168.667C51.6386 168.774 52.0333 168.896 52.5346 169.035C53.164 169.206 53.676 169.376 54.0706 169.547C54.4653 169.707 54.8013 169.952 55.0786 170.283C55.3666 170.614 55.516 171.046 55.5266 171.579C55.5266 172.059 55.3933 172.491 55.1266 172.875C54.86 173.259 54.4813 173.563 53.9906 173.787C53.5106 174 52.956 174.107 52.3266 174.107ZM58.958 166.395V171.563C58.958 171.99 59.0487 172.294 59.23 172.475C59.4113 172.646 59.726 172.731 60.174 172.731H61.246V173.963H59.934C59.1233 173.963 58.5153 173.776 58.11 173.403C57.7047 173.03 57.502 172.416 57.502 171.563V166.395H56.366V165.195H57.502V162.987H58.958V165.195H61.246V166.395H58.958ZM62.0661 169.547C62.0661 168.651 62.2475 167.867 62.6101 167.195C62.9728 166.512 63.4688 165.984 64.0981 165.611C64.7381 165.238 65.4475 165.051 66.2261 165.051C66.9941 165.051 67.6608 165.216 68.2261 165.547C68.7915 165.878 69.2128 166.294 69.4901 166.795V165.195H70.9621V173.963H69.4901V172.331C69.2021 172.843 68.7701 173.27 68.1941 173.611C67.6288 173.942 66.9675 174.107 66.2101 174.107C65.4315 174.107 64.7275 173.915 64.0981 173.531C63.4688 173.147 62.9728 172.608 62.6101 171.915C62.2475 171.222 62.0661 170.432 62.0661 169.547ZM69.4901 169.563C69.4901 168.902 69.3568 168.326 69.0901 167.835C68.8235 167.344 68.4608 166.971 68.0021 166.715C67.5541 166.448 67.0581 166.315 66.5141 166.315C65.9701 166.315 65.4741 166.443 65.0261 166.699C64.5781 166.955 64.2208 167.328 63.9541 167.819C63.6875 168.31 63.5541 168.886 63.5541 169.547C63.5541 170.219 63.6875 170.806 63.9541 171.307C64.2208 171.798 64.5781 172.176 65.0261 172.443C65.4741 172.699 65.9701 172.827 66.5141 172.827C67.0581 172.827 67.5541 172.699 68.0021 172.443C68.4608 172.176 68.8235 171.798 69.0901 171.307C69.3568 170.806 69.4901 170.224 69.4901 169.563ZM74.4786 166.827C74.7773 166.304 75.2146 165.878 75.7906 165.547C76.3666 165.216 77.0226 165.051 77.7586 165.051C78.548 165.051 79.2573 165.238 79.8866 165.611C80.516 165.984 81.012 166.512 81.3746 167.195C81.7373 167.867 81.9186 168.651 81.9186 169.547C81.9186 170.432 81.7373 171.222 81.3746 171.915C81.012 172.608 80.5106 173.147 79.8706 173.531C79.2413 173.915 78.5373 174.107 77.7586 174.107C77.0013 174.107 76.3346 173.942 75.7586 173.611C75.1933 173.28 74.7666 172.859 74.4786 172.347V173.963H73.0226V162.123H74.4786V166.827ZM80.4306 169.547C80.4306 168.886 80.2973 168.31 80.0306 167.819C79.764 167.328 79.4013 166.955 78.9426 166.699C78.4946 166.443 77.9986 166.315 77.4546 166.315C76.9213 166.315 76.4253 166.448 75.9666 166.715C75.5186 166.971 75.156 167.35 74.8786 167.851C74.612 168.342 74.4786 168.912 74.4786 169.563C74.4786 170.224 74.612 170.806 74.8786 171.307C75.156 171.798 75.5186 172.176 75.9666 172.443C76.4253 172.699 76.9213 172.827 77.4546 172.827C77.9986 172.827 78.4946 172.699 78.9426 172.443C79.4013 172.176 79.764 171.798 80.0306 171.307C80.2973 170.806 80.4306 170.219 80.4306 169.547ZM84.8911 162.123V173.963H83.4351V162.123H84.8911ZM87.7246 163.771C87.4473 163.771 87.2126 163.675 87.0206 163.483C86.8286 163.291 86.7326 163.056 86.7326 162.779C86.7326 162.502 86.8286 162.267 87.0206 162.075C87.2126 161.883 87.4473 161.787 87.7246 161.787C87.9913 161.787 88.2153 161.883 88.3966 162.075C88.5886 162.267 88.6846 162.502 88.6846 162.779C88.6846 163.056 88.5886 163.291 88.3966 163.483C88.2153 163.675 87.9913 163.771 87.7246 163.771ZM88.4286 165.195V173.963H86.9726V165.195H88.4286ZM93.6141 174.107C92.9421 174.107 92.3395 173.995 91.8061 173.771C91.2728 173.536 90.8515 173.216 90.5421 172.811C90.2328 172.395 90.0621 171.92 90.0301 171.387H91.5341C91.5768 171.824 91.7795 172.182 92.1421 172.459C92.5155 172.736 93.0008 172.875 93.5981 172.875C94.1528 172.875 94.5901 172.752 94.9101 172.507C95.2301 172.262 95.3901 171.952 95.3901 171.579C95.3901 171.195 95.2195 170.912 94.8781 170.731C94.5368 170.539 94.0088 170.352 93.2941 170.171C92.6435 170 92.1101 169.83 91.6941 169.659C91.2888 169.478 90.9368 169.216 90.6381 168.875C90.3501 168.523 90.2061 168.064 90.2061 167.499C90.2061 167.051 90.3395 166.64 90.6061 166.267C90.8728 165.894 91.2515 165.6 91.7421 165.387C92.2328 165.163 92.7928 165.051 93.4221 165.051C94.3928 165.051 95.1768 165.296 95.7741 165.787C96.3715 166.278 96.6915 166.95 96.7341 167.803H95.2781C95.2461 167.344 95.0595 166.976 94.7181 166.699C94.3875 166.422 93.9395 166.283 93.3741 166.283C92.8515 166.283 92.4355 166.395 92.1261 166.619C91.8168 166.843 91.6621 167.136 91.6621 167.499C91.6621 167.787 91.7528 168.027 91.9341 168.219C92.1261 168.4 92.3608 168.55 92.6381 168.667C92.9261 168.774 93.3208 168.896 93.8221 169.035C94.4515 169.206 94.9635 169.376 95.3581 169.547C95.7528 169.707 96.0888 169.952 96.3661 170.283C96.6541 170.614 96.8035 171.046 96.8141 171.579C96.8141 172.059 96.6808 172.491 96.4141 172.875C96.1475 173.259 95.7688 173.563 95.2781 173.787C94.7981 174 94.2435 174.107 93.6141 174.107ZM102.821 165.035C103.483 165.035 104.08 165.179 104.613 165.467C105.147 165.744 105.563 166.166 105.861 166.731C106.171 167.296 106.325 167.984 106.325 168.795V173.963H104.885V169.003C104.885 168.128 104.667 167.462 104.229 167.003C103.792 166.534 103.195 166.299 102.437 166.299C101.669 166.299 101.056 166.539 100.597 167.019C100.149 167.499 99.9255 168.198 99.9255 169.115V173.963H98.4695V162.123H99.9255V166.443C100.213 165.995 100.608 165.648 101.109 165.403C101.621 165.158 102.192 165.035 102.821 165.035ZM116.304 169.243C116.304 169.52 116.288 169.814 116.256 170.123H109.248C109.301 170.987 109.595 171.664 110.128 172.155C110.672 172.635 111.328 172.875 112.096 172.875C112.725 172.875 113.248 172.731 113.664 172.443C114.091 172.144 114.389 171.75 114.56 171.259H116.128C115.893 172.102 115.424 172.79 114.72 173.323C114.016 173.846 113.141 174.107 112.096 174.107C111.264 174.107 110.517 173.92 109.856 173.547C109.205 173.174 108.693 172.646 108.32 171.963C107.947 171.27 107.76 170.47 107.76 169.563C107.76 168.656 107.941 167.862 108.304 167.179C108.667 166.496 109.173 165.974 109.824 165.611C110.485 165.238 111.243 165.051 112.096 165.051C112.928 165.051 113.664 165.232 114.304 165.595C114.944 165.958 115.435 166.459 115.776 167.099C116.128 167.728 116.304 168.443 116.304 169.243ZM114.8 168.939C114.8 168.384 114.677 167.91 114.432 167.515C114.187 167.11 113.851 166.806 113.424 166.603C113.008 166.39 112.544 166.283 112.032 166.283C111.296 166.283 110.667 166.518 110.144 166.987C109.632 167.456 109.339 168.107 109.264 168.939H114.8ZM117.282 169.547C117.282 168.651 117.463 167.867 117.826 167.195C118.188 166.512 118.684 165.984 119.314 165.611C119.954 165.238 120.668 165.051 121.458 165.051C122.14 165.051 122.775 165.211 123.362 165.531C123.948 165.84 124.396 166.251 124.706 166.763V162.123H126.178V173.963H124.706V172.315C124.418 172.838 123.991 173.27 123.426 173.611C122.86 173.942 122.199 174.107 121.442 174.107C120.663 174.107 119.954 173.915 119.314 173.531C118.684 173.147 118.188 172.608 117.826 171.915C117.463 171.222 117.282 170.432 117.282 169.547ZM124.706 169.563C124.706 168.902 124.572 168.326 124.306 167.835C124.039 167.344 123.676 166.971 123.218 166.715C122.77 166.448 122.274 166.315 121.73 166.315C121.186 166.315 120.69 166.443 120.242 166.699C119.794 166.955 119.436 167.328 119.17 167.819C118.903 168.31 118.77 168.886 118.77 169.547C118.77 170.219 118.903 170.806 119.17 171.307C119.436 171.798 119.794 172.176 120.242 172.443C120.69 172.699 121.186 172.827 121.73 172.827C122.274 172.827 122.77 172.699 123.218 172.443C123.676 172.176 124.039 171.798 124.306 171.307C124.572 170.806 124.706 170.224 124.706 169.563ZM132.856 163.771C132.579 163.771 132.344 163.675 132.152 163.483C131.96 163.291 131.864 163.056 131.864 162.779C131.864 162.502 131.96 162.267 132.152 162.075C132.344 161.883 132.579 161.787 132.856 161.787C133.123 161.787 133.347 161.883 133.528 162.075C133.72 162.267 133.816 162.502 133.816 162.779C133.816 163.056 133.72 163.291 133.528 163.483C133.347 163.675 133.123 163.771 132.856 163.771ZM133.56 165.195V173.963H132.104V165.195H133.56ZM139.913 165.035C140.98 165.035 141.844 165.36 142.505 166.011C143.167 166.651 143.497 167.579 143.497 168.795V173.963H142.057V169.003C142.057 168.128 141.839 167.462 141.401 167.003C140.964 166.534 140.367 166.299 139.609 166.299C138.841 166.299 138.228 166.539 137.769 167.019C137.321 167.499 137.097 168.198 137.097 169.115V173.963H135.641V165.195H137.097V166.443C137.385 165.995 137.775 165.648 138.265 165.403C138.767 165.158 139.316 165.035 139.913 165.035ZM148.925 172.795C150.28 171.707 151.341 170.816 152.109 170.123C152.877 169.419 153.523 168.688 154.045 167.931C154.579 167.163 154.845 166.411 154.845 165.675C154.845 164.982 154.675 164.438 154.333 164.043C154.003 163.638 153.464 163.435 152.717 163.435C151.992 163.435 151.427 163.664 151.021 164.123C150.627 164.571 150.413 165.174 150.381 165.931H148.973C149.016 164.736 149.379 163.814 150.061 163.163C150.744 162.512 151.624 162.187 152.701 162.187C153.8 162.187 154.669 162.491 155.309 163.099C155.96 163.707 156.285 164.544 156.285 165.611C156.285 166.496 156.019 167.36 155.485 168.203C154.963 169.035 154.365 169.771 153.693 170.411C153.021 171.04 152.163 171.776 151.117 172.619H156.621V173.835H148.925V172.795ZM157.904 168.059C157.904 166.224 158.203 164.795 158.8 163.771C159.398 162.736 160.443 162.219 161.936 162.219C163.419 162.219 164.459 162.736 165.056 163.771C165.654 164.795 165.952 166.224 165.952 168.059C165.952 169.926 165.654 171.376 165.056 172.411C164.459 173.446 163.419 173.963 161.936 173.963C160.443 173.963 159.398 173.446 158.8 172.411C158.203 171.376 157.904 169.926 157.904 168.059ZM164.512 168.059C164.512 167.131 164.448 166.347 164.32 165.707C164.203 165.056 163.952 164.534 163.568 164.139C163.195 163.744 162.651 163.547 161.936 163.547C161.211 163.547 160.656 163.744 160.272 164.139C159.899 164.534 159.648 165.056 159.52 165.707C159.403 166.347 159.344 167.131 159.344 168.059C159.344 169.019 159.403 169.824 159.52 170.475C159.648 171.126 159.899 171.648 160.272 172.043C160.656 172.438 161.211 172.635 161.936 172.635C162.651 172.635 163.195 172.438 163.568 172.043C163.952 171.648 164.203 171.126 164.32 170.475C164.448 169.824 164.512 169.019 164.512 168.059ZM167.167 163.723V162.395H170.175V173.963H168.703V163.723H167.167ZM174.388 167.947C173.791 167.712 173.332 167.371 173.012 166.923C172.692 166.475 172.532 165.931 172.532 165.291C172.532 164.715 172.676 164.198 172.964 163.739C173.252 163.27 173.679 162.902 174.244 162.635C174.82 162.358 175.514 162.219 176.324 162.219C177.135 162.219 177.823 162.358 178.388 162.635C178.964 162.902 179.396 163.27 179.684 163.739C179.983 164.198 180.132 164.715 180.132 165.291C180.132 165.91 179.967 166.454 179.636 166.923C179.306 167.382 178.852 167.723 178.276 167.947C178.938 168.15 179.46 168.507 179.844 169.019C180.239 169.52 180.436 170.128 180.436 170.843C180.436 171.536 180.266 172.144 179.924 172.667C179.583 173.179 179.098 173.579 178.468 173.867C177.85 174.144 177.135 174.283 176.324 174.283C175.514 174.283 174.799 174.144 174.18 173.867C173.572 173.579 173.098 173.179 172.756 172.667C172.415 172.144 172.244 171.536 172.244 170.843C172.244 170.128 172.436 169.515 172.82 169.003C173.204 168.491 173.727 168.139 174.388 167.947ZM178.724 165.467C178.724 164.816 178.511 164.315 178.084 163.963C177.658 163.611 177.071 163.435 176.324 163.435C175.588 163.435 175.007 163.611 174.58 163.963C174.154 164.315 173.94 164.822 173.94 165.483C173.94 166.08 174.159 166.56 174.596 166.923C175.044 167.286 175.62 167.467 176.324 167.467C177.039 167.467 177.615 167.286 178.052 166.923C178.5 166.55 178.724 166.064 178.724 165.467ZM176.324 168.587C175.535 168.587 174.89 168.774 174.388 169.147C173.887 169.51 173.636 170.059 173.636 170.795C173.636 171.478 173.876 172.027 174.356 172.443C174.847 172.859 175.503 173.067 176.324 173.067C177.146 173.067 177.796 172.859 178.276 172.443C178.756 172.027 178.996 171.478 178.996 170.795C178.996 170.08 178.751 169.536 178.26 169.163C177.77 168.779 177.124 168.587 176.324 168.587ZM182.674 174.059C182.397 174.059 182.162 173.963 181.97 173.771C181.778 173.579 181.682 173.344 181.682 173.067C181.682 172.79 181.778 172.555 181.97 172.363C182.162 172.171 182.397 172.075 182.674 172.075C182.941 172.075 183.165 172.171 183.346 172.363C183.538 172.555 183.634 172.79 183.634 173.067C183.634 173.344 183.538 173.579 183.346 173.771C183.165 173.963 182.941 174.059 182.674 174.059Z" fill="black"/>
</g>
<rect x="1.78906" y="2.16211" width="364.8" height="540.906" rx="28.8" stroke="#131313" stroke-width="2.4"/>
<defs>
<filter id="filter0_b_1610_4128" x="74.3945" y="252.031" width="218.781" height="203.578" filterUnits="userSpaceOnUse" color-interpolation-filters="sRGB">
<feFlood flood-opacity="0" result="BackgroundImageFix"/>
<feGaussianBlur in="BackgroundImageFix" stdDeviation="24"/>
<feComposite in2="SourceAlpha" operator="in" result="effect1_backgroundBlur_1610_4128"/>
<feBlend mode="normal" in="SourceGraphic" in2="effect1_backgroundBlur_1610_4128" result="shape"/>
</filter>
<filter id="filter1_b_1610_4128" x="98.3945" y="383.604" width="170.781" height="155.578" filterUnits="userSpaceOnUse" color-interpolation-filters="sRGB">
<feFlood flood-opacity="0" result="BackgroundImageFix"/>
<feGaussianBlur in="BackgroundImageFix" stdDeviation="12"/>
<feComposite in2="SourceAlpha" operator="in" result="effect1_backgroundBlur_1610_4128"/>
<feBlend mode="normal" in="SourceGraphic" in2="effect1_backgroundBlur_1610_4128" result="shape"/>
</filter>
<clipPath id="clip0_1610_4128">
<rect x="1.78906" y="2.16211" width="364.8" height="540.906" rx="28.8" fill="white"/>
</clipPath>
<clipPath id="clip1_1610_4128">
<rect width="144.569" height="57.6" fill="white" transform="translate(40.1914 40.5625)"/>
</clipPath>
</defs>
</svg>
