<svg width="133" height="133" viewBox="0 0 133 133" fill="none" xmlns="http://www.w3.org/2000/svg">
<path d="M93.8906 27.8457H38.8906C22.3906 27.8457 11.3906 38.8457 11.3906 55.3457V93.8457C11.3906 110.346 22.3906 121.346 38.8906 121.346H93.8906C110.391 121.346 121.391 110.346 121.391 93.8457V55.3457C121.391 38.8457 110.391 27.8457 93.8906 27.8457Z" stroke="#8E8E8E" stroke-width="4.8" stroke-linecap="round" stroke-linejoin="round"/>
<path d="M38.8906 11.3457V27.8457" stroke="#8E8E8E" stroke-width="4.8" stroke-linecap="round" stroke-linejoin="round"/>
<path d="M47.1406 88.3457C54.7345 88.3457 60.8906 82.1896 60.8906 74.5957C60.8906 67.0018 54.7345 60.8457 47.1406 60.8457C39.5467 60.8457 33.3906 67.0018 33.3906 74.5957C33.3906 82.1896 39.5467 88.3457 47.1406 88.3457Z" stroke="#8E8E8E" stroke-width="4.8" stroke-linecap="round" stroke-linejoin="round"/>
<path d="M80.1406 60.8457H102.141" stroke="#8E8E8E" stroke-width="4.8" stroke-linecap="round" stroke-linejoin="round"/>
<path d="M80.1406 82.8457H82.8906" stroke="#8E8E8E" stroke-width="4.8" stroke-linecap="round" stroke-linejoin="round"/>
<path d="M99.3906 82.8457H102.141" stroke="#8E8E8E" stroke-width="4.8" stroke-linecap="round" stroke-linejoin="round"/>
</svg>
