<svg width="133" height="133" viewBox="0 0 133 133" fill="none" xmlns="http://www.w3.org/2000/svg">
<g clip-path="url(#clip0_1610_4185)">
<path d="M54.8742 121.219H78.4692C87.3792 121.219 93.2642 114.839 91.5042 107.084L87.7092 90.1436H45.6892L41.8942 107.084C40.1892 114.399 46.4592 121.219 54.8742 121.219Z" stroke="#8E8E8E" stroke-width="4.8" stroke-linecap="round" stroke-linejoin="round"/>
<path d="M87.6522 90.1439L103.822 75.7889C112.842 67.7589 113.227 62.1489 106.077 53.0739L77.5322 16.8839C71.5372 9.29391 61.7472 9.29391 55.6972 16.8839L27.2072 53.0739C20.0572 62.1489 20.0572 68.0339 29.4622 75.7889L45.6322 90.1439" stroke="#8E8E8E" stroke-width="4.8" stroke-linecap="round" stroke-linejoin="round"/>
<path d="M66.6445 14.9043V38.5543" stroke="#8E8E8E" stroke-width="4.8" stroke-linecap="round" stroke-linejoin="round"/>
<circle cx="66.5758" cy="38.5523" r="6.4" fill="#8E8E8E"/>
</g>
<defs>
<clipPath id="clip0_1610_4185">
<rect width="132" height="132" fill="white" transform="translate(0.589844 0.21875)"/>
</clipPath>
</defs>
</svg>
