<svg width="133" height="133" viewBox="0 0 133 133" fill="none" xmlns="http://www.w3.org/2000/svg">
<path d="M69.5009 113.173H34.7409C17.3609 113.173 11.5859 101.623 11.5859 90.0177V43.7077C11.5859 26.3277 17.3609 20.5527 34.7409 20.5527H69.5009C86.8809 20.5527 92.6559 26.3277 92.6559 43.7077V90.0177C92.6559 107.398 86.8259 113.173 69.5009 113.173Z" stroke="#8E8E8E" stroke-width="4.8" stroke-linecap="round" stroke-linejoin="round"/>
<path d="M107.958 94.9238L92.668 84.1988V49.4938L107.958 38.7688C115.438 33.5438 121.598 36.7338 121.598 45.9188V87.8288C121.598 97.0138 115.438 100.204 107.958 94.9238Z" stroke="#8E8E8E" stroke-width="4.8" stroke-linecap="round" stroke-linejoin="round"/>
<path d="M63.8359 61.373C68.3923 61.373 72.0859 57.6794 72.0859 53.123C72.0859 48.5667 68.3923 44.873 63.8359 44.873C59.2796 44.873 55.5859 48.5667 55.5859 53.123C55.5859 57.6794 59.2796 61.373 63.8359 61.373Z" stroke="#8E8E8E" stroke-width="4.8" stroke-linecap="round" stroke-linejoin="round"/>
</svg>
