<svg width="133" height="133" viewBox="0 0 133 133" fill="none" xmlns="http://www.w3.org/2000/svg">
<path d="M18.0352 41.0977L66.6001 69.2026L114.835 41.2625" stroke="#8E8E8E" stroke-width="4.8" stroke-linecap="round" stroke-linejoin="round"/>
<path d="M66.5898 119.041V69.1562" stroke="#8E8E8E" stroke-width="4.8" stroke-linecap="round" stroke-linejoin="round"/>
<path d="M55.2043 13.8099L25.8343 30.1451C19.1793 33.8301 13.7344 43.07 13.7344 50.66V81.7351C13.7344 89.3251 19.1793 98.565 25.8343 102.25L55.2043 118.585C61.4743 122.05 71.7592 122.05 78.0292 118.585L107.399 102.25C114.054 98.565 119.499 89.3251 119.499 81.7351V50.66C119.499 43.07 114.054 33.8301 107.399 30.1451L78.0292 13.8099C71.7042 10.2899 61.4743 10.2899 55.2043 13.8099Z" stroke="#8E8E8E" stroke-width="4.8" stroke-linecap="round" stroke-linejoin="round"/>
<path d="M94.0739 72.9986V52.8687L41.8789 22.7285" stroke="#8E8E8E" stroke-width="4.8" stroke-linecap="round" stroke-linejoin="round"/>
</svg>
