<svg width="133" height="133" viewBox="0 0 133 133" fill="none" xmlns="http://www.w3.org/2000/svg">
<path d="M39.5278 99.2212L17.4728 77.1661C10.1028 69.7961 10.1028 62.4811 17.4728 55.1111L54.2128 18.3711L94.6378 58.7963C96.6728 60.8313 96.6728 64.1311 94.6378 66.1661L61.5278 99.2762C54.2678 106.536 46.8978 106.536 39.5278 99.2212Z" stroke="#8E8E8E" stroke-width="4.8" stroke-miterlimit="10" stroke-linecap="round" stroke-linejoin="round"/>
<path d="M46.918 10.9375L54.288 18.3073" stroke="#8E8E8E" stroke-width="4.8" stroke-miterlimit="10" stroke-linecap="round" stroke-linejoin="round"/>
<path d="M12.375 65.7861L95.535 62.1562" stroke="#8E8E8E" stroke-width="4.8" stroke-miterlimit="10" stroke-linecap="round" stroke-linejoin="round"/>
<path d="M17.4883 121.217H88.9883" stroke="#8E8E8E" stroke-width="4.8" stroke-miterlimit="10" stroke-linecap="round" stroke-linejoin="round"/>
<path d="M104.663 82.7168C104.663 82.7168 94.4883 93.7717 94.4883 100.537C94.4883 106.147 99.0533 110.712 104.663 110.712C110.273 110.712 114.838 106.147 114.838 100.537C114.838 93.7717 104.663 82.7168 104.663 82.7168Z" stroke="#8E8E8E" stroke-width="4.8" stroke-linecap="round" stroke-linejoin="round"/>
</svg>
