<svg width="133" height="133" viewBox="0 0 133 133" fill="none" xmlns="http://www.w3.org/2000/svg">
<path d="M119.462 56.9652H67.7617V77.3152H98.0117C97.4617 82.2652 94.1617 89.9652 87.0117 94.9152C82.6117 98.2152 76.0117 100.415 67.7617 100.415C53.4617 100.415 40.8117 91.0652 36.4117 77.3152C35.3117 74.0152 34.7617 70.1652 34.7617 66.3152C34.7617 62.4652 35.3117 58.6152 36.4117 55.3152C36.9617 54.2152 36.9617 53.1152 37.5117 52.5652C42.4617 41.0152 54.0117 32.7652 67.7617 32.7652C78.2117 32.7652 84.8117 37.1652 89.2117 41.0152L104.612 25.6152C95.2617 17.3652 82.6117 11.8652 67.7617 11.8652C46.3117 11.8652 27.6117 23.9652 18.8117 42.1152C14.9617 49.8152 12.7617 58.0652 12.7617 66.8652C12.7617 75.6652 14.9617 83.9152 18.8117 91.6152C27.6117 109.765 46.3117 121.865 67.7617 121.865C82.6117 121.865 95.2617 116.915 104.062 108.665C114.512 99.3152 120.562 85.0152 120.562 67.9652C120.562 63.5652 120.012 60.2652 119.462 56.9652Z" stroke="#8E8E8E" stroke-width="4.8" stroke-miterlimit="10" stroke-linecap="round" stroke-linejoin="round"/>
</svg>
