<svg width="133" height="133" viewBox="0 0 133 133" fill="none" xmlns="http://www.w3.org/2000/svg">
<path d="M121.586 65.6118V70.5068C121.586 90.0868 116.691 94.9268 97.1659 94.9268H36.0059C16.4809 94.9268 11.5859 90.0318 11.5859 70.5068V35.6368C11.5859 16.1118 16.4809 11.2168 36.0059 11.2168H44.5859" stroke="#8E8E8E" stroke-width="4.8" stroke-linecap="round" stroke-linejoin="round"/>
<path d="M66.5859 94.9199V121.21" stroke="#8E8E8E" stroke-width="4.8" stroke-linecap="round" stroke-linejoin="round"/>
<path d="M11.5859 71.7168H121.586" stroke="#8E8E8E" stroke-width="4.8" stroke-linecap="round" stroke-linejoin="round"/>
<path d="M41.8359 121.217H91.3359" stroke="#8E8E8E" stroke-width="4.8" stroke-linecap="round" stroke-linejoin="round"/>
<path d="M98.8039 51.7612H72.6239C65.0339 51.7612 62.5039 46.7013 62.5039 41.6413V22.2813C62.5039 16.2313 67.4539 11.2812 73.5039 11.2812H98.8039C104.414 11.2812 108.924 15.7912 108.924 21.4012V41.6413C108.924 47.2513 104.414 51.7612 98.8039 51.7612Z" stroke="#8E8E8E" stroke-width="4.8" stroke-linecap="round" stroke-linejoin="round"/>
<path d="M115.608 43.7686L108.953 39.0936V23.9136L115.608 19.2386C118.908 16.9836 121.603 18.3586 121.603 22.3736V40.6886C121.603 44.7036 118.908 46.0786 115.608 43.7686Z" stroke="#8E8E8E" stroke-width="4.8" stroke-linecap="round" stroke-linejoin="round"/>
</svg>
