<svg width="133" height="133" viewBox="0 0 133 133" fill="none" xmlns="http://www.w3.org/2000/svg">
<path d="M44.1953 11.959V28.459" stroke="#8E8E8E" stroke-width="4.8" stroke-miterlimit="10" stroke-linecap="round" stroke-linejoin="round"/>
<path d="M88.1953 11.959V28.459" stroke="#8E8E8E" stroke-width="4.8" stroke-miterlimit="10" stroke-linecap="round" stroke-linejoin="round"/>
<path d="M115.695 47.709V75.924C110.8 72.019 104.585 69.709 97.8203 69.709C91.0553 69.709 84.7303 72.0738 79.7803 76.0888C73.1253 81.3138 68.9453 89.509 68.9453 98.584C68.9453 103.974 70.4854 109.144 73.1254 113.434C75.1604 116.789 77.8003 119.704 80.9353 121.959H44.1953C24.9453 121.959 16.6953 110.959 16.6953 94.459V47.709C16.6953 31.209 24.9453 20.209 44.1953 20.209H88.1953C107.445 20.209 115.695 31.209 115.695 47.709Z" stroke="#8E8E8E" stroke-width="4.8" stroke-miterlimit="10" stroke-linecap="round" stroke-linejoin="round"/>
<path d="M38.6953 61.459H71.6953" stroke="#8E8E8E" stroke-width="4.8" stroke-miterlimit="10" stroke-linecap="round" stroke-linejoin="round"/>
<path d="M38.6953 88.959H53.1053" stroke="#8E8E8E" stroke-width="4.8" stroke-miterlimit="10" stroke-linecap="round" stroke-linejoin="round"/>
<path d="M126.695 98.584C126.695 103.974 125.155 109.144 122.515 113.434C120.975 116.074 119.05 118.384 116.795 120.254C111.735 124.764 105.135 127.459 97.8203 127.459C91.4953 127.459 85.6653 125.424 80.9353 121.959C77.8003 119.704 75.1604 116.789 73.1254 113.434C70.4854 109.144 68.9453 103.974 68.9453 98.584C68.9453 89.509 73.1253 81.3138 79.7803 76.0888C84.7303 72.0738 91.0553 69.709 97.8203 69.709C104.585 69.709 110.8 72.019 115.695 75.924C122.405 81.204 126.695 89.399 126.695 98.584Z" stroke="#8E8E8E" stroke-width="4.8" stroke-miterlimit="10" stroke-linecap="round" stroke-linejoin="round"/>
<path d="M97.8203 112.334C97.8203 104.744 103.98 98.584 111.57 98.584C103.98 98.584 97.8203 92.424 97.8203 84.834C97.8203 92.424 91.6603 98.584 84.0703 98.584C91.6603 98.584 97.8203 104.744 97.8203 112.334Z" stroke="#8E8E8E" stroke-width="4.8" stroke-linecap="round" stroke-linejoin="round"/>
</svg>
