<svg width="133" height="133" viewBox="0 0 133 133" fill="none" xmlns="http://www.w3.org/2000/svg">
<path d="M86.2862 66.1451C86.2862 77.0351 77.4862 85.8351 66.5962 85.8351C55.7062 85.8351 46.9062 77.0351 46.9062 66.1451C46.9062 55.2551 55.7062 46.4551 66.5962 46.4551C77.4862 46.4551 86.2862 55.2551 86.2862 66.1451Z" stroke="#8E8E8E" stroke-width="4.8" stroke-linecap="round" stroke-linejoin="round"/>
<path d="M66.6027 111.613C86.0177 111.613 104.113 100.173 116.708 80.3729C121.658 72.6179 121.658 59.5829 116.708 51.8279C104.113 32.0279 86.0177 20.5879 66.6027 20.5879C47.1877 20.5879 29.0927 32.0279 16.4977 51.8279C11.5477 59.5829 11.5477 72.6179 16.4977 80.3729C29.0927 100.173 47.1877 111.613 66.6027 111.613Z" stroke="#8E8E8E" stroke-width="4.8" stroke-linecap="round" stroke-linejoin="round"/>
</svg>
